%TF.GenerationSoftware,KiCad,Pcbnew,8.0.2*%
%TF.CreationDate,2024-07-06T21:08:24-05:00*%
%TF.ProjectId,bonsai,626f6e73-6169-42e6-9b69-6361645f7063,v1*%
%TF.SameCoordinates,Original*%
%TF.FileFunction,Legend,Bot*%
%TF.FilePolarity,Positive*%
%FSLAX46Y46*%
G04 Gerber Fmt 4.6, Leading zero omitted, Abs format (unit mm)*
G04 Created by KiCad (PCBNEW 8.0.2) date 2024-07-06 21:08:24*
%MOMM*%
%LPD*%
G01*
G04 APERTURE LIST*
%ADD10C,0.125000*%
%ADD11C,0.150000*%
%ADD12C,0.100000*%
%ADD13C,0.250000*%
G04 APERTURE END LIST*
D10*
X58898716Y-28232309D02*
X58898716Y-27732309D01*
X58613002Y-28232309D02*
X58827287Y-27946595D01*
X58613002Y-27732309D02*
X58898716Y-28018023D01*
X58160621Y-27732309D02*
X58398716Y-27732309D01*
X58398716Y-27732309D02*
X58422525Y-27970404D01*
X58422525Y-27970404D02*
X58398716Y-27946595D01*
X58398716Y-27946595D02*
X58351097Y-27922785D01*
X58351097Y-27922785D02*
X58232049Y-27922785D01*
X58232049Y-27922785D02*
X58184430Y-27946595D01*
X58184430Y-27946595D02*
X58160621Y-27970404D01*
X58160621Y-27970404D02*
X58136811Y-28018023D01*
X58136811Y-28018023D02*
X58136811Y-28137071D01*
X58136811Y-28137071D02*
X58160621Y-28184690D01*
X58160621Y-28184690D02*
X58184430Y-28208500D01*
X58184430Y-28208500D02*
X58232049Y-28232309D01*
X58232049Y-28232309D02*
X58351097Y-28232309D01*
X58351097Y-28232309D02*
X58398716Y-28208500D01*
X58398716Y-28208500D02*
X58422525Y-28184690D01*
X40798716Y-32932309D02*
X40798716Y-32432309D01*
X40513002Y-32932309D02*
X40727287Y-32646595D01*
X40513002Y-32432309D02*
X40798716Y-32718023D01*
X40084430Y-32432309D02*
X40179668Y-32432309D01*
X40179668Y-32432309D02*
X40227287Y-32456119D01*
X40227287Y-32456119D02*
X40251097Y-32479928D01*
X40251097Y-32479928D02*
X40298716Y-32551357D01*
X40298716Y-32551357D02*
X40322525Y-32646595D01*
X40322525Y-32646595D02*
X40322525Y-32837071D01*
X40322525Y-32837071D02*
X40298716Y-32884690D01*
X40298716Y-32884690D02*
X40274906Y-32908500D01*
X40274906Y-32908500D02*
X40227287Y-32932309D01*
X40227287Y-32932309D02*
X40132049Y-32932309D01*
X40132049Y-32932309D02*
X40084430Y-32908500D01*
X40084430Y-32908500D02*
X40060621Y-32884690D01*
X40060621Y-32884690D02*
X40036811Y-32837071D01*
X40036811Y-32837071D02*
X40036811Y-32718023D01*
X40036811Y-32718023D02*
X40060621Y-32670404D01*
X40060621Y-32670404D02*
X40084430Y-32646595D01*
X40084430Y-32646595D02*
X40132049Y-32622785D01*
X40132049Y-32622785D02*
X40227287Y-32622785D01*
X40227287Y-32622785D02*
X40274906Y-32646595D01*
X40274906Y-32646595D02*
X40298716Y-32670404D01*
X40298716Y-32670404D02*
X40322525Y-32718023D01*
X58898716Y-45232309D02*
X58898716Y-44732309D01*
X58613002Y-45232309D02*
X58827287Y-44946595D01*
X58613002Y-44732309D02*
X58898716Y-45018023D01*
X58422525Y-44779928D02*
X58398716Y-44756119D01*
X58398716Y-44756119D02*
X58351097Y-44732309D01*
X58351097Y-44732309D02*
X58232049Y-44732309D01*
X58232049Y-44732309D02*
X58184430Y-44756119D01*
X58184430Y-44756119D02*
X58160621Y-44779928D01*
X58160621Y-44779928D02*
X58136811Y-44827547D01*
X58136811Y-44827547D02*
X58136811Y-44875166D01*
X58136811Y-44875166D02*
X58160621Y-44946595D01*
X58160621Y-44946595D02*
X58446335Y-45232309D01*
X58446335Y-45232309D02*
X58136811Y-45232309D01*
D11*
X60819047Y-30986065D02*
X60676190Y-31033684D01*
X60676190Y-31033684D02*
X60628571Y-31081303D01*
X60628571Y-31081303D02*
X60580952Y-31176541D01*
X60580952Y-31176541D02*
X60580952Y-31319398D01*
X60580952Y-31319398D02*
X60628571Y-31414636D01*
X60628571Y-31414636D02*
X60676190Y-31462256D01*
X60676190Y-31462256D02*
X60771428Y-31509875D01*
X60771428Y-31509875D02*
X61152380Y-31509875D01*
X61152380Y-31509875D02*
X61152380Y-30509875D01*
X61152380Y-30509875D02*
X60819047Y-30509875D01*
X60819047Y-30509875D02*
X60723809Y-30557494D01*
X60723809Y-30557494D02*
X60676190Y-30605113D01*
X60676190Y-30605113D02*
X60628571Y-30700351D01*
X60628571Y-30700351D02*
X60628571Y-30795589D01*
X60628571Y-30795589D02*
X60676190Y-30890827D01*
X60676190Y-30890827D02*
X60723809Y-30938446D01*
X60723809Y-30938446D02*
X60819047Y-30986065D01*
X60819047Y-30986065D02*
X61152380Y-30986065D01*
X59961904Y-30509875D02*
X59771428Y-30509875D01*
X59771428Y-30509875D02*
X59676190Y-30557494D01*
X59676190Y-30557494D02*
X59580952Y-30652732D01*
X59580952Y-30652732D02*
X59533333Y-30843208D01*
X59533333Y-30843208D02*
X59533333Y-31176541D01*
X59533333Y-31176541D02*
X59580952Y-31367017D01*
X59580952Y-31367017D02*
X59676190Y-31462256D01*
X59676190Y-31462256D02*
X59771428Y-31509875D01*
X59771428Y-31509875D02*
X59961904Y-31509875D01*
X59961904Y-31509875D02*
X60057142Y-31462256D01*
X60057142Y-31462256D02*
X60152380Y-31367017D01*
X60152380Y-31367017D02*
X60199999Y-31176541D01*
X60199999Y-31176541D02*
X60199999Y-30843208D01*
X60199999Y-30843208D02*
X60152380Y-30652732D01*
X60152380Y-30652732D02*
X60057142Y-30557494D01*
X60057142Y-30557494D02*
X59961904Y-30509875D01*
X59104761Y-31509875D02*
X59104761Y-30509875D01*
X59104761Y-30509875D02*
X58533333Y-31509875D01*
X58533333Y-31509875D02*
X58533333Y-30509875D01*
X58104761Y-31462256D02*
X57961904Y-31509875D01*
X57961904Y-31509875D02*
X57723809Y-31509875D01*
X57723809Y-31509875D02*
X57628571Y-31462256D01*
X57628571Y-31462256D02*
X57580952Y-31414636D01*
X57580952Y-31414636D02*
X57533333Y-31319398D01*
X57533333Y-31319398D02*
X57533333Y-31224160D01*
X57533333Y-31224160D02*
X57580952Y-31128922D01*
X57580952Y-31128922D02*
X57628571Y-31081303D01*
X57628571Y-31081303D02*
X57723809Y-31033684D01*
X57723809Y-31033684D02*
X57914285Y-30986065D01*
X57914285Y-30986065D02*
X58009523Y-30938446D01*
X58009523Y-30938446D02*
X58057142Y-30890827D01*
X58057142Y-30890827D02*
X58104761Y-30795589D01*
X58104761Y-30795589D02*
X58104761Y-30700351D01*
X58104761Y-30700351D02*
X58057142Y-30605113D01*
X58057142Y-30605113D02*
X58009523Y-30557494D01*
X58009523Y-30557494D02*
X57914285Y-30509875D01*
X57914285Y-30509875D02*
X57676190Y-30509875D01*
X57676190Y-30509875D02*
X57533333Y-30557494D01*
X57152380Y-31224160D02*
X56676190Y-31224160D01*
X57247618Y-31509875D02*
X56914285Y-30509875D01*
X56914285Y-30509875D02*
X56580952Y-31509875D01*
X56247618Y-31509875D02*
X56247618Y-30509875D01*
X62009524Y-32643628D02*
X62057143Y-32596009D01*
X62057143Y-32596009D02*
X62152381Y-32548390D01*
X62152381Y-32548390D02*
X62247619Y-32548390D01*
X62247619Y-32548390D02*
X62342857Y-32596009D01*
X62342857Y-32596009D02*
X62390476Y-32643628D01*
X62390476Y-32643628D02*
X62438095Y-32738866D01*
X62438095Y-32738866D02*
X62438095Y-32834104D01*
X62438095Y-32834104D02*
X62390476Y-32929342D01*
X62390476Y-32929342D02*
X62342857Y-32976961D01*
X62342857Y-32976961D02*
X62247619Y-33024580D01*
X62247619Y-33024580D02*
X62152381Y-33024580D01*
X62152381Y-33024580D02*
X62057143Y-32976961D01*
X62057143Y-32976961D02*
X62009524Y-32929342D01*
X62009524Y-32548390D02*
X62009524Y-32929342D01*
X62009524Y-32929342D02*
X61961905Y-32976961D01*
X61961905Y-32976961D02*
X61914286Y-32976961D01*
X61914286Y-32976961D02*
X61819047Y-32929342D01*
X61819047Y-32929342D02*
X61771428Y-32834104D01*
X61771428Y-32834104D02*
X61771428Y-32596009D01*
X61771428Y-32596009D02*
X61866667Y-32453152D01*
X61866667Y-32453152D02*
X62009524Y-32357914D01*
X62009524Y-32357914D02*
X62200000Y-32310295D01*
X62200000Y-32310295D02*
X62390476Y-32357914D01*
X62390476Y-32357914D02*
X62533333Y-32453152D01*
X62533333Y-32453152D02*
X62628571Y-32596009D01*
X62628571Y-32596009D02*
X62676190Y-32786485D01*
X62676190Y-32786485D02*
X62628571Y-32976961D01*
X62628571Y-32976961D02*
X62533333Y-33119819D01*
X62533333Y-33119819D02*
X62390476Y-33215057D01*
X62390476Y-33215057D02*
X62200000Y-33262676D01*
X62200000Y-33262676D02*
X62009524Y-33215057D01*
X62009524Y-33215057D02*
X61866667Y-33119819D01*
X60914286Y-33072200D02*
X61009524Y-33119819D01*
X61009524Y-33119819D02*
X61200000Y-33119819D01*
X61200000Y-33119819D02*
X61295238Y-33072200D01*
X61295238Y-33072200D02*
X61342857Y-33024580D01*
X61342857Y-33024580D02*
X61390476Y-32929342D01*
X61390476Y-32929342D02*
X61390476Y-32643628D01*
X61390476Y-32643628D02*
X61342857Y-32548390D01*
X61342857Y-32548390D02*
X61295238Y-32500771D01*
X61295238Y-32500771D02*
X61200000Y-32453152D01*
X61200000Y-32453152D02*
X61009524Y-32453152D01*
X61009524Y-32453152D02*
X60914286Y-32500771D01*
X60342857Y-33119819D02*
X60438095Y-33072200D01*
X60438095Y-33072200D02*
X60485714Y-33024580D01*
X60485714Y-33024580D02*
X60533333Y-32929342D01*
X60533333Y-32929342D02*
X60533333Y-32643628D01*
X60533333Y-32643628D02*
X60485714Y-32548390D01*
X60485714Y-32548390D02*
X60438095Y-32500771D01*
X60438095Y-32500771D02*
X60342857Y-32453152D01*
X60342857Y-32453152D02*
X60200000Y-32453152D01*
X60200000Y-32453152D02*
X60104762Y-32500771D01*
X60104762Y-32500771D02*
X60057143Y-32548390D01*
X60057143Y-32548390D02*
X60009524Y-32643628D01*
X60009524Y-32643628D02*
X60009524Y-32929342D01*
X60009524Y-32929342D02*
X60057143Y-33024580D01*
X60057143Y-33024580D02*
X60104762Y-33072200D01*
X60104762Y-33072200D02*
X60200000Y-33119819D01*
X60200000Y-33119819D02*
X60342857Y-33119819D01*
X59580952Y-33119819D02*
X59580952Y-32453152D01*
X59580952Y-32643628D02*
X59533333Y-32548390D01*
X59533333Y-32548390D02*
X59485714Y-32500771D01*
X59485714Y-32500771D02*
X59390476Y-32453152D01*
X59390476Y-32453152D02*
X59295238Y-32453152D01*
X59057142Y-32453152D02*
X58819047Y-33119819D01*
X58819047Y-33119819D02*
X58580952Y-32453152D01*
X57819047Y-33072200D02*
X57914285Y-33119819D01*
X57914285Y-33119819D02*
X58104761Y-33119819D01*
X58104761Y-33119819D02*
X58199999Y-33072200D01*
X58199999Y-33072200D02*
X58247618Y-32976961D01*
X58247618Y-32976961D02*
X58247618Y-32596009D01*
X58247618Y-32596009D02*
X58199999Y-32500771D01*
X58199999Y-32500771D02*
X58104761Y-32453152D01*
X58104761Y-32453152D02*
X57914285Y-32453152D01*
X57914285Y-32453152D02*
X57819047Y-32500771D01*
X57819047Y-32500771D02*
X57771428Y-32596009D01*
X57771428Y-32596009D02*
X57771428Y-32691247D01*
X57771428Y-32691247D02*
X58247618Y-32786485D01*
X57485713Y-32453152D02*
X57104761Y-32453152D01*
X57342856Y-32119819D02*
X57342856Y-32976961D01*
X57342856Y-32976961D02*
X57295237Y-33072200D01*
X57295237Y-33072200D02*
X57199999Y-33119819D01*
X57199999Y-33119819D02*
X57104761Y-33119819D01*
X56914284Y-32453152D02*
X56533332Y-32453152D01*
X56771427Y-32119819D02*
X56771427Y-32976961D01*
X56771427Y-32976961D02*
X56723808Y-33072200D01*
X56723808Y-33072200D02*
X56628570Y-33119819D01*
X56628570Y-33119819D02*
X56533332Y-33119819D01*
X56247617Y-32215057D02*
X56199998Y-32167438D01*
X56199998Y-32167438D02*
X56104760Y-32119819D01*
X56104760Y-32119819D02*
X55866665Y-32119819D01*
X55866665Y-32119819D02*
X55771427Y-32167438D01*
X55771427Y-32167438D02*
X55723808Y-32215057D01*
X55723808Y-32215057D02*
X55676189Y-32310295D01*
X55676189Y-32310295D02*
X55676189Y-32405533D01*
X55676189Y-32405533D02*
X55723808Y-32548390D01*
X55723808Y-32548390D02*
X56295236Y-33119819D01*
X56295236Y-33119819D02*
X55676189Y-33119819D01*
X54723808Y-33119819D02*
X55295236Y-33119819D01*
X55009522Y-33119819D02*
X55009522Y-32119819D01*
X55009522Y-32119819D02*
X55104760Y-32262676D01*
X55104760Y-32262676D02*
X55199998Y-32357914D01*
X55199998Y-32357914D02*
X55295236Y-32405533D01*
D10*
X28932309Y-39201283D02*
X28432309Y-39201283D01*
X28932309Y-39486997D02*
X28646595Y-39272712D01*
X28432309Y-39486997D02*
X28718023Y-39201283D01*
X28432309Y-39653664D02*
X28432309Y-39986997D01*
X28432309Y-39986997D02*
X28932309Y-39772712D01*
D12*
X25934211Y-28730752D02*
X26696115Y-29016466D01*
X26696115Y-29016466D02*
X25934211Y-29302180D01*
D13*
X58002568Y-52983666D02*
X58764473Y-52983666D01*
X58383520Y-53364619D02*
X58383520Y-52602714D01*
X58341333Y-50627568D02*
X58341333Y-51389473D01*
D10*
X40915116Y-49932309D02*
X40915116Y-49432309D01*
X40629402Y-49932309D02*
X40843687Y-49646595D01*
X40629402Y-49432309D02*
X40915116Y-49718023D01*
X40462735Y-49432309D02*
X40153211Y-49432309D01*
X40153211Y-49432309D02*
X40319878Y-49622785D01*
X40319878Y-49622785D02*
X40248449Y-49622785D01*
X40248449Y-49622785D02*
X40200830Y-49646595D01*
X40200830Y-49646595D02*
X40177021Y-49670404D01*
X40177021Y-49670404D02*
X40153211Y-49718023D01*
X40153211Y-49718023D02*
X40153211Y-49837071D01*
X40153211Y-49837071D02*
X40177021Y-49884690D01*
X40177021Y-49884690D02*
X40200830Y-49908500D01*
X40200830Y-49908500D02*
X40248449Y-49932309D01*
X40248449Y-49932309D02*
X40391306Y-49932309D01*
X40391306Y-49932309D02*
X40438925Y-49908500D01*
X40438925Y-49908500D02*
X40462735Y-49884690D01*
X76898716Y-33032309D02*
X76898716Y-32532309D01*
X76613002Y-33032309D02*
X76827287Y-32746595D01*
X76613002Y-32532309D02*
X76898716Y-32818023D01*
X76184430Y-32698976D02*
X76184430Y-33032309D01*
X76303478Y-32508500D02*
X76422525Y-32865642D01*
X76422525Y-32865642D02*
X76113002Y-32865642D01*
X95098716Y-72532309D02*
X95098716Y-72032309D01*
X94813002Y-72532309D02*
X95027287Y-72246595D01*
X94813002Y-72032309D02*
X95098716Y-72318023D01*
X94503478Y-72032309D02*
X94455859Y-72032309D01*
X94455859Y-72032309D02*
X94408240Y-72056119D01*
X94408240Y-72056119D02*
X94384430Y-72079928D01*
X94384430Y-72079928D02*
X94360621Y-72127547D01*
X94360621Y-72127547D02*
X94336811Y-72222785D01*
X94336811Y-72222785D02*
X94336811Y-72341833D01*
X94336811Y-72341833D02*
X94360621Y-72437071D01*
X94360621Y-72437071D02*
X94384430Y-72484690D01*
X94384430Y-72484690D02*
X94408240Y-72508500D01*
X94408240Y-72508500D02*
X94455859Y-72532309D01*
X94455859Y-72532309D02*
X94503478Y-72532309D01*
X94503478Y-72532309D02*
X94551097Y-72508500D01*
X94551097Y-72508500D02*
X94574906Y-72484690D01*
X94574906Y-72484690D02*
X94598716Y-72437071D01*
X94598716Y-72437071D02*
X94622525Y-72341833D01*
X94622525Y-72341833D02*
X94622525Y-72222785D01*
X94622525Y-72222785D02*
X94598716Y-72127547D01*
X94598716Y-72127547D02*
X94574906Y-72079928D01*
X94574906Y-72079928D02*
X94551097Y-72056119D01*
X94551097Y-72056119D02*
X94503478Y-72032309D01*
D13*
X64191333Y-52577568D02*
X64191333Y-53339473D01*
X63852568Y-50958666D02*
X64614473Y-50958666D01*
X64233520Y-51339619D02*
X64233520Y-50577714D01*
D10*
X76998716Y-50032309D02*
X76998716Y-49532309D01*
X76713002Y-50032309D02*
X76927287Y-49746595D01*
X76713002Y-49532309D02*
X76998716Y-49818023D01*
X76236811Y-50032309D02*
X76522525Y-50032309D01*
X76379668Y-50032309D02*
X76379668Y-49532309D01*
X76379668Y-49532309D02*
X76427287Y-49603738D01*
X76427287Y-49603738D02*
X76474906Y-49651357D01*
X76474906Y-49651357D02*
X76522525Y-49675166D01*
M02*
