%TF.GenerationSoftware,KiCad,Pcbnew,8.0.2*%
%TF.CreationDate,2024-07-03T21:28:49-05:00*%
%TF.ProjectId,bonsai-pg1232-Xiao-r3-rounded,626f6e73-6169-42d7-9067-313233322d58,v1*%
%TF.SameCoordinates,Original*%
%TF.FileFunction,Drillmap*%
%TF.FilePolarity,Positive*%
%FSLAX45Y45*%
G04 Gerber Fmt 4.5, Leading zero omitted, Abs format (unit mm)*
G04 Created by KiCad (PCBNEW 8.0.2) date 2024-07-03 21:28:49*
%MOMM*%
%LPD*%
G01*
G04 APERTURE LIST*
%ADD10C,0.150000*%
%ADD11C,0.120000*%
%ADD12C,0.050000*%
%ADD13C,0.200000*%
%ADD14C,0.100000*%
%ADD15C,0.101600*%
%ADD16C,0.110000*%
%ADD17C,0.220000*%
G04 APERTURE END LIST*
D10*
X5496640Y-6138900D02*
G75*
G02*
X5496640Y-5778900I0J180000D01*
G01*
X10258360Y-5813360D02*
G75*
G02*
X10405000Y-5960000I0J-146640D01*
G01*
X3134185Y-1915924D02*
G75*
G02*
X2475000Y-2720000I-820000J0D01*
G01*
X8602950Y-5196310D02*
G75*
G02*
X8456310Y-5342950I-146640J0D01*
G01*
X6215000Y-5740000D02*
X6170000Y-5765000D01*
X8485376Y-1854036D02*
G75*
G02*
X8602914Y-1975637I-60376J-175964D01*
G01*
X6105000Y-5778900D02*
X5496640Y-5778900D01*
X8156640Y-6138900D02*
X5496640Y-6138900D01*
X3134185Y-1915924D02*
X3145000Y-1905000D01*
X10405000Y-5960000D02*
X10402950Y-7421310D01*
X6170000Y-5765000D02*
X6105000Y-5778900D01*
X3145000Y-1905000D02*
X3275000Y-1850000D01*
X2417455Y-2722976D02*
X2475000Y-2720000D01*
X8456310Y-5342950D02*
X6756572Y-5343765D01*
X1356640Y-2818900D02*
G75*
G02*
X1456640Y-2718900I100000J0D01*
G01*
X3275000Y-1850000D02*
G75*
G02*
X8485376Y-1854036I2600000J-6700000D01*
G01*
X1356640Y-5318900D02*
X1356640Y-2818900D01*
X10402950Y-7421310D02*
G75*
G02*
X10256310Y-7567950I-146640J0D01*
G01*
X6756572Y-5343765D02*
X6720000Y-5349408D01*
X6690000Y-5365000D02*
X6215000Y-5740000D01*
X10256310Y-7567950D02*
X3016640Y-7568900D01*
X8541218Y-5947356D02*
G75*
G02*
X8685009Y-5815258I148782J-17644D01*
G01*
X8541218Y-5947356D02*
G75*
G02*
X8306780Y-6128151I-255148J88456D01*
G01*
X8715000Y-5813360D02*
X10258360Y-5813360D01*
X8602914Y-1975637D02*
X8602950Y-5196310D01*
X6720000Y-5349408D02*
X6690000Y-5365000D01*
X8685009Y-5815258D02*
X8715000Y-5813360D01*
X8156640Y-6138900D02*
X8306780Y-6128151D01*
X1356640Y-5318900D02*
X3016640Y-7568900D01*
X1456640Y-2718900D02*
X2417455Y-2722976D01*
D11*
X3589744Y-6698320D02*
X3589744Y-6594180D01*
X4529544Y-6594180D02*
X4529544Y-6698320D01*
X3589744Y-6698320D02*
G75*
G02*
X3658324Y-6766900I24775J-43805D01*
G01*
X3658324Y-6525600D02*
G75*
G02*
X3589744Y-6594180I-43805J-24775D01*
G01*
D12*
X3658324Y-6525600D02*
G75*
G02*
X4460964Y-6525600I401320J-676929D01*
G01*
X4460964Y-6766900D02*
G75*
G02*
X3658324Y-6766900I-401320J672600D01*
G01*
D11*
X4460964Y-6766900D02*
G75*
G02*
X4529544Y-6698320I43805J24775D01*
G01*
X4529544Y-6594180D02*
G75*
G02*
X4460964Y-6525600I-24775J43805D01*
G01*
X3904240Y-7332920D02*
X3904240Y-7165280D01*
X4140460Y-7096700D02*
X3972820Y-7096700D01*
X4140460Y-7401500D02*
X3972820Y-7401500D01*
X4209040Y-7332920D02*
X4209040Y-7165280D01*
X3904240Y-7332920D02*
G75*
G02*
X3972820Y-7401500I24775J-43805D01*
G01*
X3972820Y-7096700D02*
G75*
G02*
X3904240Y-7165280I-43805J-24775D01*
G01*
X4140460Y-7401500D02*
G75*
G02*
X4209040Y-7332920I43805J24775D01*
G01*
X4209040Y-7165280D02*
G75*
G02*
X4140460Y-7096700I-24775J43805D01*
G01*
D13*
D14*
X2080000Y-2880000D02*
X2120000Y-2920000D01*
X2120000Y-2880000D02*
X2080000Y-2920000D01*
X2260000Y-5780000D02*
X2300000Y-5820000D01*
X2300000Y-5780000D02*
X2260000Y-5820000D01*
X2315000Y-3215000D02*
X2355000Y-3255000D01*
X2355000Y-3215000D02*
X2315000Y-3255000D01*
X2347500Y-5332500D02*
X2387500Y-5372500D01*
X2387500Y-5332500D02*
X2347500Y-5372500D01*
X2540000Y-5560000D02*
X2580000Y-5600000D01*
X2580000Y-5560000D02*
X2540000Y-5600000D01*
X2555000Y-6750000D02*
X2595000Y-6790000D01*
X2595000Y-6750000D02*
X2555000Y-6790000D01*
X2690000Y-6005000D02*
X2730000Y-6045000D01*
X2730000Y-6005000D02*
X2690000Y-6045000D01*
X2980000Y-6730000D02*
X3020000Y-6770000D01*
X3020000Y-6730000D02*
X2980000Y-6770000D01*
X2980000Y-7010000D02*
X3020000Y-7050000D01*
X3020000Y-7010000D02*
X2980000Y-7050000D01*
X2980000Y-7260000D02*
X3020000Y-7300000D01*
X3020000Y-7260000D02*
X2980000Y-7300000D01*
X2986640Y-5748900D02*
X3026640Y-5788900D01*
X3026640Y-5748900D02*
X2986640Y-5788900D01*
X2986640Y-5998900D02*
X3026640Y-6038900D01*
X3026640Y-5998900D02*
X2986640Y-6038900D01*
X2986640Y-6248900D02*
X3026640Y-6288900D01*
X3026640Y-6248900D02*
X2986640Y-6288900D01*
X2986640Y-6498900D02*
X3026640Y-6538900D01*
X3026640Y-6498900D02*
X2986640Y-6538900D01*
X3590000Y-7430000D02*
X3630000Y-7470000D01*
X3630000Y-7430000D02*
X3590000Y-7470000D01*
X4495000Y-7425000D02*
X4535000Y-7465000D01*
X4535000Y-7425000D02*
X4495000Y-7465000D01*
X4536640Y-6998900D02*
X4576640Y-7038900D01*
X4576640Y-6998900D02*
X4536640Y-7038900D01*
X5086640Y-5748900D02*
X5126640Y-5788900D01*
X5126640Y-5748900D02*
X5086640Y-5788900D01*
X5086640Y-5998900D02*
X5126640Y-6038900D01*
X5126640Y-5998900D02*
X5086640Y-6038900D01*
X5086640Y-6248900D02*
X5126640Y-6288900D01*
X5126640Y-6248900D02*
X5086640Y-6288900D01*
X5086640Y-6498900D02*
X5126640Y-6538900D01*
X5126640Y-6498900D02*
X5086640Y-6538900D01*
X5835105Y-7349895D02*
X5875105Y-7389895D01*
X5875105Y-7349895D02*
X5835105Y-7389895D01*
X6039140Y-5298900D02*
G75*
G02*
X5964140Y-5298900I-37500J0D01*
G01*
X5964140Y-5298900D02*
G75*
G02*
X6039140Y-5298900I37500J0D01*
G01*
X6039140Y-5498900D02*
G75*
G02*
X5964140Y-5498900I-37500J0D01*
G01*
X5964140Y-5498900D02*
G75*
G02*
X6039140Y-5498900I37500J0D01*
G01*
X6044140Y-5098900D02*
G75*
G02*
X5969140Y-5098900I-37500J0D01*
G01*
X5969140Y-5098900D02*
G75*
G02*
X6044140Y-5098900I37500J0D01*
G01*
X6044140Y-5298900D02*
G75*
G02*
X5969140Y-5298900I-37500J0D01*
G01*
X5969140Y-5298900D02*
G75*
G02*
X6044140Y-5298900I37500J0D01*
G01*
D15*
X3615144Y-6500200D02*
X3615144Y-6601800D01*
X3564344Y-6551000D02*
X3665944Y-6551000D01*
X3615144Y-6690700D02*
X3615144Y-6792300D01*
X3564344Y-6741500D02*
X3665944Y-6741500D01*
X3929640Y-7071300D02*
X3929640Y-7172900D01*
X3878840Y-7122100D02*
X3980440Y-7122100D01*
X3929640Y-7325300D02*
X3929640Y-7426900D01*
X3878840Y-7376100D02*
X3980440Y-7376100D01*
X4183640Y-7071300D02*
X4183640Y-7172900D01*
X4132840Y-7122100D02*
X4234440Y-7122100D01*
X4183640Y-7325300D02*
X4183640Y-7426900D01*
X4132840Y-7376100D02*
X4234440Y-7376100D01*
X4504144Y-6500200D02*
X4504144Y-6601800D01*
X4453344Y-6551000D02*
X4554944Y-6551000D01*
X4504144Y-6690700D02*
X4504144Y-6792300D01*
X4453344Y-6741500D02*
X4554944Y-6741500D01*
D16*
X1870531Y-3472791D02*
X1870531Y-3395009D01*
X1792749Y-3395009D01*
X1792749Y-3472791D01*
X1870531Y-3472791D01*
X1870531Y-4532791D02*
X1870531Y-4455009D01*
X1792749Y-4455009D01*
X1792749Y-4532791D01*
X1870531Y-4532791D01*
X2855531Y-3544791D02*
X2855531Y-3467009D01*
X2777749Y-3467009D01*
X2777749Y-3544791D01*
X2855531Y-3544791D01*
X2855531Y-4460791D02*
X2855531Y-4383009D01*
X2777749Y-4383009D01*
X2777749Y-4460791D01*
X2855531Y-4460791D01*
X2885531Y-3802791D02*
X2885531Y-3725009D01*
X2807749Y-3725009D01*
X2807749Y-3802791D01*
X2885531Y-3802791D01*
X2885531Y-4202791D02*
X2885531Y-4125009D01*
X2807749Y-4125009D01*
X2807749Y-4202791D01*
X2885531Y-4202791D01*
X3562171Y-2299191D02*
X3562171Y-2221409D01*
X3484389Y-2221409D01*
X3484389Y-2299191D01*
X3562171Y-2299191D01*
X3565531Y-4002791D02*
X3565531Y-3925009D01*
X3487749Y-3925009D01*
X3487749Y-4002791D01*
X3565531Y-4002791D01*
X3634171Y-3284191D02*
X3634171Y-3206409D01*
X3556389Y-3206409D01*
X3556389Y-3284191D01*
X3634171Y-3284191D01*
X3637531Y-4987791D02*
X3637531Y-4910009D01*
X3559749Y-4910009D01*
X3559749Y-4987791D01*
X3637531Y-4987791D01*
X3892171Y-3314191D02*
X3892171Y-3236409D01*
X3814389Y-3236409D01*
X3814389Y-3314191D01*
X3892171Y-3314191D01*
X3895531Y-5017791D02*
X3895531Y-4940009D01*
X3817749Y-4940009D01*
X3817749Y-5017791D01*
X3895531Y-5017791D01*
X4292171Y-3314191D02*
X4292171Y-3236409D01*
X4214389Y-3236409D01*
X4214389Y-3314191D01*
X4292171Y-3314191D01*
X4295531Y-5017791D02*
X4295531Y-4940009D01*
X4217749Y-4940009D01*
X4217749Y-5017791D01*
X4295531Y-5017791D01*
X4550171Y-3284191D02*
X4550171Y-3206409D01*
X4472389Y-3206409D01*
X4472389Y-3284191D01*
X4550171Y-3284191D01*
X4553531Y-4987791D02*
X4553531Y-4910009D01*
X4475749Y-4910009D01*
X4475749Y-4987791D01*
X4553531Y-4987791D01*
X4622171Y-2299191D02*
X4622171Y-2221409D01*
X4544389Y-2221409D01*
X4544389Y-2299191D01*
X4622171Y-2299191D01*
X4625531Y-4002791D02*
X4625531Y-3925009D01*
X4547749Y-3925009D01*
X4547749Y-4002791D01*
X4625531Y-4002791D01*
X5365531Y-1827791D02*
X5365531Y-1750009D01*
X5287749Y-1750009D01*
X5287749Y-1827791D01*
X5365531Y-1827791D01*
X5368891Y-3531391D02*
X5368891Y-3453609D01*
X5291109Y-3453609D01*
X5291109Y-3531391D01*
X5368891Y-3531391D01*
X5437531Y-2812791D02*
X5437531Y-2735009D01*
X5359749Y-2735009D01*
X5359749Y-2812791D01*
X5437531Y-2812791D01*
X5440891Y-4516391D02*
X5440891Y-4438609D01*
X5363109Y-4438609D01*
X5363109Y-4516391D01*
X5440891Y-4516391D01*
X5695531Y-2842791D02*
X5695531Y-2765009D01*
X5617749Y-2765009D01*
X5617749Y-2842791D01*
X5695531Y-2842791D01*
X5698891Y-4546391D02*
X5698891Y-4468609D01*
X5621109Y-4468609D01*
X5621109Y-4546391D01*
X5698891Y-4546391D01*
X6095531Y-2842791D02*
X6095531Y-2765009D01*
X6017749Y-2765009D01*
X6017749Y-2842791D01*
X6095531Y-2842791D01*
X6098891Y-4546391D02*
X6098891Y-4468609D01*
X6021109Y-4468609D01*
X6021109Y-4546391D01*
X6098891Y-4546391D01*
X6353531Y-2812791D02*
X6353531Y-2735009D01*
X6275749Y-2735009D01*
X6275749Y-2812791D01*
X6353531Y-2812791D01*
X6356891Y-4516391D02*
X6356891Y-4438609D01*
X6279109Y-4438609D01*
X6279109Y-4516391D01*
X6356891Y-4516391D01*
X6425531Y-1827791D02*
X6425531Y-1750009D01*
X6347749Y-1750009D01*
X6347749Y-1827791D01*
X6425531Y-1827791D01*
X6428891Y-3531391D02*
X6428891Y-3453609D01*
X6351109Y-3453609D01*
X6351109Y-3531391D01*
X6428891Y-3531391D01*
X7165531Y-2302791D02*
X7165531Y-2225009D01*
X7087749Y-2225009D01*
X7087749Y-2302791D01*
X7165531Y-2302791D01*
X7168891Y-4006391D02*
X7168891Y-3928609D01*
X7091109Y-3928609D01*
X7091109Y-4006391D01*
X7168891Y-4006391D01*
X7237531Y-3287791D02*
X7237531Y-3210009D01*
X7159749Y-3210009D01*
X7159749Y-3287791D01*
X7237531Y-3287791D01*
X7240891Y-4991391D02*
X7240891Y-4913609D01*
X7163109Y-4913609D01*
X7163109Y-4991391D01*
X7240891Y-4991391D01*
X7495531Y-3317791D02*
X7495531Y-3240009D01*
X7417749Y-3240009D01*
X7417749Y-3317791D01*
X7495531Y-3317791D01*
X7498891Y-5021391D02*
X7498891Y-4943609D01*
X7421109Y-4943609D01*
X7421109Y-5021391D01*
X7498891Y-5021391D01*
X7895531Y-3317791D02*
X7895531Y-3240009D01*
X7817749Y-3240009D01*
X7817749Y-3317791D01*
X7895531Y-3317791D01*
X7898891Y-5021391D02*
X7898891Y-4943609D01*
X7821109Y-4943609D01*
X7821109Y-5021391D01*
X7898891Y-5021391D01*
X8153531Y-3287791D02*
X8153531Y-3210009D01*
X8075749Y-3210009D01*
X8075749Y-3287791D01*
X8153531Y-3287791D01*
X8156891Y-4991391D02*
X8156891Y-4913609D01*
X8079109Y-4913609D01*
X8079109Y-4991391D01*
X8156891Y-4991391D01*
X8225531Y-2302791D02*
X8225531Y-2225009D01*
X8147749Y-2225009D01*
X8147749Y-2302791D01*
X8225531Y-2302791D01*
X8228891Y-4006391D02*
X8228891Y-3928609D01*
X8151109Y-3928609D01*
X8151109Y-4006391D01*
X8228891Y-4006391D01*
X8985531Y-6252791D02*
X8985531Y-6175009D01*
X8907749Y-6175009D01*
X8907749Y-6252791D01*
X8985531Y-6252791D01*
X9057531Y-7237791D02*
X9057531Y-7160009D01*
X8979749Y-7160009D01*
X8979749Y-7237791D01*
X9057531Y-7237791D01*
X9315531Y-7267791D02*
X9315531Y-7190009D01*
X9237749Y-7190009D01*
X9237749Y-7267791D01*
X9315531Y-7267791D01*
X9715531Y-7267791D02*
X9715531Y-7190009D01*
X9637749Y-7190009D01*
X9637749Y-7267791D01*
X9715531Y-7267791D01*
X9973531Y-7237791D02*
X9973531Y-7160009D01*
X9895749Y-7160009D01*
X9895749Y-7237791D01*
X9973531Y-7237791D01*
X10045531Y-6252791D02*
X10045531Y-6175009D01*
X9967749Y-6175009D01*
X9967749Y-6252791D01*
X10045531Y-6252791D01*
D17*
X1675000Y-5185000D02*
X1785000Y-5075000D01*
X1675000Y-4965000D01*
X1565000Y-5075000D01*
X1675000Y-5185000D01*
X2915000Y-3092500D02*
X3025000Y-2982500D01*
X2915000Y-2872500D01*
X2805000Y-2982500D01*
X2915000Y-3092500D01*
X5045000Y-5150000D02*
X5155000Y-5040000D01*
X5045000Y-4930000D01*
X4935000Y-5040000D01*
X5045000Y-5150000D01*
X5282500Y-7407500D02*
X5392500Y-7297500D01*
X5282500Y-7187500D01*
X5172500Y-7297500D01*
X5282500Y-7407500D01*
X6752500Y-4562500D02*
X6862500Y-4452500D01*
X6752500Y-4342500D01*
X6642500Y-4452500D01*
X6752500Y-4562500D01*
X6760000Y-2192500D02*
X6870000Y-2082500D01*
X6760000Y-1972500D01*
X6650000Y-2082500D01*
X6760000Y-2192500D01*
X8550000Y-6445000D02*
X8660000Y-6335000D01*
X8550000Y-6225000D01*
X8440000Y-6335000D01*
X8550000Y-6445000D01*
D13*
X1609917Y-7887884D02*
X1609917Y-7687884D01*
X1609917Y-7687884D02*
X1657536Y-7687884D01*
X1657536Y-7687884D02*
X1686107Y-7697408D01*
X1686107Y-7697408D02*
X1705155Y-7716455D01*
X1705155Y-7716455D02*
X1714679Y-7735503D01*
X1714679Y-7735503D02*
X1724202Y-7773598D01*
X1724202Y-7773598D02*
X1724202Y-7802169D01*
X1724202Y-7802169D02*
X1714679Y-7840265D01*
X1714679Y-7840265D02*
X1705155Y-7859312D01*
X1705155Y-7859312D02*
X1686107Y-7878360D01*
X1686107Y-7878360D02*
X1657536Y-7887884D01*
X1657536Y-7887884D02*
X1609917Y-7887884D01*
X1809917Y-7887884D02*
X1809917Y-7754550D01*
X1809917Y-7792646D02*
X1819441Y-7773598D01*
X1819441Y-7773598D02*
X1828964Y-7764074D01*
X1828964Y-7764074D02*
X1848012Y-7754550D01*
X1848012Y-7754550D02*
X1867060Y-7754550D01*
X1933726Y-7887884D02*
X1933726Y-7754550D01*
X1933726Y-7687884D02*
X1924202Y-7697408D01*
X1924202Y-7697408D02*
X1933726Y-7706931D01*
X1933726Y-7706931D02*
X1943250Y-7697408D01*
X1943250Y-7697408D02*
X1933726Y-7687884D01*
X1933726Y-7687884D02*
X1933726Y-7706931D01*
X2057536Y-7887884D02*
X2038488Y-7878360D01*
X2038488Y-7878360D02*
X2028964Y-7859312D01*
X2028964Y-7859312D02*
X2028964Y-7687884D01*
X2162298Y-7887884D02*
X2143250Y-7878360D01*
X2143250Y-7878360D02*
X2133726Y-7859312D01*
X2133726Y-7859312D02*
X2133726Y-7687884D01*
X2390869Y-7887884D02*
X2390869Y-7687884D01*
X2390869Y-7687884D02*
X2457536Y-7830741D01*
X2457536Y-7830741D02*
X2524203Y-7687884D01*
X2524203Y-7687884D02*
X2524203Y-7887884D01*
X2705155Y-7887884D02*
X2705155Y-7783122D01*
X2705155Y-7783122D02*
X2695631Y-7764074D01*
X2695631Y-7764074D02*
X2676584Y-7754550D01*
X2676584Y-7754550D02*
X2638488Y-7754550D01*
X2638488Y-7754550D02*
X2619441Y-7764074D01*
X2705155Y-7878360D02*
X2686107Y-7887884D01*
X2686107Y-7887884D02*
X2638488Y-7887884D01*
X2638488Y-7887884D02*
X2619441Y-7878360D01*
X2619441Y-7878360D02*
X2609917Y-7859312D01*
X2609917Y-7859312D02*
X2609917Y-7840265D01*
X2609917Y-7840265D02*
X2619441Y-7821217D01*
X2619441Y-7821217D02*
X2638488Y-7811693D01*
X2638488Y-7811693D02*
X2686107Y-7811693D01*
X2686107Y-7811693D02*
X2705155Y-7802169D01*
X2800393Y-7754550D02*
X2800393Y-7954550D01*
X2800393Y-7764074D02*
X2819441Y-7754550D01*
X2819441Y-7754550D02*
X2857536Y-7754550D01*
X2857536Y-7754550D02*
X2876583Y-7764074D01*
X2876583Y-7764074D02*
X2886107Y-7773598D01*
X2886107Y-7773598D02*
X2895631Y-7792646D01*
X2895631Y-7792646D02*
X2895631Y-7849788D01*
X2895631Y-7849788D02*
X2886107Y-7868836D01*
X2886107Y-7868836D02*
X2876583Y-7878360D01*
X2876583Y-7878360D02*
X2857536Y-7887884D01*
X2857536Y-7887884D02*
X2819441Y-7887884D01*
X2819441Y-7887884D02*
X2800393Y-7878360D01*
X2981345Y-7868836D02*
X2990869Y-7878360D01*
X2990869Y-7878360D02*
X2981345Y-7887884D01*
X2981345Y-7887884D02*
X2971822Y-7878360D01*
X2971822Y-7878360D02*
X2981345Y-7868836D01*
X2981345Y-7868836D02*
X2981345Y-7887884D01*
X2981345Y-7764074D02*
X2990869Y-7773598D01*
X2990869Y-7773598D02*
X2981345Y-7783122D01*
X2981345Y-7783122D02*
X2971822Y-7773598D01*
X2971822Y-7773598D02*
X2981345Y-7764074D01*
X2981345Y-7764074D02*
X2981345Y-7783122D01*
D14*
X1309140Y-8196400D02*
X1349140Y-8236400D01*
X1349140Y-8196400D02*
X1309140Y-8236400D01*
D13*
X1648012Y-8107884D02*
X1667060Y-8107884D01*
X1667060Y-8107884D02*
X1686107Y-8117408D01*
X1686107Y-8117408D02*
X1695631Y-8126931D01*
X1695631Y-8126931D02*
X1705155Y-8145979D01*
X1705155Y-8145979D02*
X1714679Y-8184074D01*
X1714679Y-8184074D02*
X1714679Y-8231693D01*
X1714679Y-8231693D02*
X1705155Y-8269788D01*
X1705155Y-8269788D02*
X1695631Y-8288836D01*
X1695631Y-8288836D02*
X1686107Y-8298360D01*
X1686107Y-8298360D02*
X1667060Y-8307884D01*
X1667060Y-8307884D02*
X1648012Y-8307884D01*
X1648012Y-8307884D02*
X1628964Y-8298360D01*
X1628964Y-8298360D02*
X1619441Y-8288836D01*
X1619441Y-8288836D02*
X1609917Y-8269788D01*
X1609917Y-8269788D02*
X1600393Y-8231693D01*
X1600393Y-8231693D02*
X1600393Y-8184074D01*
X1600393Y-8184074D02*
X1609917Y-8145979D01*
X1609917Y-8145979D02*
X1619441Y-8126931D01*
X1619441Y-8126931D02*
X1628964Y-8117408D01*
X1628964Y-8117408D02*
X1648012Y-8107884D01*
X1800393Y-8288836D02*
X1809917Y-8298360D01*
X1809917Y-8298360D02*
X1800393Y-8307884D01*
X1800393Y-8307884D02*
X1790869Y-8298360D01*
X1790869Y-8298360D02*
X1800393Y-8288836D01*
X1800393Y-8288836D02*
X1800393Y-8307884D01*
X1981345Y-8174550D02*
X1981345Y-8307884D01*
X1933726Y-8098360D02*
X1886107Y-8241217D01*
X1886107Y-8241217D02*
X2009917Y-8241217D01*
X2124203Y-8107884D02*
X2143250Y-8107884D01*
X2143250Y-8107884D02*
X2162298Y-8117408D01*
X2162298Y-8117408D02*
X2171822Y-8126931D01*
X2171822Y-8126931D02*
X2181345Y-8145979D01*
X2181345Y-8145979D02*
X2190869Y-8184074D01*
X2190869Y-8184074D02*
X2190869Y-8231693D01*
X2190869Y-8231693D02*
X2181345Y-8269788D01*
X2181345Y-8269788D02*
X2171822Y-8288836D01*
X2171822Y-8288836D02*
X2162298Y-8298360D01*
X2162298Y-8298360D02*
X2143250Y-8307884D01*
X2143250Y-8307884D02*
X2124203Y-8307884D01*
X2124203Y-8307884D02*
X2105155Y-8298360D01*
X2105155Y-8298360D02*
X2095631Y-8288836D01*
X2095631Y-8288836D02*
X2086107Y-8269788D01*
X2086107Y-8269788D02*
X2076583Y-8231693D01*
X2076583Y-8231693D02*
X2076583Y-8184074D01*
X2076583Y-8184074D02*
X2086107Y-8145979D01*
X2086107Y-8145979D02*
X2095631Y-8126931D01*
X2095631Y-8126931D02*
X2105155Y-8117408D01*
X2105155Y-8117408D02*
X2124203Y-8107884D01*
X2314679Y-8107884D02*
X2333726Y-8107884D01*
X2333726Y-8107884D02*
X2352774Y-8117408D01*
X2352774Y-8117408D02*
X2362298Y-8126931D01*
X2362298Y-8126931D02*
X2371822Y-8145979D01*
X2371822Y-8145979D02*
X2381345Y-8184074D01*
X2381345Y-8184074D02*
X2381345Y-8231693D01*
X2381345Y-8231693D02*
X2371822Y-8269788D01*
X2371822Y-8269788D02*
X2362298Y-8288836D01*
X2362298Y-8288836D02*
X2352774Y-8298360D01*
X2352774Y-8298360D02*
X2333726Y-8307884D01*
X2333726Y-8307884D02*
X2314679Y-8307884D01*
X2314679Y-8307884D02*
X2295631Y-8298360D01*
X2295631Y-8298360D02*
X2286107Y-8288836D01*
X2286107Y-8288836D02*
X2276584Y-8269788D01*
X2276584Y-8269788D02*
X2267060Y-8231693D01*
X2267060Y-8231693D02*
X2267060Y-8184074D01*
X2267060Y-8184074D02*
X2276584Y-8145979D01*
X2276584Y-8145979D02*
X2286107Y-8126931D01*
X2286107Y-8126931D02*
X2295631Y-8117408D01*
X2295631Y-8117408D02*
X2314679Y-8107884D01*
X2467060Y-8307884D02*
X2467060Y-8174550D01*
X2467060Y-8193598D02*
X2476584Y-8184074D01*
X2476584Y-8184074D02*
X2495631Y-8174550D01*
X2495631Y-8174550D02*
X2524203Y-8174550D01*
X2524203Y-8174550D02*
X2543250Y-8184074D01*
X2543250Y-8184074D02*
X2552774Y-8203122D01*
X2552774Y-8203122D02*
X2552774Y-8307884D01*
X2552774Y-8203122D02*
X2562298Y-8184074D01*
X2562298Y-8184074D02*
X2581345Y-8174550D01*
X2581345Y-8174550D02*
X2609917Y-8174550D01*
X2609917Y-8174550D02*
X2628965Y-8184074D01*
X2628965Y-8184074D02*
X2638488Y-8203122D01*
X2638488Y-8203122D02*
X2638488Y-8307884D01*
X2733726Y-8307884D02*
X2733726Y-8174550D01*
X2733726Y-8193598D02*
X2743250Y-8184074D01*
X2743250Y-8184074D02*
X2762298Y-8174550D01*
X2762298Y-8174550D02*
X2790869Y-8174550D01*
X2790869Y-8174550D02*
X2809917Y-8184074D01*
X2809917Y-8184074D02*
X2819441Y-8203122D01*
X2819441Y-8203122D02*
X2819441Y-8307884D01*
X2819441Y-8203122D02*
X2828964Y-8184074D01*
X2828964Y-8184074D02*
X2848012Y-8174550D01*
X2848012Y-8174550D02*
X2876583Y-8174550D01*
X2876583Y-8174550D02*
X2895631Y-8184074D01*
X2895631Y-8184074D02*
X2905155Y-8203122D01*
X2905155Y-8203122D02*
X2905155Y-8307884D01*
X3295631Y-8098360D02*
X3124203Y-8355503D01*
X3552774Y-8107884D02*
X3571822Y-8107884D01*
X3571822Y-8107884D02*
X3590869Y-8117408D01*
X3590869Y-8117408D02*
X3600393Y-8126931D01*
X3600393Y-8126931D02*
X3609917Y-8145979D01*
X3609917Y-8145979D02*
X3619441Y-8184074D01*
X3619441Y-8184074D02*
X3619441Y-8231693D01*
X3619441Y-8231693D02*
X3609917Y-8269788D01*
X3609917Y-8269788D02*
X3600393Y-8288836D01*
X3600393Y-8288836D02*
X3590869Y-8298360D01*
X3590869Y-8298360D02*
X3571822Y-8307884D01*
X3571822Y-8307884D02*
X3552774Y-8307884D01*
X3552774Y-8307884D02*
X3533726Y-8298360D01*
X3533726Y-8298360D02*
X3524203Y-8288836D01*
X3524203Y-8288836D02*
X3514679Y-8269788D01*
X3514679Y-8269788D02*
X3505155Y-8231693D01*
X3505155Y-8231693D02*
X3505155Y-8184074D01*
X3505155Y-8184074D02*
X3514679Y-8145979D01*
X3514679Y-8145979D02*
X3524203Y-8126931D01*
X3524203Y-8126931D02*
X3533726Y-8117408D01*
X3533726Y-8117408D02*
X3552774Y-8107884D01*
X3705155Y-8288836D02*
X3714679Y-8298360D01*
X3714679Y-8298360D02*
X3705155Y-8307884D01*
X3705155Y-8307884D02*
X3695631Y-8298360D01*
X3695631Y-8298360D02*
X3705155Y-8288836D01*
X3705155Y-8288836D02*
X3705155Y-8307884D01*
X3838488Y-8107884D02*
X3857536Y-8107884D01*
X3857536Y-8107884D02*
X3876584Y-8117408D01*
X3876584Y-8117408D02*
X3886107Y-8126931D01*
X3886107Y-8126931D02*
X3895631Y-8145979D01*
X3895631Y-8145979D02*
X3905155Y-8184074D01*
X3905155Y-8184074D02*
X3905155Y-8231693D01*
X3905155Y-8231693D02*
X3895631Y-8269788D01*
X3895631Y-8269788D02*
X3886107Y-8288836D01*
X3886107Y-8288836D02*
X3876584Y-8298360D01*
X3876584Y-8298360D02*
X3857536Y-8307884D01*
X3857536Y-8307884D02*
X3838488Y-8307884D01*
X3838488Y-8307884D02*
X3819441Y-8298360D01*
X3819441Y-8298360D02*
X3809917Y-8288836D01*
X3809917Y-8288836D02*
X3800393Y-8269788D01*
X3800393Y-8269788D02*
X3790869Y-8231693D01*
X3790869Y-8231693D02*
X3790869Y-8184074D01*
X3790869Y-8184074D02*
X3800393Y-8145979D01*
X3800393Y-8145979D02*
X3809917Y-8126931D01*
X3809917Y-8126931D02*
X3819441Y-8117408D01*
X3819441Y-8117408D02*
X3838488Y-8107884D01*
X4095631Y-8307884D02*
X3981346Y-8307884D01*
X4038488Y-8307884D02*
X4038488Y-8107884D01*
X4038488Y-8107884D02*
X4019441Y-8136455D01*
X4019441Y-8136455D02*
X4000393Y-8155503D01*
X4000393Y-8155503D02*
X3981346Y-8165027D01*
X4276584Y-8107884D02*
X4181346Y-8107884D01*
X4181346Y-8107884D02*
X4171822Y-8203122D01*
X4171822Y-8203122D02*
X4181346Y-8193598D01*
X4181346Y-8193598D02*
X4200393Y-8184074D01*
X4200393Y-8184074D02*
X4248012Y-8184074D01*
X4248012Y-8184074D02*
X4267060Y-8193598D01*
X4267060Y-8193598D02*
X4276584Y-8203122D01*
X4276584Y-8203122D02*
X4286108Y-8222169D01*
X4286108Y-8222169D02*
X4286108Y-8269788D01*
X4286108Y-8269788D02*
X4276584Y-8288836D01*
X4276584Y-8288836D02*
X4267060Y-8298360D01*
X4267060Y-8298360D02*
X4248012Y-8307884D01*
X4248012Y-8307884D02*
X4200393Y-8307884D01*
X4200393Y-8307884D02*
X4181346Y-8298360D01*
X4181346Y-8298360D02*
X4171822Y-8288836D01*
X4352774Y-8107884D02*
X4486108Y-8107884D01*
X4486108Y-8107884D02*
X4400393Y-8307884D01*
X4552774Y-8107884D02*
X4552774Y-8145979D01*
X4628965Y-8107884D02*
X4628965Y-8145979D01*
X4924203Y-8384074D02*
X4914679Y-8374550D01*
X4914679Y-8374550D02*
X4895631Y-8345979D01*
X4895631Y-8345979D02*
X4886108Y-8326931D01*
X4886108Y-8326931D02*
X4876584Y-8298360D01*
X4876584Y-8298360D02*
X4867060Y-8250741D01*
X4867060Y-8250741D02*
X4867060Y-8212646D01*
X4867060Y-8212646D02*
X4876584Y-8165027D01*
X4876584Y-8165027D02*
X4886108Y-8136455D01*
X4886108Y-8136455D02*
X4895631Y-8117408D01*
X4895631Y-8117408D02*
X4914679Y-8088836D01*
X4914679Y-8088836D02*
X4924203Y-8079312D01*
X4990870Y-8126931D02*
X5000393Y-8117408D01*
X5000393Y-8117408D02*
X5019441Y-8107884D01*
X5019441Y-8107884D02*
X5067060Y-8107884D01*
X5067060Y-8107884D02*
X5086108Y-8117408D01*
X5086108Y-8117408D02*
X5095631Y-8126931D01*
X5095631Y-8126931D02*
X5105155Y-8145979D01*
X5105155Y-8145979D02*
X5105155Y-8165027D01*
X5105155Y-8165027D02*
X5095631Y-8193598D01*
X5095631Y-8193598D02*
X4981346Y-8307884D01*
X4981346Y-8307884D02*
X5105155Y-8307884D01*
X5181346Y-8126931D02*
X5190870Y-8117408D01*
X5190870Y-8117408D02*
X5209917Y-8107884D01*
X5209917Y-8107884D02*
X5257536Y-8107884D01*
X5257536Y-8107884D02*
X5276584Y-8117408D01*
X5276584Y-8117408D02*
X5286108Y-8126931D01*
X5286108Y-8126931D02*
X5295631Y-8145979D01*
X5295631Y-8145979D02*
X5295631Y-8165027D01*
X5295631Y-8165027D02*
X5286108Y-8193598D01*
X5286108Y-8193598D02*
X5171822Y-8307884D01*
X5171822Y-8307884D02*
X5295631Y-8307884D01*
X5533727Y-8307884D02*
X5533727Y-8107884D01*
X5619441Y-8307884D02*
X5619441Y-8203122D01*
X5619441Y-8203122D02*
X5609917Y-8184074D01*
X5609917Y-8184074D02*
X5590870Y-8174550D01*
X5590870Y-8174550D02*
X5562298Y-8174550D01*
X5562298Y-8174550D02*
X5543251Y-8184074D01*
X5543251Y-8184074D02*
X5533727Y-8193598D01*
X5743250Y-8307884D02*
X5724203Y-8298360D01*
X5724203Y-8298360D02*
X5714679Y-8288836D01*
X5714679Y-8288836D02*
X5705155Y-8269788D01*
X5705155Y-8269788D02*
X5705155Y-8212646D01*
X5705155Y-8212646D02*
X5714679Y-8193598D01*
X5714679Y-8193598D02*
X5724203Y-8184074D01*
X5724203Y-8184074D02*
X5743250Y-8174550D01*
X5743250Y-8174550D02*
X5771822Y-8174550D01*
X5771822Y-8174550D02*
X5790870Y-8184074D01*
X5790870Y-8184074D02*
X5800393Y-8193598D01*
X5800393Y-8193598D02*
X5809917Y-8212646D01*
X5809917Y-8212646D02*
X5809917Y-8269788D01*
X5809917Y-8269788D02*
X5800393Y-8288836D01*
X5800393Y-8288836D02*
X5790870Y-8298360D01*
X5790870Y-8298360D02*
X5771822Y-8307884D01*
X5771822Y-8307884D02*
X5743250Y-8307884D01*
X5924203Y-8307884D02*
X5905155Y-8298360D01*
X5905155Y-8298360D02*
X5895631Y-8279312D01*
X5895631Y-8279312D02*
X5895631Y-8107884D01*
X6076584Y-8298360D02*
X6057536Y-8307884D01*
X6057536Y-8307884D02*
X6019441Y-8307884D01*
X6019441Y-8307884D02*
X6000393Y-8298360D01*
X6000393Y-8298360D02*
X5990870Y-8279312D01*
X5990870Y-8279312D02*
X5990870Y-8203122D01*
X5990870Y-8203122D02*
X6000393Y-8184074D01*
X6000393Y-8184074D02*
X6019441Y-8174550D01*
X6019441Y-8174550D02*
X6057536Y-8174550D01*
X6057536Y-8174550D02*
X6076584Y-8184074D01*
X6076584Y-8184074D02*
X6086108Y-8203122D01*
X6086108Y-8203122D02*
X6086108Y-8222169D01*
X6086108Y-8222169D02*
X5990870Y-8241217D01*
X6162298Y-8298360D02*
X6181346Y-8307884D01*
X6181346Y-8307884D02*
X6219441Y-8307884D01*
X6219441Y-8307884D02*
X6238489Y-8298360D01*
X6238489Y-8298360D02*
X6248012Y-8279312D01*
X6248012Y-8279312D02*
X6248012Y-8269788D01*
X6248012Y-8269788D02*
X6238489Y-8250741D01*
X6238489Y-8250741D02*
X6219441Y-8241217D01*
X6219441Y-8241217D02*
X6190870Y-8241217D01*
X6190870Y-8241217D02*
X6171822Y-8231693D01*
X6171822Y-8231693D02*
X6162298Y-8212646D01*
X6162298Y-8212646D02*
X6162298Y-8203122D01*
X6162298Y-8203122D02*
X6171822Y-8184074D01*
X6171822Y-8184074D02*
X6190870Y-8174550D01*
X6190870Y-8174550D02*
X6219441Y-8174550D01*
X6219441Y-8174550D02*
X6238489Y-8184074D01*
X6314679Y-8384074D02*
X6324203Y-8374550D01*
X6324203Y-8374550D02*
X6343251Y-8345979D01*
X6343251Y-8345979D02*
X6352774Y-8326931D01*
X6352774Y-8326931D02*
X6362298Y-8298360D01*
X6362298Y-8298360D02*
X6371822Y-8250741D01*
X6371822Y-8250741D02*
X6371822Y-8212646D01*
X6371822Y-8212646D02*
X6362298Y-8165027D01*
X6362298Y-8165027D02*
X6352774Y-8136455D01*
X6352774Y-8136455D02*
X6343251Y-8117408D01*
X6343251Y-8117408D02*
X6324203Y-8088836D01*
X6324203Y-8088836D02*
X6314679Y-8079312D01*
D14*
X1349140Y-8480400D02*
G75*
G02*
X1274140Y-8480400I-37500J0D01*
G01*
X1274140Y-8480400D02*
G75*
G02*
X1349140Y-8480400I37500J0D01*
G01*
D13*
X1648012Y-8371884D02*
X1667060Y-8371884D01*
X1667060Y-8371884D02*
X1686107Y-8381408D01*
X1686107Y-8381408D02*
X1695631Y-8390931D01*
X1695631Y-8390931D02*
X1705155Y-8409979D01*
X1705155Y-8409979D02*
X1714679Y-8448074D01*
X1714679Y-8448074D02*
X1714679Y-8495693D01*
X1714679Y-8495693D02*
X1705155Y-8533789D01*
X1705155Y-8533789D02*
X1695631Y-8552836D01*
X1695631Y-8552836D02*
X1686107Y-8562360D01*
X1686107Y-8562360D02*
X1667060Y-8571884D01*
X1667060Y-8571884D02*
X1648012Y-8571884D01*
X1648012Y-8571884D02*
X1628964Y-8562360D01*
X1628964Y-8562360D02*
X1619441Y-8552836D01*
X1619441Y-8552836D02*
X1609917Y-8533789D01*
X1609917Y-8533789D02*
X1600393Y-8495693D01*
X1600393Y-8495693D02*
X1600393Y-8448074D01*
X1600393Y-8448074D02*
X1609917Y-8409979D01*
X1609917Y-8409979D02*
X1619441Y-8390931D01*
X1619441Y-8390931D02*
X1628964Y-8381408D01*
X1628964Y-8381408D02*
X1648012Y-8371884D01*
X1800393Y-8552836D02*
X1809917Y-8562360D01*
X1809917Y-8562360D02*
X1800393Y-8571884D01*
X1800393Y-8571884D02*
X1790869Y-8562360D01*
X1790869Y-8562360D02*
X1800393Y-8552836D01*
X1800393Y-8552836D02*
X1800393Y-8571884D01*
X1876583Y-8371884D02*
X2009917Y-8371884D01*
X2009917Y-8371884D02*
X1924202Y-8571884D01*
X2181345Y-8371884D02*
X2086107Y-8371884D01*
X2086107Y-8371884D02*
X2076583Y-8467122D01*
X2076583Y-8467122D02*
X2086107Y-8457598D01*
X2086107Y-8457598D02*
X2105155Y-8448074D01*
X2105155Y-8448074D02*
X2152774Y-8448074D01*
X2152774Y-8448074D02*
X2171822Y-8457598D01*
X2171822Y-8457598D02*
X2181345Y-8467122D01*
X2181345Y-8467122D02*
X2190869Y-8486170D01*
X2190869Y-8486170D02*
X2190869Y-8533789D01*
X2190869Y-8533789D02*
X2181345Y-8552836D01*
X2181345Y-8552836D02*
X2171822Y-8562360D01*
X2171822Y-8562360D02*
X2152774Y-8571884D01*
X2152774Y-8571884D02*
X2105155Y-8571884D01*
X2105155Y-8571884D02*
X2086107Y-8562360D01*
X2086107Y-8562360D02*
X2076583Y-8552836D01*
X2314679Y-8371884D02*
X2333726Y-8371884D01*
X2333726Y-8371884D02*
X2352774Y-8381408D01*
X2352774Y-8381408D02*
X2362298Y-8390931D01*
X2362298Y-8390931D02*
X2371822Y-8409979D01*
X2371822Y-8409979D02*
X2381345Y-8448074D01*
X2381345Y-8448074D02*
X2381345Y-8495693D01*
X2381345Y-8495693D02*
X2371822Y-8533789D01*
X2371822Y-8533789D02*
X2362298Y-8552836D01*
X2362298Y-8552836D02*
X2352774Y-8562360D01*
X2352774Y-8562360D02*
X2333726Y-8571884D01*
X2333726Y-8571884D02*
X2314679Y-8571884D01*
X2314679Y-8571884D02*
X2295631Y-8562360D01*
X2295631Y-8562360D02*
X2286107Y-8552836D01*
X2286107Y-8552836D02*
X2276584Y-8533789D01*
X2276584Y-8533789D02*
X2267060Y-8495693D01*
X2267060Y-8495693D02*
X2267060Y-8448074D01*
X2267060Y-8448074D02*
X2276584Y-8409979D01*
X2276584Y-8409979D02*
X2286107Y-8390931D01*
X2286107Y-8390931D02*
X2295631Y-8381408D01*
X2295631Y-8381408D02*
X2314679Y-8371884D01*
X2467060Y-8571884D02*
X2467060Y-8438550D01*
X2467060Y-8457598D02*
X2476584Y-8448074D01*
X2476584Y-8448074D02*
X2495631Y-8438550D01*
X2495631Y-8438550D02*
X2524203Y-8438550D01*
X2524203Y-8438550D02*
X2543250Y-8448074D01*
X2543250Y-8448074D02*
X2552774Y-8467122D01*
X2552774Y-8467122D02*
X2552774Y-8571884D01*
X2552774Y-8467122D02*
X2562298Y-8448074D01*
X2562298Y-8448074D02*
X2581345Y-8438550D01*
X2581345Y-8438550D02*
X2609917Y-8438550D01*
X2609917Y-8438550D02*
X2628965Y-8448074D01*
X2628965Y-8448074D02*
X2638488Y-8467122D01*
X2638488Y-8467122D02*
X2638488Y-8571884D01*
X2733726Y-8571884D02*
X2733726Y-8438550D01*
X2733726Y-8457598D02*
X2743250Y-8448074D01*
X2743250Y-8448074D02*
X2762298Y-8438550D01*
X2762298Y-8438550D02*
X2790869Y-8438550D01*
X2790869Y-8438550D02*
X2809917Y-8448074D01*
X2809917Y-8448074D02*
X2819441Y-8467122D01*
X2819441Y-8467122D02*
X2819441Y-8571884D01*
X2819441Y-8467122D02*
X2828964Y-8448074D01*
X2828964Y-8448074D02*
X2848012Y-8438550D01*
X2848012Y-8438550D02*
X2876583Y-8438550D01*
X2876583Y-8438550D02*
X2895631Y-8448074D01*
X2895631Y-8448074D02*
X2905155Y-8467122D01*
X2905155Y-8467122D02*
X2905155Y-8571884D01*
X3295631Y-8362360D02*
X3124203Y-8619503D01*
X3552774Y-8371884D02*
X3571822Y-8371884D01*
X3571822Y-8371884D02*
X3590869Y-8381408D01*
X3590869Y-8381408D02*
X3600393Y-8390931D01*
X3600393Y-8390931D02*
X3609917Y-8409979D01*
X3609917Y-8409979D02*
X3619441Y-8448074D01*
X3619441Y-8448074D02*
X3619441Y-8495693D01*
X3619441Y-8495693D02*
X3609917Y-8533789D01*
X3609917Y-8533789D02*
X3600393Y-8552836D01*
X3600393Y-8552836D02*
X3590869Y-8562360D01*
X3590869Y-8562360D02*
X3571822Y-8571884D01*
X3571822Y-8571884D02*
X3552774Y-8571884D01*
X3552774Y-8571884D02*
X3533726Y-8562360D01*
X3533726Y-8562360D02*
X3524203Y-8552836D01*
X3524203Y-8552836D02*
X3514679Y-8533789D01*
X3514679Y-8533789D02*
X3505155Y-8495693D01*
X3505155Y-8495693D02*
X3505155Y-8448074D01*
X3505155Y-8448074D02*
X3514679Y-8409979D01*
X3514679Y-8409979D02*
X3524203Y-8390931D01*
X3524203Y-8390931D02*
X3533726Y-8381408D01*
X3533726Y-8381408D02*
X3552774Y-8371884D01*
X3705155Y-8552836D02*
X3714679Y-8562360D01*
X3714679Y-8562360D02*
X3705155Y-8571884D01*
X3705155Y-8571884D02*
X3695631Y-8562360D01*
X3695631Y-8562360D02*
X3705155Y-8552836D01*
X3705155Y-8552836D02*
X3705155Y-8571884D01*
X3838488Y-8371884D02*
X3857536Y-8371884D01*
X3857536Y-8371884D02*
X3876584Y-8381408D01*
X3876584Y-8381408D02*
X3886107Y-8390931D01*
X3886107Y-8390931D02*
X3895631Y-8409979D01*
X3895631Y-8409979D02*
X3905155Y-8448074D01*
X3905155Y-8448074D02*
X3905155Y-8495693D01*
X3905155Y-8495693D02*
X3895631Y-8533789D01*
X3895631Y-8533789D02*
X3886107Y-8552836D01*
X3886107Y-8552836D02*
X3876584Y-8562360D01*
X3876584Y-8562360D02*
X3857536Y-8571884D01*
X3857536Y-8571884D02*
X3838488Y-8571884D01*
X3838488Y-8571884D02*
X3819441Y-8562360D01*
X3819441Y-8562360D02*
X3809917Y-8552836D01*
X3809917Y-8552836D02*
X3800393Y-8533789D01*
X3800393Y-8533789D02*
X3790869Y-8495693D01*
X3790869Y-8495693D02*
X3790869Y-8448074D01*
X3790869Y-8448074D02*
X3800393Y-8409979D01*
X3800393Y-8409979D02*
X3809917Y-8390931D01*
X3809917Y-8390931D02*
X3819441Y-8381408D01*
X3819441Y-8381408D02*
X3838488Y-8371884D01*
X3981346Y-8390931D02*
X3990869Y-8381408D01*
X3990869Y-8381408D02*
X4009917Y-8371884D01*
X4009917Y-8371884D02*
X4057536Y-8371884D01*
X4057536Y-8371884D02*
X4076584Y-8381408D01*
X4076584Y-8381408D02*
X4086107Y-8390931D01*
X4086107Y-8390931D02*
X4095631Y-8409979D01*
X4095631Y-8409979D02*
X4095631Y-8429027D01*
X4095631Y-8429027D02*
X4086107Y-8457598D01*
X4086107Y-8457598D02*
X3971822Y-8571884D01*
X3971822Y-8571884D02*
X4095631Y-8571884D01*
X4190869Y-8571884D02*
X4228965Y-8571884D01*
X4228965Y-8571884D02*
X4248012Y-8562360D01*
X4248012Y-8562360D02*
X4257536Y-8552836D01*
X4257536Y-8552836D02*
X4276584Y-8524265D01*
X4276584Y-8524265D02*
X4286108Y-8486170D01*
X4286108Y-8486170D02*
X4286108Y-8409979D01*
X4286108Y-8409979D02*
X4276584Y-8390931D01*
X4276584Y-8390931D02*
X4267060Y-8381408D01*
X4267060Y-8381408D02*
X4248012Y-8371884D01*
X4248012Y-8371884D02*
X4209917Y-8371884D01*
X4209917Y-8371884D02*
X4190869Y-8381408D01*
X4190869Y-8381408D02*
X4181346Y-8390931D01*
X4181346Y-8390931D02*
X4171822Y-8409979D01*
X4171822Y-8409979D02*
X4171822Y-8457598D01*
X4171822Y-8457598D02*
X4181346Y-8476646D01*
X4181346Y-8476646D02*
X4190869Y-8486170D01*
X4190869Y-8486170D02*
X4209917Y-8495693D01*
X4209917Y-8495693D02*
X4248012Y-8495693D01*
X4248012Y-8495693D02*
X4267060Y-8486170D01*
X4267060Y-8486170D02*
X4276584Y-8476646D01*
X4276584Y-8476646D02*
X4286108Y-8457598D01*
X4467060Y-8371884D02*
X4371822Y-8371884D01*
X4371822Y-8371884D02*
X4362298Y-8467122D01*
X4362298Y-8467122D02*
X4371822Y-8457598D01*
X4371822Y-8457598D02*
X4390869Y-8448074D01*
X4390869Y-8448074D02*
X4438489Y-8448074D01*
X4438489Y-8448074D02*
X4457536Y-8457598D01*
X4457536Y-8457598D02*
X4467060Y-8467122D01*
X4467060Y-8467122D02*
X4476584Y-8486170D01*
X4476584Y-8486170D02*
X4476584Y-8533789D01*
X4476584Y-8533789D02*
X4467060Y-8552836D01*
X4467060Y-8552836D02*
X4457536Y-8562360D01*
X4457536Y-8562360D02*
X4438489Y-8571884D01*
X4438489Y-8571884D02*
X4390869Y-8571884D01*
X4390869Y-8571884D02*
X4371822Y-8562360D01*
X4371822Y-8562360D02*
X4362298Y-8552836D01*
X4552774Y-8371884D02*
X4552774Y-8409979D01*
X4628965Y-8371884D02*
X4628965Y-8409979D01*
X4924203Y-8648074D02*
X4914679Y-8638550D01*
X4914679Y-8638550D02*
X4895631Y-8609979D01*
X4895631Y-8609979D02*
X4886108Y-8590931D01*
X4886108Y-8590931D02*
X4876584Y-8562360D01*
X4876584Y-8562360D02*
X4867060Y-8514741D01*
X4867060Y-8514741D02*
X4867060Y-8476646D01*
X4867060Y-8476646D02*
X4876584Y-8429027D01*
X4876584Y-8429027D02*
X4886108Y-8400455D01*
X4886108Y-8400455D02*
X4895631Y-8381408D01*
X4895631Y-8381408D02*
X4914679Y-8352836D01*
X4914679Y-8352836D02*
X4924203Y-8343312D01*
X5086108Y-8438550D02*
X5086108Y-8571884D01*
X5038489Y-8362360D02*
X4990870Y-8505217D01*
X4990870Y-8505217D02*
X5114679Y-8505217D01*
X5343251Y-8571884D02*
X5343251Y-8371884D01*
X5428965Y-8571884D02*
X5428965Y-8467122D01*
X5428965Y-8467122D02*
X5419441Y-8448074D01*
X5419441Y-8448074D02*
X5400393Y-8438550D01*
X5400393Y-8438550D02*
X5371822Y-8438550D01*
X5371822Y-8438550D02*
X5352774Y-8448074D01*
X5352774Y-8448074D02*
X5343251Y-8457598D01*
X5552774Y-8571884D02*
X5533727Y-8562360D01*
X5533727Y-8562360D02*
X5524203Y-8552836D01*
X5524203Y-8552836D02*
X5514679Y-8533789D01*
X5514679Y-8533789D02*
X5514679Y-8476646D01*
X5514679Y-8476646D02*
X5524203Y-8457598D01*
X5524203Y-8457598D02*
X5533727Y-8448074D01*
X5533727Y-8448074D02*
X5552774Y-8438550D01*
X5552774Y-8438550D02*
X5581346Y-8438550D01*
X5581346Y-8438550D02*
X5600393Y-8448074D01*
X5600393Y-8448074D02*
X5609917Y-8457598D01*
X5609917Y-8457598D02*
X5619441Y-8476646D01*
X5619441Y-8476646D02*
X5619441Y-8533789D01*
X5619441Y-8533789D02*
X5609917Y-8552836D01*
X5609917Y-8552836D02*
X5600393Y-8562360D01*
X5600393Y-8562360D02*
X5581346Y-8571884D01*
X5581346Y-8571884D02*
X5552774Y-8571884D01*
X5733727Y-8571884D02*
X5714679Y-8562360D01*
X5714679Y-8562360D02*
X5705155Y-8543312D01*
X5705155Y-8543312D02*
X5705155Y-8371884D01*
X5886108Y-8562360D02*
X5867060Y-8571884D01*
X5867060Y-8571884D02*
X5828965Y-8571884D01*
X5828965Y-8571884D02*
X5809917Y-8562360D01*
X5809917Y-8562360D02*
X5800393Y-8543312D01*
X5800393Y-8543312D02*
X5800393Y-8467122D01*
X5800393Y-8467122D02*
X5809917Y-8448074D01*
X5809917Y-8448074D02*
X5828965Y-8438550D01*
X5828965Y-8438550D02*
X5867060Y-8438550D01*
X5867060Y-8438550D02*
X5886108Y-8448074D01*
X5886108Y-8448074D02*
X5895631Y-8467122D01*
X5895631Y-8467122D02*
X5895631Y-8486170D01*
X5895631Y-8486170D02*
X5800393Y-8505217D01*
X5971822Y-8562360D02*
X5990870Y-8571884D01*
X5990870Y-8571884D02*
X6028965Y-8571884D01*
X6028965Y-8571884D02*
X6048012Y-8562360D01*
X6048012Y-8562360D02*
X6057536Y-8543312D01*
X6057536Y-8543312D02*
X6057536Y-8533789D01*
X6057536Y-8533789D02*
X6048012Y-8514741D01*
X6048012Y-8514741D02*
X6028965Y-8505217D01*
X6028965Y-8505217D02*
X6000393Y-8505217D01*
X6000393Y-8505217D02*
X5981346Y-8495693D01*
X5981346Y-8495693D02*
X5971822Y-8476646D01*
X5971822Y-8476646D02*
X5971822Y-8467122D01*
X5971822Y-8467122D02*
X5981346Y-8448074D01*
X5981346Y-8448074D02*
X6000393Y-8438550D01*
X6000393Y-8438550D02*
X6028965Y-8438550D01*
X6028965Y-8438550D02*
X6048012Y-8448074D01*
X6124203Y-8648074D02*
X6133727Y-8638550D01*
X6133727Y-8638550D02*
X6152774Y-8609979D01*
X6152774Y-8609979D02*
X6162298Y-8590931D01*
X6162298Y-8590931D02*
X6171822Y-8562360D01*
X6171822Y-8562360D02*
X6181346Y-8514741D01*
X6181346Y-8514741D02*
X6181346Y-8476646D01*
X6181346Y-8476646D02*
X6171822Y-8429027D01*
X6171822Y-8429027D02*
X6162298Y-8400455D01*
X6162298Y-8400455D02*
X6152774Y-8381408D01*
X6152774Y-8381408D02*
X6133727Y-8352836D01*
X6133727Y-8352836D02*
X6124203Y-8343312D01*
D15*
X1298340Y-8693600D02*
X1298340Y-8795200D01*
X1247540Y-8744400D02*
X1349140Y-8744400D01*
D13*
X1714679Y-8835884D02*
X1600393Y-8835884D01*
X1657536Y-8835884D02*
X1657536Y-8635884D01*
X1657536Y-8635884D02*
X1638488Y-8664455D01*
X1638488Y-8664455D02*
X1619441Y-8683503D01*
X1619441Y-8683503D02*
X1600393Y-8693027D01*
X1800393Y-8816836D02*
X1809917Y-8826360D01*
X1809917Y-8826360D02*
X1800393Y-8835884D01*
X1800393Y-8835884D02*
X1790869Y-8826360D01*
X1790869Y-8826360D02*
X1800393Y-8816836D01*
X1800393Y-8816836D02*
X1800393Y-8835884D01*
X1933726Y-8635884D02*
X1952774Y-8635884D01*
X1952774Y-8635884D02*
X1971822Y-8645408D01*
X1971822Y-8645408D02*
X1981345Y-8654931D01*
X1981345Y-8654931D02*
X1990869Y-8673979D01*
X1990869Y-8673979D02*
X2000393Y-8712074D01*
X2000393Y-8712074D02*
X2000393Y-8759693D01*
X2000393Y-8759693D02*
X1990869Y-8797789D01*
X1990869Y-8797789D02*
X1981345Y-8816836D01*
X1981345Y-8816836D02*
X1971822Y-8826360D01*
X1971822Y-8826360D02*
X1952774Y-8835884D01*
X1952774Y-8835884D02*
X1933726Y-8835884D01*
X1933726Y-8835884D02*
X1914679Y-8826360D01*
X1914679Y-8826360D02*
X1905155Y-8816836D01*
X1905155Y-8816836D02*
X1895631Y-8797789D01*
X1895631Y-8797789D02*
X1886107Y-8759693D01*
X1886107Y-8759693D02*
X1886107Y-8712074D01*
X1886107Y-8712074D02*
X1895631Y-8673979D01*
X1895631Y-8673979D02*
X1905155Y-8654931D01*
X1905155Y-8654931D02*
X1914679Y-8645408D01*
X1914679Y-8645408D02*
X1933726Y-8635884D01*
X2190869Y-8835884D02*
X2076583Y-8835884D01*
X2133726Y-8835884D02*
X2133726Y-8635884D01*
X2133726Y-8635884D02*
X2114679Y-8664455D01*
X2114679Y-8664455D02*
X2095631Y-8683503D01*
X2095631Y-8683503D02*
X2076583Y-8693027D01*
X2362298Y-8635884D02*
X2324203Y-8635884D01*
X2324203Y-8635884D02*
X2305155Y-8645408D01*
X2305155Y-8645408D02*
X2295631Y-8654931D01*
X2295631Y-8654931D02*
X2276584Y-8683503D01*
X2276584Y-8683503D02*
X2267060Y-8721598D01*
X2267060Y-8721598D02*
X2267060Y-8797789D01*
X2267060Y-8797789D02*
X2276584Y-8816836D01*
X2276584Y-8816836D02*
X2286107Y-8826360D01*
X2286107Y-8826360D02*
X2305155Y-8835884D01*
X2305155Y-8835884D02*
X2343250Y-8835884D01*
X2343250Y-8835884D02*
X2362298Y-8826360D01*
X2362298Y-8826360D02*
X2371822Y-8816836D01*
X2371822Y-8816836D02*
X2381345Y-8797789D01*
X2381345Y-8797789D02*
X2381345Y-8750170D01*
X2381345Y-8750170D02*
X2371822Y-8731122D01*
X2371822Y-8731122D02*
X2362298Y-8721598D01*
X2362298Y-8721598D02*
X2343250Y-8712074D01*
X2343250Y-8712074D02*
X2305155Y-8712074D01*
X2305155Y-8712074D02*
X2286107Y-8721598D01*
X2286107Y-8721598D02*
X2276584Y-8731122D01*
X2276584Y-8731122D02*
X2267060Y-8750170D01*
X2467060Y-8835884D02*
X2467060Y-8702550D01*
X2467060Y-8721598D02*
X2476584Y-8712074D01*
X2476584Y-8712074D02*
X2495631Y-8702550D01*
X2495631Y-8702550D02*
X2524203Y-8702550D01*
X2524203Y-8702550D02*
X2543250Y-8712074D01*
X2543250Y-8712074D02*
X2552774Y-8731122D01*
X2552774Y-8731122D02*
X2552774Y-8835884D01*
X2552774Y-8731122D02*
X2562298Y-8712074D01*
X2562298Y-8712074D02*
X2581345Y-8702550D01*
X2581345Y-8702550D02*
X2609917Y-8702550D01*
X2609917Y-8702550D02*
X2628965Y-8712074D01*
X2628965Y-8712074D02*
X2638488Y-8731122D01*
X2638488Y-8731122D02*
X2638488Y-8835884D01*
X2733726Y-8835884D02*
X2733726Y-8702550D01*
X2733726Y-8721598D02*
X2743250Y-8712074D01*
X2743250Y-8712074D02*
X2762298Y-8702550D01*
X2762298Y-8702550D02*
X2790869Y-8702550D01*
X2790869Y-8702550D02*
X2809917Y-8712074D01*
X2809917Y-8712074D02*
X2819441Y-8731122D01*
X2819441Y-8731122D02*
X2819441Y-8835884D01*
X2819441Y-8731122D02*
X2828964Y-8712074D01*
X2828964Y-8712074D02*
X2848012Y-8702550D01*
X2848012Y-8702550D02*
X2876583Y-8702550D01*
X2876583Y-8702550D02*
X2895631Y-8712074D01*
X2895631Y-8712074D02*
X2905155Y-8731122D01*
X2905155Y-8731122D02*
X2905155Y-8835884D01*
X3295631Y-8626360D02*
X3124203Y-8883503D01*
X3552774Y-8635884D02*
X3571822Y-8635884D01*
X3571822Y-8635884D02*
X3590869Y-8645408D01*
X3590869Y-8645408D02*
X3600393Y-8654931D01*
X3600393Y-8654931D02*
X3609917Y-8673979D01*
X3609917Y-8673979D02*
X3619441Y-8712074D01*
X3619441Y-8712074D02*
X3619441Y-8759693D01*
X3619441Y-8759693D02*
X3609917Y-8797789D01*
X3609917Y-8797789D02*
X3600393Y-8816836D01*
X3600393Y-8816836D02*
X3590869Y-8826360D01*
X3590869Y-8826360D02*
X3571822Y-8835884D01*
X3571822Y-8835884D02*
X3552774Y-8835884D01*
X3552774Y-8835884D02*
X3533726Y-8826360D01*
X3533726Y-8826360D02*
X3524203Y-8816836D01*
X3524203Y-8816836D02*
X3514679Y-8797789D01*
X3514679Y-8797789D02*
X3505155Y-8759693D01*
X3505155Y-8759693D02*
X3505155Y-8712074D01*
X3505155Y-8712074D02*
X3514679Y-8673979D01*
X3514679Y-8673979D02*
X3524203Y-8654931D01*
X3524203Y-8654931D02*
X3533726Y-8645408D01*
X3533726Y-8645408D02*
X3552774Y-8635884D01*
X3705155Y-8816836D02*
X3714679Y-8826360D01*
X3714679Y-8826360D02*
X3705155Y-8835884D01*
X3705155Y-8835884D02*
X3695631Y-8826360D01*
X3695631Y-8826360D02*
X3705155Y-8816836D01*
X3705155Y-8816836D02*
X3705155Y-8835884D01*
X3838488Y-8635884D02*
X3857536Y-8635884D01*
X3857536Y-8635884D02*
X3876584Y-8645408D01*
X3876584Y-8645408D02*
X3886107Y-8654931D01*
X3886107Y-8654931D02*
X3895631Y-8673979D01*
X3895631Y-8673979D02*
X3905155Y-8712074D01*
X3905155Y-8712074D02*
X3905155Y-8759693D01*
X3905155Y-8759693D02*
X3895631Y-8797789D01*
X3895631Y-8797789D02*
X3886107Y-8816836D01*
X3886107Y-8816836D02*
X3876584Y-8826360D01*
X3876584Y-8826360D02*
X3857536Y-8835884D01*
X3857536Y-8835884D02*
X3838488Y-8835884D01*
X3838488Y-8835884D02*
X3819441Y-8826360D01*
X3819441Y-8826360D02*
X3809917Y-8816836D01*
X3809917Y-8816836D02*
X3800393Y-8797789D01*
X3800393Y-8797789D02*
X3790869Y-8759693D01*
X3790869Y-8759693D02*
X3790869Y-8712074D01*
X3790869Y-8712074D02*
X3800393Y-8673979D01*
X3800393Y-8673979D02*
X3809917Y-8654931D01*
X3809917Y-8654931D02*
X3819441Y-8645408D01*
X3819441Y-8645408D02*
X3838488Y-8635884D01*
X4076584Y-8702550D02*
X4076584Y-8835884D01*
X4028965Y-8626360D02*
X3981346Y-8769217D01*
X3981346Y-8769217D02*
X4105155Y-8769217D01*
X4219441Y-8635884D02*
X4238489Y-8635884D01*
X4238489Y-8635884D02*
X4257536Y-8645408D01*
X4257536Y-8645408D02*
X4267060Y-8654931D01*
X4267060Y-8654931D02*
X4276584Y-8673979D01*
X4276584Y-8673979D02*
X4286108Y-8712074D01*
X4286108Y-8712074D02*
X4286108Y-8759693D01*
X4286108Y-8759693D02*
X4276584Y-8797789D01*
X4276584Y-8797789D02*
X4267060Y-8816836D01*
X4267060Y-8816836D02*
X4257536Y-8826360D01*
X4257536Y-8826360D02*
X4238489Y-8835884D01*
X4238489Y-8835884D02*
X4219441Y-8835884D01*
X4219441Y-8835884D02*
X4200393Y-8826360D01*
X4200393Y-8826360D02*
X4190869Y-8816836D01*
X4190869Y-8816836D02*
X4181346Y-8797789D01*
X4181346Y-8797789D02*
X4171822Y-8759693D01*
X4171822Y-8759693D02*
X4171822Y-8712074D01*
X4171822Y-8712074D02*
X4181346Y-8673979D01*
X4181346Y-8673979D02*
X4190869Y-8654931D01*
X4190869Y-8654931D02*
X4200393Y-8645408D01*
X4200393Y-8645408D02*
X4219441Y-8635884D01*
X4409917Y-8635884D02*
X4428965Y-8635884D01*
X4428965Y-8635884D02*
X4448012Y-8645408D01*
X4448012Y-8645408D02*
X4457536Y-8654931D01*
X4457536Y-8654931D02*
X4467060Y-8673979D01*
X4467060Y-8673979D02*
X4476584Y-8712074D01*
X4476584Y-8712074D02*
X4476584Y-8759693D01*
X4476584Y-8759693D02*
X4467060Y-8797789D01*
X4467060Y-8797789D02*
X4457536Y-8816836D01*
X4457536Y-8816836D02*
X4448012Y-8826360D01*
X4448012Y-8826360D02*
X4428965Y-8835884D01*
X4428965Y-8835884D02*
X4409917Y-8835884D01*
X4409917Y-8835884D02*
X4390869Y-8826360D01*
X4390869Y-8826360D02*
X4381346Y-8816836D01*
X4381346Y-8816836D02*
X4371822Y-8797789D01*
X4371822Y-8797789D02*
X4362298Y-8759693D01*
X4362298Y-8759693D02*
X4362298Y-8712074D01*
X4362298Y-8712074D02*
X4371822Y-8673979D01*
X4371822Y-8673979D02*
X4381346Y-8654931D01*
X4381346Y-8654931D02*
X4390869Y-8645408D01*
X4390869Y-8645408D02*
X4409917Y-8635884D01*
X4552774Y-8635884D02*
X4552774Y-8673979D01*
X4628965Y-8635884D02*
X4628965Y-8673979D01*
X4924203Y-8912074D02*
X4914679Y-8902550D01*
X4914679Y-8902550D02*
X4895631Y-8873979D01*
X4895631Y-8873979D02*
X4886108Y-8854931D01*
X4886108Y-8854931D02*
X4876584Y-8826360D01*
X4876584Y-8826360D02*
X4867060Y-8778741D01*
X4867060Y-8778741D02*
X4867060Y-8740646D01*
X4867060Y-8740646D02*
X4876584Y-8693027D01*
X4876584Y-8693027D02*
X4886108Y-8664455D01*
X4886108Y-8664455D02*
X4895631Y-8645408D01*
X4895631Y-8645408D02*
X4914679Y-8616836D01*
X4914679Y-8616836D02*
X4924203Y-8607312D01*
X5028965Y-8721598D02*
X5009917Y-8712074D01*
X5009917Y-8712074D02*
X5000393Y-8702550D01*
X5000393Y-8702550D02*
X4990870Y-8683503D01*
X4990870Y-8683503D02*
X4990870Y-8673979D01*
X4990870Y-8673979D02*
X5000393Y-8654931D01*
X5000393Y-8654931D02*
X5009917Y-8645408D01*
X5009917Y-8645408D02*
X5028965Y-8635884D01*
X5028965Y-8635884D02*
X5067060Y-8635884D01*
X5067060Y-8635884D02*
X5086108Y-8645408D01*
X5086108Y-8645408D02*
X5095631Y-8654931D01*
X5095631Y-8654931D02*
X5105155Y-8673979D01*
X5105155Y-8673979D02*
X5105155Y-8683503D01*
X5105155Y-8683503D02*
X5095631Y-8702550D01*
X5095631Y-8702550D02*
X5086108Y-8712074D01*
X5086108Y-8712074D02*
X5067060Y-8721598D01*
X5067060Y-8721598D02*
X5028965Y-8721598D01*
X5028965Y-8721598D02*
X5009917Y-8731122D01*
X5009917Y-8731122D02*
X5000393Y-8740646D01*
X5000393Y-8740646D02*
X4990870Y-8759693D01*
X4990870Y-8759693D02*
X4990870Y-8797789D01*
X4990870Y-8797789D02*
X5000393Y-8816836D01*
X5000393Y-8816836D02*
X5009917Y-8826360D01*
X5009917Y-8826360D02*
X5028965Y-8835884D01*
X5028965Y-8835884D02*
X5067060Y-8835884D01*
X5067060Y-8835884D02*
X5086108Y-8826360D01*
X5086108Y-8826360D02*
X5095631Y-8816836D01*
X5095631Y-8816836D02*
X5105155Y-8797789D01*
X5105155Y-8797789D02*
X5105155Y-8759693D01*
X5105155Y-8759693D02*
X5095631Y-8740646D01*
X5095631Y-8740646D02*
X5086108Y-8731122D01*
X5086108Y-8731122D02*
X5067060Y-8721598D01*
X5343251Y-8835884D02*
X5343251Y-8635884D01*
X5428965Y-8835884D02*
X5428965Y-8731122D01*
X5428965Y-8731122D02*
X5419441Y-8712074D01*
X5419441Y-8712074D02*
X5400393Y-8702550D01*
X5400393Y-8702550D02*
X5371822Y-8702550D01*
X5371822Y-8702550D02*
X5352774Y-8712074D01*
X5352774Y-8712074D02*
X5343251Y-8721598D01*
X5552774Y-8835884D02*
X5533727Y-8826360D01*
X5533727Y-8826360D02*
X5524203Y-8816836D01*
X5524203Y-8816836D02*
X5514679Y-8797789D01*
X5514679Y-8797789D02*
X5514679Y-8740646D01*
X5514679Y-8740646D02*
X5524203Y-8721598D01*
X5524203Y-8721598D02*
X5533727Y-8712074D01*
X5533727Y-8712074D02*
X5552774Y-8702550D01*
X5552774Y-8702550D02*
X5581346Y-8702550D01*
X5581346Y-8702550D02*
X5600393Y-8712074D01*
X5600393Y-8712074D02*
X5609917Y-8721598D01*
X5609917Y-8721598D02*
X5619441Y-8740646D01*
X5619441Y-8740646D02*
X5619441Y-8797789D01*
X5619441Y-8797789D02*
X5609917Y-8816836D01*
X5609917Y-8816836D02*
X5600393Y-8826360D01*
X5600393Y-8826360D02*
X5581346Y-8835884D01*
X5581346Y-8835884D02*
X5552774Y-8835884D01*
X5733727Y-8835884D02*
X5714679Y-8826360D01*
X5714679Y-8826360D02*
X5705155Y-8807312D01*
X5705155Y-8807312D02*
X5705155Y-8635884D01*
X5886108Y-8826360D02*
X5867060Y-8835884D01*
X5867060Y-8835884D02*
X5828965Y-8835884D01*
X5828965Y-8835884D02*
X5809917Y-8826360D01*
X5809917Y-8826360D02*
X5800393Y-8807312D01*
X5800393Y-8807312D02*
X5800393Y-8731122D01*
X5800393Y-8731122D02*
X5809917Y-8712074D01*
X5809917Y-8712074D02*
X5828965Y-8702550D01*
X5828965Y-8702550D02*
X5867060Y-8702550D01*
X5867060Y-8702550D02*
X5886108Y-8712074D01*
X5886108Y-8712074D02*
X5895631Y-8731122D01*
X5895631Y-8731122D02*
X5895631Y-8750170D01*
X5895631Y-8750170D02*
X5800393Y-8769217D01*
X5971822Y-8826360D02*
X5990870Y-8835884D01*
X5990870Y-8835884D02*
X6028965Y-8835884D01*
X6028965Y-8835884D02*
X6048012Y-8826360D01*
X6048012Y-8826360D02*
X6057536Y-8807312D01*
X6057536Y-8807312D02*
X6057536Y-8797789D01*
X6057536Y-8797789D02*
X6048012Y-8778741D01*
X6048012Y-8778741D02*
X6028965Y-8769217D01*
X6028965Y-8769217D02*
X6000393Y-8769217D01*
X6000393Y-8769217D02*
X5981346Y-8759693D01*
X5981346Y-8759693D02*
X5971822Y-8740646D01*
X5971822Y-8740646D02*
X5971822Y-8731122D01*
X5971822Y-8731122D02*
X5981346Y-8712074D01*
X5981346Y-8712074D02*
X6000393Y-8702550D01*
X6000393Y-8702550D02*
X6028965Y-8702550D01*
X6028965Y-8702550D02*
X6048012Y-8712074D01*
X6124203Y-8912074D02*
X6133727Y-8902550D01*
X6133727Y-8902550D02*
X6152774Y-8873979D01*
X6152774Y-8873979D02*
X6162298Y-8854931D01*
X6162298Y-8854931D02*
X6171822Y-8826360D01*
X6171822Y-8826360D02*
X6181346Y-8778741D01*
X6181346Y-8778741D02*
X6181346Y-8740646D01*
X6181346Y-8740646D02*
X6171822Y-8693027D01*
X6171822Y-8693027D02*
X6162298Y-8664455D01*
X6162298Y-8664455D02*
X6152774Y-8645408D01*
X6152774Y-8645408D02*
X6133727Y-8616836D01*
X6133727Y-8616836D02*
X6124203Y-8607312D01*
D16*
X1333031Y-9047291D02*
X1333031Y-8969509D01*
X1255249Y-8969509D01*
X1255249Y-9047291D01*
X1333031Y-9047291D01*
D13*
X1714679Y-9099884D02*
X1600393Y-9099884D01*
X1657536Y-9099884D02*
X1657536Y-8899884D01*
X1657536Y-8899884D02*
X1638488Y-8928455D01*
X1638488Y-8928455D02*
X1619441Y-8947503D01*
X1619441Y-8947503D02*
X1600393Y-8957027D01*
X1800393Y-9080836D02*
X1809917Y-9090360D01*
X1809917Y-9090360D02*
X1800393Y-9099884D01*
X1800393Y-9099884D02*
X1790869Y-9090360D01*
X1790869Y-9090360D02*
X1800393Y-9080836D01*
X1800393Y-9080836D02*
X1800393Y-9099884D01*
X2000393Y-9099884D02*
X1886107Y-9099884D01*
X1943250Y-9099884D02*
X1943250Y-8899884D01*
X1943250Y-8899884D02*
X1924202Y-8928455D01*
X1924202Y-8928455D02*
X1905155Y-8947503D01*
X1905155Y-8947503D02*
X1886107Y-8957027D01*
X2124203Y-8899884D02*
X2143250Y-8899884D01*
X2143250Y-8899884D02*
X2162298Y-8909408D01*
X2162298Y-8909408D02*
X2171822Y-8918931D01*
X2171822Y-8918931D02*
X2181345Y-8937979D01*
X2181345Y-8937979D02*
X2190869Y-8976074D01*
X2190869Y-8976074D02*
X2190869Y-9023693D01*
X2190869Y-9023693D02*
X2181345Y-9061789D01*
X2181345Y-9061789D02*
X2171822Y-9080836D01*
X2171822Y-9080836D02*
X2162298Y-9090360D01*
X2162298Y-9090360D02*
X2143250Y-9099884D01*
X2143250Y-9099884D02*
X2124203Y-9099884D01*
X2124203Y-9099884D02*
X2105155Y-9090360D01*
X2105155Y-9090360D02*
X2095631Y-9080836D01*
X2095631Y-9080836D02*
X2086107Y-9061789D01*
X2086107Y-9061789D02*
X2076583Y-9023693D01*
X2076583Y-9023693D02*
X2076583Y-8976074D01*
X2076583Y-8976074D02*
X2086107Y-8937979D01*
X2086107Y-8937979D02*
X2095631Y-8918931D01*
X2095631Y-8918931D02*
X2105155Y-8909408D01*
X2105155Y-8909408D02*
X2124203Y-8899884D01*
X2314679Y-8899884D02*
X2333726Y-8899884D01*
X2333726Y-8899884D02*
X2352774Y-8909408D01*
X2352774Y-8909408D02*
X2362298Y-8918931D01*
X2362298Y-8918931D02*
X2371822Y-8937979D01*
X2371822Y-8937979D02*
X2381345Y-8976074D01*
X2381345Y-8976074D02*
X2381345Y-9023693D01*
X2381345Y-9023693D02*
X2371822Y-9061789D01*
X2371822Y-9061789D02*
X2362298Y-9080836D01*
X2362298Y-9080836D02*
X2352774Y-9090360D01*
X2352774Y-9090360D02*
X2333726Y-9099884D01*
X2333726Y-9099884D02*
X2314679Y-9099884D01*
X2314679Y-9099884D02*
X2295631Y-9090360D01*
X2295631Y-9090360D02*
X2286107Y-9080836D01*
X2286107Y-9080836D02*
X2276584Y-9061789D01*
X2276584Y-9061789D02*
X2267060Y-9023693D01*
X2267060Y-9023693D02*
X2267060Y-8976074D01*
X2267060Y-8976074D02*
X2276584Y-8937979D01*
X2276584Y-8937979D02*
X2286107Y-8918931D01*
X2286107Y-8918931D02*
X2295631Y-8909408D01*
X2295631Y-8909408D02*
X2314679Y-8899884D01*
X2467060Y-9099884D02*
X2467060Y-8966550D01*
X2467060Y-8985598D02*
X2476584Y-8976074D01*
X2476584Y-8976074D02*
X2495631Y-8966550D01*
X2495631Y-8966550D02*
X2524203Y-8966550D01*
X2524203Y-8966550D02*
X2543250Y-8976074D01*
X2543250Y-8976074D02*
X2552774Y-8995122D01*
X2552774Y-8995122D02*
X2552774Y-9099884D01*
X2552774Y-8995122D02*
X2562298Y-8976074D01*
X2562298Y-8976074D02*
X2581345Y-8966550D01*
X2581345Y-8966550D02*
X2609917Y-8966550D01*
X2609917Y-8966550D02*
X2628965Y-8976074D01*
X2628965Y-8976074D02*
X2638488Y-8995122D01*
X2638488Y-8995122D02*
X2638488Y-9099884D01*
X2733726Y-9099884D02*
X2733726Y-8966550D01*
X2733726Y-8985598D02*
X2743250Y-8976074D01*
X2743250Y-8976074D02*
X2762298Y-8966550D01*
X2762298Y-8966550D02*
X2790869Y-8966550D01*
X2790869Y-8966550D02*
X2809917Y-8976074D01*
X2809917Y-8976074D02*
X2819441Y-8995122D01*
X2819441Y-8995122D02*
X2819441Y-9099884D01*
X2819441Y-8995122D02*
X2828964Y-8976074D01*
X2828964Y-8976074D02*
X2848012Y-8966550D01*
X2848012Y-8966550D02*
X2876583Y-8966550D01*
X2876583Y-8966550D02*
X2895631Y-8976074D01*
X2895631Y-8976074D02*
X2905155Y-8995122D01*
X2905155Y-8995122D02*
X2905155Y-9099884D01*
X3295631Y-8890360D02*
X3124203Y-9147503D01*
X3552774Y-8899884D02*
X3571822Y-8899884D01*
X3571822Y-8899884D02*
X3590869Y-8909408D01*
X3590869Y-8909408D02*
X3600393Y-8918931D01*
X3600393Y-8918931D02*
X3609917Y-8937979D01*
X3609917Y-8937979D02*
X3619441Y-8976074D01*
X3619441Y-8976074D02*
X3619441Y-9023693D01*
X3619441Y-9023693D02*
X3609917Y-9061789D01*
X3609917Y-9061789D02*
X3600393Y-9080836D01*
X3600393Y-9080836D02*
X3590869Y-9090360D01*
X3590869Y-9090360D02*
X3571822Y-9099884D01*
X3571822Y-9099884D02*
X3552774Y-9099884D01*
X3552774Y-9099884D02*
X3533726Y-9090360D01*
X3533726Y-9090360D02*
X3524203Y-9080836D01*
X3524203Y-9080836D02*
X3514679Y-9061789D01*
X3514679Y-9061789D02*
X3505155Y-9023693D01*
X3505155Y-9023693D02*
X3505155Y-8976074D01*
X3505155Y-8976074D02*
X3514679Y-8937979D01*
X3514679Y-8937979D02*
X3524203Y-8918931D01*
X3524203Y-8918931D02*
X3533726Y-8909408D01*
X3533726Y-8909408D02*
X3552774Y-8899884D01*
X3705155Y-9080836D02*
X3714679Y-9090360D01*
X3714679Y-9090360D02*
X3705155Y-9099884D01*
X3705155Y-9099884D02*
X3695631Y-9090360D01*
X3695631Y-9090360D02*
X3705155Y-9080836D01*
X3705155Y-9080836D02*
X3705155Y-9099884D01*
X3838488Y-8899884D02*
X3857536Y-8899884D01*
X3857536Y-8899884D02*
X3876584Y-8909408D01*
X3876584Y-8909408D02*
X3886107Y-8918931D01*
X3886107Y-8918931D02*
X3895631Y-8937979D01*
X3895631Y-8937979D02*
X3905155Y-8976074D01*
X3905155Y-8976074D02*
X3905155Y-9023693D01*
X3905155Y-9023693D02*
X3895631Y-9061789D01*
X3895631Y-9061789D02*
X3886107Y-9080836D01*
X3886107Y-9080836D02*
X3876584Y-9090360D01*
X3876584Y-9090360D02*
X3857536Y-9099884D01*
X3857536Y-9099884D02*
X3838488Y-9099884D01*
X3838488Y-9099884D02*
X3819441Y-9090360D01*
X3819441Y-9090360D02*
X3809917Y-9080836D01*
X3809917Y-9080836D02*
X3800393Y-9061789D01*
X3800393Y-9061789D02*
X3790869Y-9023693D01*
X3790869Y-9023693D02*
X3790869Y-8976074D01*
X3790869Y-8976074D02*
X3800393Y-8937979D01*
X3800393Y-8937979D02*
X3809917Y-8918931D01*
X3809917Y-8918931D02*
X3819441Y-8909408D01*
X3819441Y-8909408D02*
X3838488Y-8899884D01*
X4076584Y-8966550D02*
X4076584Y-9099884D01*
X4028965Y-8890360D02*
X3981346Y-9033217D01*
X3981346Y-9033217D02*
X4105155Y-9033217D01*
X4162298Y-8899884D02*
X4286108Y-8899884D01*
X4286108Y-8899884D02*
X4219441Y-8976074D01*
X4219441Y-8976074D02*
X4248012Y-8976074D01*
X4248012Y-8976074D02*
X4267060Y-8985598D01*
X4267060Y-8985598D02*
X4276584Y-8995122D01*
X4276584Y-8995122D02*
X4286108Y-9014170D01*
X4286108Y-9014170D02*
X4286108Y-9061789D01*
X4286108Y-9061789D02*
X4276584Y-9080836D01*
X4276584Y-9080836D02*
X4267060Y-9090360D01*
X4267060Y-9090360D02*
X4248012Y-9099884D01*
X4248012Y-9099884D02*
X4190869Y-9099884D01*
X4190869Y-9099884D02*
X4171822Y-9090360D01*
X4171822Y-9090360D02*
X4162298Y-9080836D01*
X4352774Y-8899884D02*
X4476584Y-8899884D01*
X4476584Y-8899884D02*
X4409917Y-8976074D01*
X4409917Y-8976074D02*
X4438489Y-8976074D01*
X4438489Y-8976074D02*
X4457536Y-8985598D01*
X4457536Y-8985598D02*
X4467060Y-8995122D01*
X4467060Y-8995122D02*
X4476584Y-9014170D01*
X4476584Y-9014170D02*
X4476584Y-9061789D01*
X4476584Y-9061789D02*
X4467060Y-9080836D01*
X4467060Y-9080836D02*
X4457536Y-9090360D01*
X4457536Y-9090360D02*
X4438489Y-9099884D01*
X4438489Y-9099884D02*
X4381346Y-9099884D01*
X4381346Y-9099884D02*
X4362298Y-9090360D01*
X4362298Y-9090360D02*
X4352774Y-9080836D01*
X4552774Y-8899884D02*
X4552774Y-8937979D01*
X4628965Y-8899884D02*
X4628965Y-8937979D01*
X4924203Y-9176074D02*
X4914679Y-9166550D01*
X4914679Y-9166550D02*
X4895631Y-9137979D01*
X4895631Y-9137979D02*
X4886108Y-9118931D01*
X4886108Y-9118931D02*
X4876584Y-9090360D01*
X4876584Y-9090360D02*
X4867060Y-9042741D01*
X4867060Y-9042741D02*
X4867060Y-9004646D01*
X4867060Y-9004646D02*
X4876584Y-8957027D01*
X4876584Y-8957027D02*
X4886108Y-8928455D01*
X4886108Y-8928455D02*
X4895631Y-8909408D01*
X4895631Y-8909408D02*
X4914679Y-8880836D01*
X4914679Y-8880836D02*
X4924203Y-8871312D01*
X5086108Y-8966550D02*
X5086108Y-9099884D01*
X5038489Y-8890360D02*
X4990870Y-9033217D01*
X4990870Y-9033217D02*
X5114679Y-9033217D01*
X5219441Y-8985598D02*
X5200393Y-8976074D01*
X5200393Y-8976074D02*
X5190870Y-8966550D01*
X5190870Y-8966550D02*
X5181346Y-8947503D01*
X5181346Y-8947503D02*
X5181346Y-8937979D01*
X5181346Y-8937979D02*
X5190870Y-8918931D01*
X5190870Y-8918931D02*
X5200393Y-8909408D01*
X5200393Y-8909408D02*
X5219441Y-8899884D01*
X5219441Y-8899884D02*
X5257536Y-8899884D01*
X5257536Y-8899884D02*
X5276584Y-8909408D01*
X5276584Y-8909408D02*
X5286108Y-8918931D01*
X5286108Y-8918931D02*
X5295631Y-8937979D01*
X5295631Y-8937979D02*
X5295631Y-8947503D01*
X5295631Y-8947503D02*
X5286108Y-8966550D01*
X5286108Y-8966550D02*
X5276584Y-8976074D01*
X5276584Y-8976074D02*
X5257536Y-8985598D01*
X5257536Y-8985598D02*
X5219441Y-8985598D01*
X5219441Y-8985598D02*
X5200393Y-8995122D01*
X5200393Y-8995122D02*
X5190870Y-9004646D01*
X5190870Y-9004646D02*
X5181346Y-9023693D01*
X5181346Y-9023693D02*
X5181346Y-9061789D01*
X5181346Y-9061789D02*
X5190870Y-9080836D01*
X5190870Y-9080836D02*
X5200393Y-9090360D01*
X5200393Y-9090360D02*
X5219441Y-9099884D01*
X5219441Y-9099884D02*
X5257536Y-9099884D01*
X5257536Y-9099884D02*
X5276584Y-9090360D01*
X5276584Y-9090360D02*
X5286108Y-9080836D01*
X5286108Y-9080836D02*
X5295631Y-9061789D01*
X5295631Y-9061789D02*
X5295631Y-9023693D01*
X5295631Y-9023693D02*
X5286108Y-9004646D01*
X5286108Y-9004646D02*
X5276584Y-8995122D01*
X5276584Y-8995122D02*
X5257536Y-8985598D01*
X5533727Y-9099884D02*
X5533727Y-8899884D01*
X5619441Y-9099884D02*
X5619441Y-8995122D01*
X5619441Y-8995122D02*
X5609917Y-8976074D01*
X5609917Y-8976074D02*
X5590870Y-8966550D01*
X5590870Y-8966550D02*
X5562298Y-8966550D01*
X5562298Y-8966550D02*
X5543251Y-8976074D01*
X5543251Y-8976074D02*
X5533727Y-8985598D01*
X5743250Y-9099884D02*
X5724203Y-9090360D01*
X5724203Y-9090360D02*
X5714679Y-9080836D01*
X5714679Y-9080836D02*
X5705155Y-9061789D01*
X5705155Y-9061789D02*
X5705155Y-9004646D01*
X5705155Y-9004646D02*
X5714679Y-8985598D01*
X5714679Y-8985598D02*
X5724203Y-8976074D01*
X5724203Y-8976074D02*
X5743250Y-8966550D01*
X5743250Y-8966550D02*
X5771822Y-8966550D01*
X5771822Y-8966550D02*
X5790870Y-8976074D01*
X5790870Y-8976074D02*
X5800393Y-8985598D01*
X5800393Y-8985598D02*
X5809917Y-9004646D01*
X5809917Y-9004646D02*
X5809917Y-9061789D01*
X5809917Y-9061789D02*
X5800393Y-9080836D01*
X5800393Y-9080836D02*
X5790870Y-9090360D01*
X5790870Y-9090360D02*
X5771822Y-9099884D01*
X5771822Y-9099884D02*
X5743250Y-9099884D01*
X5924203Y-9099884D02*
X5905155Y-9090360D01*
X5905155Y-9090360D02*
X5895631Y-9071312D01*
X5895631Y-9071312D02*
X5895631Y-8899884D01*
X6076584Y-9090360D02*
X6057536Y-9099884D01*
X6057536Y-9099884D02*
X6019441Y-9099884D01*
X6019441Y-9099884D02*
X6000393Y-9090360D01*
X6000393Y-9090360D02*
X5990870Y-9071312D01*
X5990870Y-9071312D02*
X5990870Y-8995122D01*
X5990870Y-8995122D02*
X6000393Y-8976074D01*
X6000393Y-8976074D02*
X6019441Y-8966550D01*
X6019441Y-8966550D02*
X6057536Y-8966550D01*
X6057536Y-8966550D02*
X6076584Y-8976074D01*
X6076584Y-8976074D02*
X6086108Y-8995122D01*
X6086108Y-8995122D02*
X6086108Y-9014170D01*
X6086108Y-9014170D02*
X5990870Y-9033217D01*
X6162298Y-9090360D02*
X6181346Y-9099884D01*
X6181346Y-9099884D02*
X6219441Y-9099884D01*
X6219441Y-9099884D02*
X6238489Y-9090360D01*
X6238489Y-9090360D02*
X6248012Y-9071312D01*
X6248012Y-9071312D02*
X6248012Y-9061789D01*
X6248012Y-9061789D02*
X6238489Y-9042741D01*
X6238489Y-9042741D02*
X6219441Y-9033217D01*
X6219441Y-9033217D02*
X6190870Y-9033217D01*
X6190870Y-9033217D02*
X6171822Y-9023693D01*
X6171822Y-9023693D02*
X6162298Y-9004646D01*
X6162298Y-9004646D02*
X6162298Y-8995122D01*
X6162298Y-8995122D02*
X6171822Y-8976074D01*
X6171822Y-8976074D02*
X6190870Y-8966550D01*
X6190870Y-8966550D02*
X6219441Y-8966550D01*
X6219441Y-8966550D02*
X6238489Y-8976074D01*
X6314679Y-9176074D02*
X6324203Y-9166550D01*
X6324203Y-9166550D02*
X6343251Y-9137979D01*
X6343251Y-9137979D02*
X6352774Y-9118931D01*
X6352774Y-9118931D02*
X6362298Y-9090360D01*
X6362298Y-9090360D02*
X6371822Y-9042741D01*
X6371822Y-9042741D02*
X6371822Y-9004646D01*
X6371822Y-9004646D02*
X6362298Y-8957027D01*
X6362298Y-8957027D02*
X6352774Y-8928455D01*
X6352774Y-8928455D02*
X6343251Y-8909408D01*
X6343251Y-8909408D02*
X6324203Y-8880836D01*
X6324203Y-8880836D02*
X6314679Y-8871312D01*
X1249140Y-9372400D02*
X1349140Y-9272400D01*
X1249140Y-9172400D01*
X1149140Y-9272400D01*
X1249140Y-9372400D01*
X1600393Y-9182931D02*
X1609917Y-9173408D01*
X1609917Y-9173408D02*
X1628964Y-9163884D01*
X1628964Y-9163884D02*
X1676583Y-9163884D01*
X1676583Y-9163884D02*
X1695631Y-9173408D01*
X1695631Y-9173408D02*
X1705155Y-9182931D01*
X1705155Y-9182931D02*
X1714679Y-9201979D01*
X1714679Y-9201979D02*
X1714679Y-9221027D01*
X1714679Y-9221027D02*
X1705155Y-9249598D01*
X1705155Y-9249598D02*
X1590869Y-9363884D01*
X1590869Y-9363884D02*
X1714679Y-9363884D01*
X1800393Y-9344836D02*
X1809917Y-9354360D01*
X1809917Y-9354360D02*
X1800393Y-9363884D01*
X1800393Y-9363884D02*
X1790869Y-9354360D01*
X1790869Y-9354360D02*
X1800393Y-9344836D01*
X1800393Y-9344836D02*
X1800393Y-9363884D01*
X1886107Y-9182931D02*
X1895631Y-9173408D01*
X1895631Y-9173408D02*
X1914679Y-9163884D01*
X1914679Y-9163884D02*
X1962298Y-9163884D01*
X1962298Y-9163884D02*
X1981345Y-9173408D01*
X1981345Y-9173408D02*
X1990869Y-9182931D01*
X1990869Y-9182931D02*
X2000393Y-9201979D01*
X2000393Y-9201979D02*
X2000393Y-9221027D01*
X2000393Y-9221027D02*
X1990869Y-9249598D01*
X1990869Y-9249598D02*
X1876583Y-9363884D01*
X1876583Y-9363884D02*
X2000393Y-9363884D01*
X2124203Y-9163884D02*
X2143250Y-9163884D01*
X2143250Y-9163884D02*
X2162298Y-9173408D01*
X2162298Y-9173408D02*
X2171822Y-9182931D01*
X2171822Y-9182931D02*
X2181345Y-9201979D01*
X2181345Y-9201979D02*
X2190869Y-9240074D01*
X2190869Y-9240074D02*
X2190869Y-9287693D01*
X2190869Y-9287693D02*
X2181345Y-9325789D01*
X2181345Y-9325789D02*
X2171822Y-9344836D01*
X2171822Y-9344836D02*
X2162298Y-9354360D01*
X2162298Y-9354360D02*
X2143250Y-9363884D01*
X2143250Y-9363884D02*
X2124203Y-9363884D01*
X2124203Y-9363884D02*
X2105155Y-9354360D01*
X2105155Y-9354360D02*
X2095631Y-9344836D01*
X2095631Y-9344836D02*
X2086107Y-9325789D01*
X2086107Y-9325789D02*
X2076583Y-9287693D01*
X2076583Y-9287693D02*
X2076583Y-9240074D01*
X2076583Y-9240074D02*
X2086107Y-9201979D01*
X2086107Y-9201979D02*
X2095631Y-9182931D01*
X2095631Y-9182931D02*
X2105155Y-9173408D01*
X2105155Y-9173408D02*
X2124203Y-9163884D01*
X2314679Y-9163884D02*
X2333726Y-9163884D01*
X2333726Y-9163884D02*
X2352774Y-9173408D01*
X2352774Y-9173408D02*
X2362298Y-9182931D01*
X2362298Y-9182931D02*
X2371822Y-9201979D01*
X2371822Y-9201979D02*
X2381345Y-9240074D01*
X2381345Y-9240074D02*
X2381345Y-9287693D01*
X2381345Y-9287693D02*
X2371822Y-9325789D01*
X2371822Y-9325789D02*
X2362298Y-9344836D01*
X2362298Y-9344836D02*
X2352774Y-9354360D01*
X2352774Y-9354360D02*
X2333726Y-9363884D01*
X2333726Y-9363884D02*
X2314679Y-9363884D01*
X2314679Y-9363884D02*
X2295631Y-9354360D01*
X2295631Y-9354360D02*
X2286107Y-9344836D01*
X2286107Y-9344836D02*
X2276584Y-9325789D01*
X2276584Y-9325789D02*
X2267060Y-9287693D01*
X2267060Y-9287693D02*
X2267060Y-9240074D01*
X2267060Y-9240074D02*
X2276584Y-9201979D01*
X2276584Y-9201979D02*
X2286107Y-9182931D01*
X2286107Y-9182931D02*
X2295631Y-9173408D01*
X2295631Y-9173408D02*
X2314679Y-9163884D01*
X2467060Y-9363884D02*
X2467060Y-9230550D01*
X2467060Y-9249598D02*
X2476584Y-9240074D01*
X2476584Y-9240074D02*
X2495631Y-9230550D01*
X2495631Y-9230550D02*
X2524203Y-9230550D01*
X2524203Y-9230550D02*
X2543250Y-9240074D01*
X2543250Y-9240074D02*
X2552774Y-9259122D01*
X2552774Y-9259122D02*
X2552774Y-9363884D01*
X2552774Y-9259122D02*
X2562298Y-9240074D01*
X2562298Y-9240074D02*
X2581345Y-9230550D01*
X2581345Y-9230550D02*
X2609917Y-9230550D01*
X2609917Y-9230550D02*
X2628965Y-9240074D01*
X2628965Y-9240074D02*
X2638488Y-9259122D01*
X2638488Y-9259122D02*
X2638488Y-9363884D01*
X2733726Y-9363884D02*
X2733726Y-9230550D01*
X2733726Y-9249598D02*
X2743250Y-9240074D01*
X2743250Y-9240074D02*
X2762298Y-9230550D01*
X2762298Y-9230550D02*
X2790869Y-9230550D01*
X2790869Y-9230550D02*
X2809917Y-9240074D01*
X2809917Y-9240074D02*
X2819441Y-9259122D01*
X2819441Y-9259122D02*
X2819441Y-9363884D01*
X2819441Y-9259122D02*
X2828964Y-9240074D01*
X2828964Y-9240074D02*
X2848012Y-9230550D01*
X2848012Y-9230550D02*
X2876583Y-9230550D01*
X2876583Y-9230550D02*
X2895631Y-9240074D01*
X2895631Y-9240074D02*
X2905155Y-9259122D01*
X2905155Y-9259122D02*
X2905155Y-9363884D01*
X3295631Y-9154360D02*
X3124203Y-9411503D01*
X3552774Y-9163884D02*
X3571822Y-9163884D01*
X3571822Y-9163884D02*
X3590869Y-9173408D01*
X3590869Y-9173408D02*
X3600393Y-9182931D01*
X3600393Y-9182931D02*
X3609917Y-9201979D01*
X3609917Y-9201979D02*
X3619441Y-9240074D01*
X3619441Y-9240074D02*
X3619441Y-9287693D01*
X3619441Y-9287693D02*
X3609917Y-9325789D01*
X3609917Y-9325789D02*
X3600393Y-9344836D01*
X3600393Y-9344836D02*
X3590869Y-9354360D01*
X3590869Y-9354360D02*
X3571822Y-9363884D01*
X3571822Y-9363884D02*
X3552774Y-9363884D01*
X3552774Y-9363884D02*
X3533726Y-9354360D01*
X3533726Y-9354360D02*
X3524203Y-9344836D01*
X3524203Y-9344836D02*
X3514679Y-9325789D01*
X3514679Y-9325789D02*
X3505155Y-9287693D01*
X3505155Y-9287693D02*
X3505155Y-9240074D01*
X3505155Y-9240074D02*
X3514679Y-9201979D01*
X3514679Y-9201979D02*
X3524203Y-9182931D01*
X3524203Y-9182931D02*
X3533726Y-9173408D01*
X3533726Y-9173408D02*
X3552774Y-9163884D01*
X3705155Y-9344836D02*
X3714679Y-9354360D01*
X3714679Y-9354360D02*
X3705155Y-9363884D01*
X3705155Y-9363884D02*
X3695631Y-9354360D01*
X3695631Y-9354360D02*
X3705155Y-9344836D01*
X3705155Y-9344836D02*
X3705155Y-9363884D01*
X3838488Y-9163884D02*
X3857536Y-9163884D01*
X3857536Y-9163884D02*
X3876584Y-9173408D01*
X3876584Y-9173408D02*
X3886107Y-9182931D01*
X3886107Y-9182931D02*
X3895631Y-9201979D01*
X3895631Y-9201979D02*
X3905155Y-9240074D01*
X3905155Y-9240074D02*
X3905155Y-9287693D01*
X3905155Y-9287693D02*
X3895631Y-9325789D01*
X3895631Y-9325789D02*
X3886107Y-9344836D01*
X3886107Y-9344836D02*
X3876584Y-9354360D01*
X3876584Y-9354360D02*
X3857536Y-9363884D01*
X3857536Y-9363884D02*
X3838488Y-9363884D01*
X3838488Y-9363884D02*
X3819441Y-9354360D01*
X3819441Y-9354360D02*
X3809917Y-9344836D01*
X3809917Y-9344836D02*
X3800393Y-9325789D01*
X3800393Y-9325789D02*
X3790869Y-9287693D01*
X3790869Y-9287693D02*
X3790869Y-9240074D01*
X3790869Y-9240074D02*
X3800393Y-9201979D01*
X3800393Y-9201979D02*
X3809917Y-9182931D01*
X3809917Y-9182931D02*
X3819441Y-9173408D01*
X3819441Y-9173408D02*
X3838488Y-9163884D01*
X4019441Y-9249598D02*
X4000393Y-9240074D01*
X4000393Y-9240074D02*
X3990869Y-9230550D01*
X3990869Y-9230550D02*
X3981346Y-9211503D01*
X3981346Y-9211503D02*
X3981346Y-9201979D01*
X3981346Y-9201979D02*
X3990869Y-9182931D01*
X3990869Y-9182931D02*
X4000393Y-9173408D01*
X4000393Y-9173408D02*
X4019441Y-9163884D01*
X4019441Y-9163884D02*
X4057536Y-9163884D01*
X4057536Y-9163884D02*
X4076584Y-9173408D01*
X4076584Y-9173408D02*
X4086107Y-9182931D01*
X4086107Y-9182931D02*
X4095631Y-9201979D01*
X4095631Y-9201979D02*
X4095631Y-9211503D01*
X4095631Y-9211503D02*
X4086107Y-9230550D01*
X4086107Y-9230550D02*
X4076584Y-9240074D01*
X4076584Y-9240074D02*
X4057536Y-9249598D01*
X4057536Y-9249598D02*
X4019441Y-9249598D01*
X4019441Y-9249598D02*
X4000393Y-9259122D01*
X4000393Y-9259122D02*
X3990869Y-9268646D01*
X3990869Y-9268646D02*
X3981346Y-9287693D01*
X3981346Y-9287693D02*
X3981346Y-9325789D01*
X3981346Y-9325789D02*
X3990869Y-9344836D01*
X3990869Y-9344836D02*
X4000393Y-9354360D01*
X4000393Y-9354360D02*
X4019441Y-9363884D01*
X4019441Y-9363884D02*
X4057536Y-9363884D01*
X4057536Y-9363884D02*
X4076584Y-9354360D01*
X4076584Y-9354360D02*
X4086107Y-9344836D01*
X4086107Y-9344836D02*
X4095631Y-9325789D01*
X4095631Y-9325789D02*
X4095631Y-9287693D01*
X4095631Y-9287693D02*
X4086107Y-9268646D01*
X4086107Y-9268646D02*
X4076584Y-9259122D01*
X4076584Y-9259122D02*
X4057536Y-9249598D01*
X4267060Y-9163884D02*
X4228965Y-9163884D01*
X4228965Y-9163884D02*
X4209917Y-9173408D01*
X4209917Y-9173408D02*
X4200393Y-9182931D01*
X4200393Y-9182931D02*
X4181346Y-9211503D01*
X4181346Y-9211503D02*
X4171822Y-9249598D01*
X4171822Y-9249598D02*
X4171822Y-9325789D01*
X4171822Y-9325789D02*
X4181346Y-9344836D01*
X4181346Y-9344836D02*
X4190869Y-9354360D01*
X4190869Y-9354360D02*
X4209917Y-9363884D01*
X4209917Y-9363884D02*
X4248012Y-9363884D01*
X4248012Y-9363884D02*
X4267060Y-9354360D01*
X4267060Y-9354360D02*
X4276584Y-9344836D01*
X4276584Y-9344836D02*
X4286108Y-9325789D01*
X4286108Y-9325789D02*
X4286108Y-9278170D01*
X4286108Y-9278170D02*
X4276584Y-9259122D01*
X4276584Y-9259122D02*
X4267060Y-9249598D01*
X4267060Y-9249598D02*
X4248012Y-9240074D01*
X4248012Y-9240074D02*
X4209917Y-9240074D01*
X4209917Y-9240074D02*
X4190869Y-9249598D01*
X4190869Y-9249598D02*
X4181346Y-9259122D01*
X4181346Y-9259122D02*
X4171822Y-9278170D01*
X4457536Y-9163884D02*
X4419441Y-9163884D01*
X4419441Y-9163884D02*
X4400393Y-9173408D01*
X4400393Y-9173408D02*
X4390869Y-9182931D01*
X4390869Y-9182931D02*
X4371822Y-9211503D01*
X4371822Y-9211503D02*
X4362298Y-9249598D01*
X4362298Y-9249598D02*
X4362298Y-9325789D01*
X4362298Y-9325789D02*
X4371822Y-9344836D01*
X4371822Y-9344836D02*
X4381346Y-9354360D01*
X4381346Y-9354360D02*
X4400393Y-9363884D01*
X4400393Y-9363884D02*
X4438489Y-9363884D01*
X4438489Y-9363884D02*
X4457536Y-9354360D01*
X4457536Y-9354360D02*
X4467060Y-9344836D01*
X4467060Y-9344836D02*
X4476584Y-9325789D01*
X4476584Y-9325789D02*
X4476584Y-9278170D01*
X4476584Y-9278170D02*
X4467060Y-9259122D01*
X4467060Y-9259122D02*
X4457536Y-9249598D01*
X4457536Y-9249598D02*
X4438489Y-9240074D01*
X4438489Y-9240074D02*
X4400393Y-9240074D01*
X4400393Y-9240074D02*
X4381346Y-9249598D01*
X4381346Y-9249598D02*
X4371822Y-9259122D01*
X4371822Y-9259122D02*
X4362298Y-9278170D01*
X4552774Y-9163884D02*
X4552774Y-9201979D01*
X4628965Y-9163884D02*
X4628965Y-9201979D01*
X4924203Y-9440074D02*
X4914679Y-9430550D01*
X4914679Y-9430550D02*
X4895631Y-9401979D01*
X4895631Y-9401979D02*
X4886108Y-9382931D01*
X4886108Y-9382931D02*
X4876584Y-9354360D01*
X4876584Y-9354360D02*
X4867060Y-9306741D01*
X4867060Y-9306741D02*
X4867060Y-9268646D01*
X4867060Y-9268646D02*
X4876584Y-9221027D01*
X4876584Y-9221027D02*
X4886108Y-9192455D01*
X4886108Y-9192455D02*
X4895631Y-9173408D01*
X4895631Y-9173408D02*
X4914679Y-9144836D01*
X4914679Y-9144836D02*
X4924203Y-9135312D01*
X4981346Y-9163884D02*
X5114679Y-9163884D01*
X5114679Y-9163884D02*
X5028965Y-9363884D01*
X5343251Y-9363884D02*
X5343251Y-9163884D01*
X5428965Y-9363884D02*
X5428965Y-9259122D01*
X5428965Y-9259122D02*
X5419441Y-9240074D01*
X5419441Y-9240074D02*
X5400393Y-9230550D01*
X5400393Y-9230550D02*
X5371822Y-9230550D01*
X5371822Y-9230550D02*
X5352774Y-9240074D01*
X5352774Y-9240074D02*
X5343251Y-9249598D01*
X5552774Y-9363884D02*
X5533727Y-9354360D01*
X5533727Y-9354360D02*
X5524203Y-9344836D01*
X5524203Y-9344836D02*
X5514679Y-9325789D01*
X5514679Y-9325789D02*
X5514679Y-9268646D01*
X5514679Y-9268646D02*
X5524203Y-9249598D01*
X5524203Y-9249598D02*
X5533727Y-9240074D01*
X5533727Y-9240074D02*
X5552774Y-9230550D01*
X5552774Y-9230550D02*
X5581346Y-9230550D01*
X5581346Y-9230550D02*
X5600393Y-9240074D01*
X5600393Y-9240074D02*
X5609917Y-9249598D01*
X5609917Y-9249598D02*
X5619441Y-9268646D01*
X5619441Y-9268646D02*
X5619441Y-9325789D01*
X5619441Y-9325789D02*
X5609917Y-9344836D01*
X5609917Y-9344836D02*
X5600393Y-9354360D01*
X5600393Y-9354360D02*
X5581346Y-9363884D01*
X5581346Y-9363884D02*
X5552774Y-9363884D01*
X5733727Y-9363884D02*
X5714679Y-9354360D01*
X5714679Y-9354360D02*
X5705155Y-9335312D01*
X5705155Y-9335312D02*
X5705155Y-9163884D01*
X5886108Y-9354360D02*
X5867060Y-9363884D01*
X5867060Y-9363884D02*
X5828965Y-9363884D01*
X5828965Y-9363884D02*
X5809917Y-9354360D01*
X5809917Y-9354360D02*
X5800393Y-9335312D01*
X5800393Y-9335312D02*
X5800393Y-9259122D01*
X5800393Y-9259122D02*
X5809917Y-9240074D01*
X5809917Y-9240074D02*
X5828965Y-9230550D01*
X5828965Y-9230550D02*
X5867060Y-9230550D01*
X5867060Y-9230550D02*
X5886108Y-9240074D01*
X5886108Y-9240074D02*
X5895631Y-9259122D01*
X5895631Y-9259122D02*
X5895631Y-9278170D01*
X5895631Y-9278170D02*
X5800393Y-9297217D01*
X5971822Y-9354360D02*
X5990870Y-9363884D01*
X5990870Y-9363884D02*
X6028965Y-9363884D01*
X6028965Y-9363884D02*
X6048012Y-9354360D01*
X6048012Y-9354360D02*
X6057536Y-9335312D01*
X6057536Y-9335312D02*
X6057536Y-9325789D01*
X6057536Y-9325789D02*
X6048012Y-9306741D01*
X6048012Y-9306741D02*
X6028965Y-9297217D01*
X6028965Y-9297217D02*
X6000393Y-9297217D01*
X6000393Y-9297217D02*
X5981346Y-9287693D01*
X5981346Y-9287693D02*
X5971822Y-9268646D01*
X5971822Y-9268646D02*
X5971822Y-9259122D01*
X5971822Y-9259122D02*
X5981346Y-9240074D01*
X5981346Y-9240074D02*
X6000393Y-9230550D01*
X6000393Y-9230550D02*
X6028965Y-9230550D01*
X6028965Y-9230550D02*
X6048012Y-9240074D01*
X6124203Y-9440074D02*
X6133727Y-9430550D01*
X6133727Y-9430550D02*
X6152774Y-9401979D01*
X6152774Y-9401979D02*
X6162298Y-9382931D01*
X6162298Y-9382931D02*
X6171822Y-9354360D01*
X6171822Y-9354360D02*
X6181346Y-9306741D01*
X6181346Y-9306741D02*
X6181346Y-9268646D01*
X6181346Y-9268646D02*
X6171822Y-9221027D01*
X6171822Y-9221027D02*
X6162298Y-9192455D01*
X6162298Y-9192455D02*
X6152774Y-9173408D01*
X6152774Y-9173408D02*
X6133727Y-9144836D01*
X6133727Y-9144836D02*
X6124203Y-9135312D01*
M02*
