%TF.GenerationSoftware,KiCad,Pcbnew,8.0.2*%
%TF.CreationDate,2024-07-15T13:11:32-05:00*%
%TF.ProjectId,bonsai,626f6e73-6169-42e6-9b69-6361645f7063,v1*%
%TF.SameCoordinates,Original*%
%TF.FileFunction,Copper,L1,Top*%
%TF.FilePolarity,Positive*%
%FSLAX46Y46*%
G04 Gerber Fmt 4.6, Leading zero omitted, Abs format (unit mm)*
G04 Created by KiCad (PCBNEW 8.0.2) date 2024-07-15 13:11:32*
%MOMM*%
%LPD*%
G01*
G04 APERTURE LIST*
G04 Aperture macros list*
%AMRoundRect*
0 Rectangle with rounded corners*
0 $1 Rounding radius*
0 $2 $3 $4 $5 $6 $7 $8 $9 X,Y pos of 4 corners*
0 Add a 4 corners polygon primitive as box body*
4,1,4,$2,$3,$4,$5,$6,$7,$8,$9,$2,$3,0*
0 Add four circle primitives for the rounded corners*
1,1,$1+$1,$2,$3*
1,1,$1+$1,$4,$5*
1,1,$1+$1,$6,$7*
1,1,$1+$1,$8,$9*
0 Add four rect primitives between the rounded corners*
20,1,$1+$1,$2,$3,$4,$5,0*
20,1,$1+$1,$4,$5,$6,$7,0*
20,1,$1+$1,$6,$7,$8,$9,0*
20,1,$1+$1,$8,$9,$2,$3,0*%
G04 Aperture macros list end*
%TA.AperFunction,ComponentPad*%
%ADD10C,1.600000*%
%TD*%
%TA.AperFunction,SMDPad,CuDef*%
%ADD11R,1.000000X0.800000*%
%TD*%
%TA.AperFunction,SMDPad,CuDef*%
%ADD12R,0.700000X1.500000*%
%TD*%
%TA.AperFunction,ComponentPad*%
%ADD13C,3.800000*%
%TD*%
%TA.AperFunction,SMDPad,CuDef*%
%ADD14RoundRect,0.250000X0.752025X0.243841X0.455316X0.646288X-0.752025X-0.243841X-0.455316X-0.646288X0*%
%TD*%
%TA.AperFunction,SMDPad,CuDef*%
%ADD15RoundRect,0.375000X1.128038X0.365761X0.682973X0.969431X-1.128038X-0.365761X-0.682973X-0.969431X0*%
%TD*%
%TA.AperFunction,SMDPad,CuDef*%
%ADD16RoundRect,0.350000X0.398402X0.293727X-0.293727X0.398402X-0.398402X-0.293727X0.293727X-0.398402X0*%
%TD*%
%TA.AperFunction,ComponentPad*%
%ADD17R,1.700000X1.200000*%
%TD*%
%TA.AperFunction,ComponentPad*%
%ADD18O,1.700000X1.200000*%
%TD*%
%TA.AperFunction,SMDPad,CuDef*%
%ADD19O,2.750000X1.800000*%
%TD*%
%TA.AperFunction,ComponentPad*%
%ADD20C,1.397000*%
%TD*%
%TA.AperFunction,ViaPad*%
%ADD21C,0.800000*%
%TD*%
%TA.AperFunction,Conductor*%
%ADD22C,0.200000*%
%TD*%
%TA.AperFunction,Conductor*%
%ADD23C,0.250000*%
%TD*%
G04 APERTURE END LIST*
D10*
%TO.P,REF\u002A\u002A,1*%
%TO.N,K3*%
X38566400Y-49789000D03*
X42566400Y-49789000D03*
%TO.P,REF\u002A\u002A,2*%
%TO.N,GND*%
X35986400Y-49489000D03*
X45146400Y-49489000D03*
%TO.P,REF\u002A\u002A,4*%
X45866400Y-39639000D03*
%TO.P,REF\u002A\u002A,5*%
X35266400Y-39639000D03*
%TD*%
%TO.P,REF\u002A\u002A,1*%
%TO.N,K4*%
X74566400Y-32789000D03*
X78566400Y-32789000D03*
%TO.P,REF\u002A\u002A,2*%
%TO.N,GND*%
X71986400Y-32489000D03*
X81146400Y-32489000D03*
%TO.P,REF\u002A\u002A,4*%
%TO.N,N/C*%
X81866400Y-22639000D03*
%TO.P,REF\u002A\u002A,5*%
X71266400Y-22639000D03*
%TD*%
D11*
%TO.P,REF\u002A\u002A,*%
%TO.N,*%
X24750000Y-30105000D03*
X24750000Y-27895000D03*
X17450000Y-30105000D03*
X17450000Y-27895000D03*
D12*
%TO.P,REF\u002A\u002A,1*%
%TO.N,Bat+*%
X23350000Y-30755000D03*
%TO.P,REF\u002A\u002A,2*%
%TO.N,RAW*%
X20349999Y-30755000D03*
%TO.P,REF\u002A\u002A,3*%
%TO.N,N/C*%
X18850000Y-30755000D03*
%TD*%
D10*
%TO.P,REF\u002A\u002A,1*%
%TO.N,K0*%
X92766400Y-72289000D03*
X96766400Y-72289000D03*
%TO.P,REF\u002A\u002A,2*%
%TO.N,GND*%
X90186400Y-71989000D03*
X99346400Y-71989000D03*
%TO.P,REF\u002A\u002A,4*%
%TO.N,N/C*%
X100066400Y-62139000D03*
%TO.P,REF\u002A\u002A,5*%
X89466400Y-62139000D03*
%TD*%
D13*
%TO.P,REF\u002A\u002A,1*%
%TO.N,N/C*%
X85500000Y-63350000D03*
%TD*%
D14*
%TO.P,REF\u002A\u002A,A*%
%TO.N,F1*%
X25925105Y-59547004D03*
%TO.P,REF\u002A\u002A,B*%
%TO.N,F3*%
X22364591Y-54717641D03*
%TO.P,REF\u002A\u002A,C*%
%TO.N,GND*%
X24738267Y-57937216D03*
D15*
%TO.P,REF\u002A\u002A,MP*%
X25663134Y-62224945D03*
D16*
X22796915Y-62971464D03*
X18168248Y-56693293D03*
D15*
X19728945Y-54176007D03*
D14*
%TO.P,REF\u002A\u002A,S*%
%TO.N,F2*%
X23551429Y-56327429D03*
%TD*%
D13*
%TO.P,REF\u002A\u002A,1*%
%TO.N,N/C*%
X53300000Y-72350000D03*
%TD*%
D10*
%TO.P,REF\u002A\u002A,1*%
%TO.N,K2*%
X56600000Y-45075000D03*
X60600000Y-45075000D03*
%TO.P,REF\u002A\u002A,2*%
%TO.N,GND*%
X54020000Y-44775000D03*
X63180000Y-44775000D03*
%TO.P,REF\u002A\u002A,4*%
%TO.N,N/C*%
X63900000Y-34925000D03*
%TO.P,REF\u002A\u002A,5*%
X53300000Y-34925000D03*
%TD*%
%TO.P,REF\u002A\u002A,1*%
%TO.N,K6*%
X38532800Y-32753000D03*
X42532800Y-32753000D03*
%TO.P,REF\u002A\u002A,2*%
%TO.N,GND*%
X35952800Y-32453000D03*
X45112800Y-32453000D03*
%TO.P,REF\u002A\u002A,4*%
%TO.N,N/C*%
X45832800Y-22603000D03*
%TO.P,REF\u002A\u002A,5*%
X35232800Y-22603000D03*
%TD*%
D13*
%TO.P,,1*%
%TO.N,N/C*%
X50950000Y-51050000D03*
%TD*%
D17*
%TO.P,REF\u002A\u002A,1*%
%TO.N,GND*%
X60066400Y-50989000D03*
D18*
%TO.P,REF\u002A\u002A,2*%
%TO.N,Bat+*%
X60066400Y-52989000D03*
%TD*%
D13*
%TO.P,REF\u002A\u002A,1*%
%TO.N,N/C*%
X29450000Y-28900000D03*
%TD*%
%TO.P,REF\u002A\u002A,1*%
%TO.N,N/C*%
X69700000Y-18050000D03*
%TD*%
%TO.P,REF\u002A\u002A,1*%
%TO.N,N/C*%
X17300000Y-51300000D03*
%TD*%
D10*
%TO.P,REF\u002A\u002A,1*%
%TO.N,K5*%
X56566400Y-28039000D03*
X60566400Y-28039000D03*
%TO.P,REF\u002A\u002A,2*%
%TO.N,GND*%
X53986400Y-27739000D03*
X63146400Y-27739000D03*
%TO.P,REF\u002A\u002A,4*%
%TO.N,N/C*%
X63866400Y-17889000D03*
%TO.P,REF\u002A\u002A,5*%
X53266400Y-17889000D03*
%TD*%
%TO.P,REF\u002A\u002A,1*%
%TO.N,K1*%
X74600000Y-49825000D03*
X78600000Y-49825000D03*
%TO.P,REF\u002A\u002A,2*%
%TO.N,GND*%
X72020000Y-49525000D03*
X81180000Y-49525000D03*
%TO.P,REF\u002A\u002A,4*%
%TO.N,N/C*%
X81900000Y-39675000D03*
%TO.P,REF\u002A\u002A,5*%
X71300000Y-39675000D03*
%TD*%
D19*
%TO.P,U?,1*%
%TO.N,F1*%
X48691400Y-72813000D03*
%TO.P,U?,2*%
%TO.N,F2*%
X48691400Y-70273000D03*
%TO.P,U?,3*%
%TO.N,F3*%
X48691400Y-67733000D03*
%TO.P,U?,4*%
%TO.N,K0*%
X48691400Y-65193000D03*
%TO.P,U?,5*%
%TO.N,K1*%
X48691400Y-62653000D03*
%TO.P,U?,6*%
%TO.N,K2*%
X48691400Y-60113000D03*
%TO.P,U?,7*%
%TO.N,K3*%
X48691400Y-57573000D03*
%TO.P,U?,8*%
%TO.N,K4*%
X32501480Y-57573000D03*
%TO.P,U?,9*%
%TO.N,K5*%
X32501480Y-60113000D03*
%TO.P,U?,10*%
%TO.N,K6*%
X32501480Y-62653000D03*
%TO.P,U?,11*%
%TO.N,K7*%
X32501480Y-65193000D03*
%TO.P,U?,12*%
%TO.N,N/C*%
X32501480Y-67733000D03*
%TO.P,U?,13*%
%TO.N,GND*%
X32501480Y-70273000D03*
%TO.P,U?,14*%
%TO.N,N/C*%
X32501480Y-72813000D03*
D20*
%TO.P,U?,19*%
%TO.N,RAW*%
X45041440Y-65510000D03*
X36151440Y-65510000D03*
%TO.P,U?,20*%
%TO.N,GND*%
X45041440Y-67415000D03*
X36151440Y-67415000D03*
%TD*%
D10*
%TO.P,REF\u002A\u002A,1*%
%TO.N,K7*%
X28466400Y-41639000D03*
X28466400Y-37639000D03*
%TO.P,REF\u002A\u002A,2*%
%TO.N,GND*%
X28166400Y-44219000D03*
X28166400Y-35059000D03*
%TO.P,REF\u002A\u002A,4*%
%TO.N,N/C*%
X18316400Y-34339000D03*
%TO.P,REF\u002A\u002A,5*%
X18316400Y-44939000D03*
%TD*%
D17*
%TO.P,REF\u002A\u002A,1*%
%TO.N,GND*%
X62450000Y-52975000D03*
D18*
%TO.P,REF\u002A\u002A,2*%
%TO.N,Bat+*%
X62450000Y-50975002D03*
%TD*%
D20*
%TO.P,U?,15*%
%TO.N,N/C*%
X39296400Y-73761000D03*
%TO.P,U?,16*%
X41836400Y-73761000D03*
%TO.P,U?,17*%
X39296400Y-71221000D03*
%TO.P,U?,18*%
X41836400Y-71221000D03*
%TD*%
D21*
%TO.N,K5*%
X30066400Y-60189000D03*
%TO.N,GND*%
X25600000Y-55800000D03*
X45566400Y-70189000D03*
X58551047Y-73698953D03*
%TO.N,K6*%
X30066400Y-62689000D03*
%TO.N,K7*%
X30066400Y-65189000D03*
%TO.N,K1*%
X51066400Y-62689000D03*
%TO.N,K0*%
X51066400Y-65189000D03*
%TO.N,K2*%
X51066400Y-60189000D03*
%TO.N,K3*%
X51066400Y-57689000D03*
%TO.N,K4*%
X30066400Y-57689000D03*
%TO.N,Bat+*%
X23350000Y-32350000D03*
%TO.N,RAW*%
X21000000Y-29000000D03*
%TO.N,F1*%
X30000000Y-72800000D03*
X27100000Y-60250000D03*
%TO.N,F2*%
X22800000Y-58000000D03*
X30000000Y-70300000D03*
%TO.N,F3*%
X30000000Y-67500000D03*
X23675000Y-53525000D03*
%TD*%
D22*
%TO.N,GND*%
X22521088Y-59653692D02*
X24237564Y-57937216D01*
X22521088Y-62695637D02*
X22521088Y-59653692D01*
X24237564Y-57937216D02*
X24738267Y-57937216D01*
X22796915Y-62971464D02*
X22521088Y-62695637D01*
X22796915Y-62971464D02*
X24916615Y-62971464D01*
X24916615Y-62971464D02*
X25663134Y-62224945D01*
X18168248Y-58342797D02*
X22796915Y-62971464D01*
X18168248Y-56693293D02*
X18168248Y-58342797D01*
X18168248Y-56693293D02*
X18168248Y-55736704D01*
X18168248Y-55736704D02*
X19728945Y-54176007D01*
D23*
%TO.N,K5*%
X30096400Y-60159000D02*
X30066400Y-60189000D01*
X56566400Y-28039000D02*
X60566400Y-28039000D01*
X30168826Y-60129000D02*
X32026480Y-60129000D01*
X30096400Y-60159000D02*
G75*
G02*
X30168826Y-60129011I72400J-72400D01*
G01*
%TO.N,GND*%
X47041400Y-41644850D02*
X47041400Y-46254032D01*
X35952800Y-32453000D02*
X36876300Y-33376500D01*
X59936497Y-46675000D02*
X57263502Y-46675000D01*
X78140184Y-34250000D02*
X74992615Y-34250000D01*
X77381687Y-51750000D02*
X75818312Y-51750000D01*
X54866900Y-28619500D02*
X53986400Y-27739000D01*
X62230000Y-45725000D02*
X63108405Y-44846594D01*
X58638189Y-73750000D02*
X87180184Y-73750000D01*
X71209124Y-50000000D02*
X68892812Y-50000000D01*
X45112800Y-32453000D02*
X47192600Y-32453000D01*
X29469400Y-33756000D02*
X28166400Y-35059000D01*
X69977050Y-32439000D02*
X71901044Y-32439000D01*
X67714375Y-49511875D02*
X67226250Y-49023750D01*
X62450000Y-52975000D02*
X63465000Y-52975000D01*
X63085836Y-27799563D02*
X62265900Y-28619500D01*
X82410700Y-33753300D02*
X81146400Y-32489000D01*
X52150000Y-59204898D02*
X52150000Y-65171036D01*
X71986400Y-32489000D02*
X72036400Y-32539000D01*
X56992615Y-29500000D02*
X60140184Y-29500000D01*
X71986400Y-32489000D02*
X71961400Y-32464000D01*
X58551047Y-73698953D02*
X58576570Y-73724476D01*
X46453900Y-40226500D02*
X45866400Y-39639000D01*
X25169133Y-57506349D02*
X24738267Y-57937216D01*
X46093900Y-48541500D02*
X45146400Y-49489000D01*
X45566400Y-70189000D02*
X45559400Y-70182000D01*
X81180000Y-49525000D02*
X82427500Y-48277500D01*
X65197713Y-52257286D02*
X67655905Y-49799094D01*
X32075480Y-70224000D02*
X32026480Y-70273000D01*
X53986400Y-27739000D02*
X50743040Y-30982359D01*
X98415900Y-72919500D02*
X99346400Y-71989000D01*
X63251594Y-45049094D02*
X67655905Y-49453405D01*
X28166400Y-35059000D02*
X29258200Y-36150800D01*
X45542500Y-70175000D02*
X32193776Y-70175000D01*
X73132500Y-50637500D02*
X72257500Y-49762500D01*
X58487500Y-73698953D02*
X58551047Y-73698953D01*
X30350000Y-40491361D02*
X30350000Y-38786638D01*
X32026480Y-70289000D02*
X32475480Y-69840000D01*
X83675000Y-45265768D02*
X83675000Y-36805590D01*
X66632230Y-31053530D02*
X63378263Y-27799563D01*
X53743792Y-69018792D02*
X58379018Y-73654018D01*
X72036400Y-32539000D02*
X72866900Y-33369500D01*
X45112800Y-32453000D02*
X44189300Y-33376500D01*
X25600000Y-55800000D02*
X25600000Y-56466145D01*
X62450000Y-52975000D02*
X61725000Y-53700000D01*
X80265900Y-33369500D02*
X81146400Y-32489000D01*
X41959773Y-34300000D02*
X39105826Y-34300000D01*
X54970000Y-45725000D02*
X54020000Y-44775000D01*
X96169474Y-73850000D02*
X93363325Y-73850000D01*
X81180000Y-49525000D02*
X80067500Y-50637500D01*
X91116900Y-72919500D02*
X90186400Y-71989000D01*
X29258200Y-43127200D02*
X28166400Y-44219000D01*
X89305900Y-72869500D02*
X90186400Y-71989000D01*
X56929898Y-54425000D02*
X59974695Y-54425000D01*
X32615120Y-32453000D02*
X35952800Y-32453000D01*
X63108405Y-44846594D02*
G75*
G02*
X63180103Y-44876250I29695J-29706D01*
G01*
X74992615Y-34250000D02*
G75*
G02*
X72866896Y-33369504I-15J3006200D01*
G01*
X53743792Y-69018792D02*
G75*
G02*
X52149989Y-65171036I3847808J3847792D01*
G01*
X91116900Y-72919500D02*
G75*
G03*
X93363325Y-73849989I2246400J2246400D01*
G01*
X71782500Y-49762500D02*
G75*
G02*
X72257500Y-49762500I237500J-237499D01*
G01*
X58487500Y-73698953D02*
G75*
G02*
X58379010Y-73654026I0J153453D01*
G01*
X73132500Y-50637500D02*
G75*
G03*
X75818312Y-51749995I2685800J2685800D01*
G01*
X47192600Y-32453000D02*
G75*
G03*
X50743044Y-30982363I0J5021100D01*
G01*
X67727500Y-49626250D02*
G75*
G02*
X67655872Y-49799061I-244400J50D01*
G01*
X65197713Y-52257286D02*
G75*
G02*
X63465000Y-52975007I-1732713J1732686D01*
G01*
X82410700Y-33753300D02*
G75*
G02*
X83675004Y-36805590I-3052300J-3052300D01*
G01*
X67655905Y-49453405D02*
G75*
G02*
X67727547Y-49626250I-172805J-172895D01*
G01*
X58638189Y-73750000D02*
G75*
G02*
X58576584Y-73724462I11J87100D01*
G01*
X59936497Y-46675000D02*
G75*
G03*
X62230001Y-45725001I3J3243500D01*
G01*
X56992615Y-29500000D02*
G75*
G02*
X54866896Y-28619504I-15J3006200D01*
G01*
X71901044Y-32439000D02*
G75*
G02*
X71961387Y-32464013I-44J-85400D01*
G01*
X83675000Y-45265768D02*
G75*
G02*
X82427509Y-48277509I-4259200J-32D01*
G01*
X77381687Y-51750000D02*
G75*
G03*
X80067504Y-50637504I13J3798300D01*
G01*
X71782500Y-49762500D02*
G75*
G02*
X71209124Y-50000010I-573400J573400D01*
G01*
X96169474Y-73850000D02*
G75*
G03*
X98415908Y-72919508I26J3176900D01*
G01*
X53550000Y-55825000D02*
G75*
G02*
X56929898Y-54425000I3379900J-3379900D01*
G01*
X41959773Y-34300000D02*
G75*
G03*
X44189308Y-33376508I27J3153000D01*
G01*
X32193776Y-70175000D02*
G75*
G03*
X32075491Y-70224011I24J-167300D01*
G01*
X29469400Y-33756000D02*
G75*
G02*
X32615120Y-32453008I3145700J-3145700D01*
G01*
X89305900Y-72869500D02*
G75*
G02*
X87180184Y-73749994I-2125700J2125700D01*
G01*
X46093900Y-48541500D02*
G75*
G03*
X47041414Y-46254032I-2287500J2287500D01*
G01*
X78140184Y-34250000D02*
G75*
G03*
X80265904Y-33369504I16J3006200D01*
G01*
X63251594Y-45049094D02*
G75*
G02*
X63180024Y-44876250I172806J172794D01*
G01*
X63232050Y-27739000D02*
G75*
G03*
X63085807Y-27799534I-50J-206800D01*
G01*
X45542500Y-70175000D02*
G75*
G02*
X45559400Y-70182000I0J-23900D01*
G01*
X47041400Y-41644850D02*
G75*
G03*
X46453885Y-40226515I-2005900J-50D01*
G01*
X67714375Y-49511875D02*
G75*
G03*
X68892812Y-49999980I1178425J1178475D01*
G01*
X30350000Y-40491361D02*
G75*
G02*
X29258202Y-43127202I-3727650J1D01*
G01*
X60140184Y-29500000D02*
G75*
G03*
X62265904Y-28619504I16J3006200D01*
G01*
X39105826Y-34300000D02*
G75*
G02*
X36876292Y-33376508I-26J3153000D01*
G01*
X53550000Y-55825000D02*
G75*
G03*
X52150000Y-59204898I3379900J-3379900D01*
G01*
X30350000Y-38786638D02*
G75*
G03*
X29258200Y-36150800I-3727640J-2D01*
G01*
X25600000Y-56466145D02*
G75*
G02*
X25169117Y-57506333I-1471100J45D01*
G01*
X61725000Y-53700000D02*
G75*
G02*
X59974695Y-54424998I-1750300J1750300D01*
G01*
X54970000Y-45725000D02*
G75*
G03*
X57263502Y-46674999I2293500J2293500D01*
G01*
X66632230Y-31053530D02*
G75*
G03*
X69977050Y-32438962I3344770J3344830D01*
G01*
X63232050Y-27739000D02*
G75*
G02*
X63378293Y-27799533I50J-206800D01*
G01*
%TO.N,K6*%
X38532800Y-32753000D02*
X42532800Y-32753000D01*
X30100542Y-62669000D02*
X32026480Y-62669000D01*
X30076400Y-62679000D02*
X30066400Y-62689000D01*
X30076400Y-62679000D02*
G75*
G02*
X30100542Y-62669017I24100J-24100D01*
G01*
%TO.N,K7*%
X30100542Y-65209000D02*
X32026480Y-65209000D01*
X30076400Y-65199000D02*
X30066400Y-65189000D01*
X28466400Y-37639000D02*
X28466400Y-41639000D01*
X30076400Y-65199000D02*
G75*
G03*
X30100542Y-65208983I24100J24100D01*
G01*
%TO.N,K1*%
X74600000Y-49825000D02*
X78600000Y-49825000D01*
X51032257Y-62669000D02*
X49166400Y-62669000D01*
X51056400Y-62679000D02*
X51066400Y-62689000D01*
X51032257Y-62669000D02*
G75*
G02*
X51056412Y-62678988I43J-34100D01*
G01*
%TO.N,K0*%
X92766400Y-72289000D02*
X96766400Y-72289000D01*
X51056400Y-65199000D02*
X51066400Y-65189000D01*
X51032257Y-65209000D02*
X49166400Y-65209000D01*
X51032257Y-65209000D02*
G75*
G03*
X51056412Y-65199012I43J34100D01*
G01*
%TO.N,K2*%
X50963973Y-60129000D02*
X49166400Y-60129000D01*
X51036400Y-60159000D02*
X51066400Y-60189000D01*
X56600000Y-45075000D02*
X60600000Y-45075000D01*
X50963973Y-60129000D02*
G75*
G02*
X51036408Y-60158992I27J-102400D01*
G01*
%TO.N,K3*%
X38566400Y-49789000D02*
X42566400Y-49789000D01*
X51066400Y-57689000D02*
X51016400Y-57639000D01*
X50895689Y-57589000D02*
X49166400Y-57589000D01*
X51016400Y-57639000D02*
G75*
G03*
X50895689Y-57589004I-120700J-120700D01*
G01*
%TO.N,K4*%
X74566400Y-32789000D02*
X78566400Y-32789000D01*
X30066400Y-57689000D02*
X30116400Y-57639000D01*
X30237110Y-57589000D02*
X32026480Y-57589000D01*
X30116400Y-57639000D02*
G75*
G02*
X30237110Y-57589004I120700J-120700D01*
G01*
D22*
%TO.N,Bat+*%
X60215650Y-52989000D02*
X60251201Y-52989000D01*
D23*
X32675000Y-38025000D02*
X32609924Y-38090075D01*
X16000000Y-43585786D02*
X16000000Y-34707106D01*
X36417031Y-36475000D02*
X44589034Y-36475000D01*
X25646036Y-47000000D02*
X19414213Y-47000000D01*
D22*
X59952700Y-52989000D02*
X60144549Y-52989000D01*
X60566676Y-52858325D02*
X62450000Y-50975002D01*
D23*
X29640075Y-45259923D02*
X29493792Y-45406207D01*
D22*
X60215650Y-52989000D02*
X60144549Y-52989000D01*
D23*
X48150000Y-37950000D02*
X48440596Y-38240596D01*
X17707106Y-33000000D02*
X22240380Y-33000000D01*
X23350000Y-32350000D02*
X23350000Y-30755000D01*
X50809403Y-43959403D02*
X59758601Y-52908601D01*
X23350000Y-32350000D02*
X23025000Y-32675000D01*
X44589034Y-36475000D02*
G75*
G02*
X48149990Y-37950010I-34J-5036000D01*
G01*
X17000000Y-46000000D02*
G75*
G03*
X19414213Y-46999994I2414200J2414200D01*
G01*
X17000000Y-46000000D02*
G75*
G02*
X16000006Y-43585786I2414200J2414200D01*
G01*
X31125000Y-41675000D02*
G75*
G02*
X32609935Y-38090086I5069800J0D01*
G01*
X22240380Y-33000000D02*
G75*
G03*
X23025006Y-32675006I20J1109600D01*
G01*
D22*
X60251201Y-52989000D02*
G75*
G03*
X60566687Y-52858336I-1J446200D01*
G01*
D23*
X31125000Y-41675000D02*
G75*
G02*
X29640087Y-45259935I-5069900J0D01*
G01*
X36417031Y-36475000D02*
G75*
G03*
X32674991Y-38024991I-31J-5292000D01*
G01*
X16500000Y-33500000D02*
G75*
G03*
X16000003Y-34707106I1207100J-1207100D01*
G01*
X49625000Y-41100000D02*
G75*
G03*
X48440594Y-38240598I-4043800J0D01*
G01*
X17707106Y-33000000D02*
G75*
G03*
X16499998Y-33499998I-6J-1707100D01*
G01*
X59952700Y-52989000D02*
G75*
G02*
X59758600Y-52908602I0J274500D01*
G01*
X50809403Y-43959403D02*
G75*
G02*
X49624998Y-41100000I2859397J2859403D01*
G01*
X25646036Y-47000000D02*
G75*
G03*
X29493785Y-45406200I-36J5441600D01*
G01*
%TO.N,RAW*%
X26643792Y-49043792D02*
X32981207Y-55381207D01*
X20652286Y-29597712D02*
X20911611Y-29338388D01*
X35348200Y-64390840D02*
X36121400Y-65164040D01*
X20349999Y-30327500D02*
X20349999Y-30441250D01*
X48013083Y-38513083D02*
X47800000Y-38300000D01*
X54097947Y-47884343D02*
X50336916Y-44123312D01*
X20208577Y-31296421D02*
X19652499Y-31852500D01*
X20349999Y-30955000D02*
X20349999Y-30668750D01*
X20349999Y-30441250D02*
X20349999Y-30668750D01*
X17968585Y-32550000D02*
X17641205Y-32550000D01*
X51226735Y-54175000D02*
X51663678Y-54175000D01*
X45720720Y-64826720D02*
X45041440Y-65506000D01*
X46400000Y-63186793D02*
X46400000Y-59168287D01*
X30067587Y-45532411D02*
X29743792Y-45856207D01*
X47980269Y-55519730D02*
X47862500Y-55637500D01*
X19414213Y-47450000D02*
X22796036Y-47450000D01*
X15550000Y-43585786D02*
X15550000Y-34641205D01*
X31575000Y-41767030D02*
X31575000Y-41893198D01*
X55200000Y-50544933D02*
X55200000Y-50638678D01*
X34575000Y-59228963D02*
X34575000Y-62524170D01*
X18985176Y-47450000D02*
X25896036Y-47450000D01*
X36417030Y-36925000D02*
X44480456Y-36925000D01*
X21000000Y-29000000D02*
X21000000Y-29125000D01*
X49175000Y-41318198D02*
G75*
G03*
X48013076Y-38513090I-3967000J-2D01*
G01*
X36417030Y-36925000D02*
G75*
G03*
X32993189Y-38343189I-30J-4842000D01*
G01*
X47980269Y-55519730D02*
G75*
G02*
X51226735Y-54175026I3246431J-3246470D01*
G01*
X15550000Y-43585786D02*
G75*
G03*
X16681798Y-46318202I3864200J-14D01*
G01*
X26643792Y-49043792D02*
G75*
G03*
X22796036Y-47450003I-3847752J-3847758D01*
G01*
X25896036Y-47450000D02*
G75*
G03*
X29743785Y-45856200I-36J5441600D01*
G01*
X18985176Y-47450000D02*
G75*
G02*
X16681801Y-46318199I245984J3410360D01*
G01*
X17968585Y-32550000D02*
G75*
G03*
X19652504Y-31852505I15J2381400D01*
G01*
X55200000Y-50638678D02*
G75*
G02*
X54164242Y-53139242I-3536300J-22D01*
G01*
X47862500Y-55637500D02*
G75*
G03*
X46399995Y-59168287I3530800J-3530800D01*
G01*
X50336916Y-44123312D02*
G75*
G02*
X49174992Y-41318198I2805084J2805112D01*
G01*
X31575000Y-41767030D02*
G75*
G02*
X32993200Y-38343200I4842020J0D01*
G01*
X20911611Y-29338388D02*
G75*
G03*
X20999992Y-29125000I-213411J213388D01*
G01*
X17641205Y-32550000D02*
G75*
G03*
X16162498Y-33162498I-5J-2091200D01*
G01*
X20652286Y-29597712D02*
G75*
G03*
X20350006Y-30327500I729814J-729788D01*
G01*
X18985176Y-47450000D02*
X19414213Y-47450000D01*
X16162500Y-33162500D02*
G75*
G03*
X15550002Y-34641205I1478700J-1478700D01*
G01*
X51663678Y-54175000D02*
G75*
G03*
X54164242Y-53139242I22J3536300D01*
G01*
X46400000Y-63186793D02*
G75*
G02*
X45720722Y-64826722I-2319200J-7D01*
G01*
X54097947Y-47884343D02*
G75*
G02*
X55199989Y-50544933I-2660547J-2660557D01*
G01*
X35348200Y-64390840D02*
G75*
G02*
X34575030Y-62524170I1866700J1866640D01*
G01*
X30067587Y-45532411D02*
G75*
G03*
X31575005Y-41893198I-3639187J3639211D01*
G01*
X20349999Y-30955000D02*
G75*
G02*
X20208589Y-31296433I-482899J0D01*
G01*
X32981207Y-55381207D02*
G75*
G02*
X34575011Y-59228963I-3847807J-3847793D01*
G01*
X19414213Y-47450000D02*
G75*
G02*
X16681798Y-46318202I-13J3864200D01*
G01*
X47800000Y-38300000D02*
G75*
G03*
X44480456Y-36925018I-3319500J-3319500D01*
G01*
%TO.N,F1*%
X26461259Y-60083158D02*
X25925105Y-59547004D01*
X30000000Y-72800000D02*
X30000000Y-72837500D01*
X47953650Y-74041750D02*
X49166400Y-72829000D01*
X30026516Y-72901516D02*
X31189750Y-74064750D01*
X45025812Y-75254500D02*
X34062060Y-75254500D01*
X27100000Y-60250000D02*
X26864050Y-60250000D01*
X31189750Y-74064750D02*
G75*
G03*
X34062060Y-75254516I2872350J2872350D01*
G01*
X26864050Y-60250000D02*
G75*
G02*
X26461290Y-60083127I50J569600D01*
G01*
X30026516Y-72901516D02*
G75*
G02*
X29999990Y-72837500I63984J64016D01*
G01*
X47953650Y-74041750D02*
G75*
G02*
X45025812Y-75254505I-2927850J2927850D01*
G01*
%TO.N,F2*%
X22800000Y-58000000D02*
X22800000Y-57539429D01*
X30680000Y-70930000D02*
X30067677Y-70317677D01*
X23125672Y-56753185D02*
X23551429Y-56327429D01*
X47500987Y-70724012D02*
X45014292Y-73210707D01*
X48551200Y-70289000D02*
X49166400Y-70289000D01*
X39958463Y-74804500D02*
X41166536Y-74804500D01*
X35573693Y-72673693D02*
X36110707Y-73210707D01*
X32200954Y-71560000D02*
X32885000Y-71560000D01*
X30000000Y-70300000D02*
X30025000Y-70300000D01*
X23125672Y-56753185D02*
G75*
G03*
X22800015Y-57539429I786228J-786215D01*
G01*
X35573693Y-72673693D02*
G75*
G03*
X32885000Y-71560004I-2688693J-2688707D01*
G01*
X30025000Y-70300000D02*
G75*
G02*
X30067686Y-70317668I0J-60400D01*
G01*
X47500987Y-70724012D02*
G75*
G02*
X48551200Y-70288992I1050213J-1050188D01*
G01*
X39958463Y-74804500D02*
G75*
G02*
X36110715Y-73210699I37J5441600D01*
G01*
X30680000Y-70930000D02*
G75*
G03*
X32200954Y-71560019I1521000J1521000D01*
G01*
X41166536Y-74804500D02*
G75*
G03*
X45014285Y-73210700I-36J5441600D01*
G01*
%TO.N,F3*%
X28150000Y-59103963D02*
X28150000Y-64341852D01*
X23675000Y-53525000D02*
X24250000Y-53525000D01*
X23675000Y-53525000D02*
X22523996Y-54676003D01*
X30000000Y-67500000D02*
X30000000Y-67512500D01*
X48668700Y-67749000D02*
X49166400Y-67749000D01*
X25231586Y-53931586D02*
X26556207Y-55256207D01*
X22423475Y-54717641D02*
X22364591Y-54717641D01*
X47345500Y-68574500D02*
X47819072Y-68100927D01*
X30008838Y-67533838D02*
X30761500Y-68286500D01*
X32599923Y-69048000D02*
X33674098Y-69048000D01*
X30000000Y-67500000D02*
X29075000Y-66575000D01*
X45352566Y-69400000D02*
X34523901Y-69400000D01*
X29075000Y-66575000D02*
G75*
G02*
X28150020Y-64341852I2233100J2233100D01*
G01*
X34099000Y-69224000D02*
G75*
G03*
X33674098Y-69048001I-424900J-424900D01*
G01*
X34099000Y-69224000D02*
G75*
G03*
X34523901Y-69399999I424900J424900D01*
G01*
X47345500Y-68574500D02*
G75*
G02*
X45352566Y-69399986I-1992900J1992900D01*
G01*
X28150000Y-59103963D02*
G75*
G03*
X26556204Y-55256210I-5441550J-7D01*
G01*
X32599923Y-69048000D02*
G75*
G02*
X30761493Y-68286507I-23J2599900D01*
G01*
X30008838Y-67533838D02*
G75*
G02*
X30000007Y-67512500I21362J21338D01*
G01*
X25231586Y-53931586D02*
G75*
G03*
X24250000Y-53525008I-981586J-981614D01*
G01*
X22523996Y-54676003D02*
G75*
G02*
X22423475Y-54717628I-100496J100503D01*
G01*
X48668700Y-67749000D02*
G75*
G03*
X47819084Y-68100939I0J-1201500D01*
G01*
%TD*%
M02*
