M48
; DRILL file {KiCad 8.0.2} date 2024-07-15T13:11:37-0500
; FORMAT={-:-/ absolute / inch / decimal}
; #@! TF.CreationDate,2024-07-15T13:11:37-05:00
; #@! TF.GenerationSoftware,Kicad,Pcbnew,8.0.2
; #@! TF.FileFunction,Plated,1,2,PTH
FMAT,2
INCH
; #@! TA.AperFunction,Plated,PTH,ViaDrill
T1C0.0157
; #@! TA.AperFunction,Plated,PTH,ComponentDrill
T2C0.0295
; #@! TA.AperFunction,Plated,PTH,ComponentDrill
T3C0.0400
; #@! TA.AperFunction,Plated,PTH,ComponentDrill
T4C0.0433
; #@! TA.AperFunction,Plated,PTH,ComponentDrill
T5C0.0866
%
G90
G05
T1
X0.8268Y-1.1417
X0.8976Y-2.2835
X0.9193Y-1.2736
X0.9321Y-2.1073
X1.0079Y-2.1969
X1.0669Y-2.372
X1.1811Y-2.6575
X1.1811Y-2.7677
X1.1811Y-2.8661
X1.1837Y-2.2712
X1.1837Y-2.3696
X1.1837Y-2.4681
X1.1837Y-2.5665
X1.794Y-2.7633
X2.0105Y-2.2712
X2.0105Y-2.3696
X2.0105Y-2.4681
X2.0105Y-2.5665
X2.3052Y-2.9015
T2
X2.3648Y-2.0074
X2.3648Y-2.0862
X2.4587Y-2.0069
X2.4587Y-2.0856
T3
X1.4233Y-2.5791
X1.4233Y-2.6541
X1.5471Y-2.804
X1.5471Y-2.904
X1.6471Y-2.804
X1.6471Y-2.904
X1.7733Y-2.5791
X1.7733Y-2.6541
T4
X0.7211Y-1.3519
X0.7211Y-1.7693
X1.1089Y-1.3803
X1.1089Y-1.7409
X1.1207Y-1.4819
X1.1207Y-1.6393
X1.3871Y-0.8899
X1.3884Y-1.5606
X1.4155Y-1.2777
X1.4168Y-1.9484
X1.517Y-1.2895
X1.5184Y-1.9602
X1.6745Y-1.2895
X1.6758Y-1.9602
X1.7761Y-1.2777
X1.7774Y-1.9484
X1.8044Y-0.8899
X1.8058Y-1.5606
X2.0971Y-0.7043
X2.0984Y-1.375
X2.1254Y-1.0921
X2.1268Y-1.7628
X2.227Y-1.1039
X2.2283Y-1.7746
X2.3845Y-1.1039
X2.3858Y-1.7746
X2.4861Y-1.0921
X2.4874Y-1.7628
X2.5144Y-0.7043
X2.5157Y-1.375
X2.8058Y-0.8913
X2.8071Y-1.562
X2.8341Y-1.2791
X2.8354Y-1.9498
X2.9357Y-1.2909
X2.937Y-1.9616
X3.0932Y-1.2909
X3.0945Y-1.9616
X3.1947Y-1.2791
X3.1961Y-1.9498
X3.2231Y-0.8913
X3.2244Y-1.562
X3.5223Y-2.4464
X3.5506Y-2.8342
X3.6522Y-2.846
X3.8097Y-2.846
X3.9113Y-2.8342
X3.9396Y-2.4464
T5
X0.6811Y-2.0197
X1.1594Y-1.1378
X2.0059Y-2.0098
X2.0984Y-2.8484
X2.7441Y-0.7106
X3.3661Y-2.4941
M30
