%TF.GenerationSoftware,KiCad,Pcbnew,8.0.2*%
%TF.CreationDate,2024-07-15T13:11:32-05:00*%
%TF.ProjectId,bonsai,626f6e73-6169-42e6-9b69-6361645f7063,v1*%
%TF.SameCoordinates,Original*%
%TF.FileFunction,Profile,NP*%
%FSLAX46Y46*%
G04 Gerber Fmt 4.6, Leading zero omitted, Abs format (unit mm)*
G04 Created by KiCad (PCBNEW 8.0.2) date 2024-07-15 13:11:32*
%MOMM*%
%LPD*%
G01*
G04 APERTURE LIST*
%TA.AperFunction,Profile*%
%ADD10C,0.150000*%
%TD*%
%TA.AperFunction,Profile*%
%ADD11C,0.050000*%
%TD*%
%TA.AperFunction,Profile*%
%ADD12C,0.120000*%
%TD*%
G04 APERTURE END LIST*
D10*
X13575000Y-53050000D02*
X13566400Y-52950000D01*
X102583601Y-58133601D02*
G75*
G02*
X104049999Y-59600000I-1J-1466399D01*
G01*
X13566400Y-52950000D02*
X13566400Y-28189000D01*
X31341848Y-19159238D02*
G75*
G02*
X24750000Y-27200000I-8199998J-2D01*
G01*
X13600000Y-53200000D02*
X13575000Y-53050000D01*
X86029499Y-51963099D02*
G75*
G02*
X84563099Y-53429499I-1466399J-1D01*
G01*
X84853758Y-18540358D02*
G75*
G02*
X86029139Y-19756374I-603758J-1759642D01*
G01*
X61266800Y-55925000D02*
X55750000Y-55925000D01*
X81566400Y-61389000D02*
X55750000Y-61475000D01*
X31341848Y-19159238D02*
X31375000Y-19100000D01*
X55750000Y-61475000D02*
G75*
G02*
X55750000Y-55925000I0J2775000D01*
G01*
X30150000Y-75600000D02*
X29969684Y-75422367D01*
X30250000Y-75650000D02*
X30150000Y-75600000D01*
X104050000Y-59600000D02*
X104029499Y-74213099D01*
X61266800Y-55925000D02*
X84563099Y-53429499D01*
X31450000Y-19050000D02*
X32750000Y-18500000D01*
X24174552Y-27229762D02*
X24750000Y-27200000D01*
X31375000Y-19100000D02*
X31450000Y-19050000D01*
X13566400Y-28189000D02*
G75*
G02*
X14566400Y-27189000I1000000J0D01*
G01*
X32750000Y-18500000D02*
G75*
G02*
X84853758Y-18540357I26000000J-67000000D01*
G01*
X13690405Y-53357079D02*
X13600000Y-53200000D01*
X104029499Y-74213099D02*
G75*
G02*
X102563099Y-75679499I-1466399J-1D01*
G01*
X30399999Y-75688969D02*
X30250000Y-75650000D01*
X102563099Y-75679499D02*
X30399999Y-75688969D01*
X85412179Y-59473559D02*
G75*
G02*
X86850086Y-58152585I1487821J-176441D01*
G01*
X85412178Y-59473559D02*
G75*
G02*
X83067799Y-61281507I-2551478J884559D01*
G01*
X87150000Y-58133601D02*
X102583601Y-58133601D01*
X86029139Y-19756374D02*
X86029499Y-51963099D01*
X86850086Y-58152585D02*
X87150000Y-58133601D01*
X81566400Y-61389000D02*
X83067799Y-61281508D01*
X13690405Y-53357079D02*
X29969684Y-75422367D01*
X14566400Y-27189000D02*
X24174552Y-27229762D01*
D11*
%TO.C,U?*%
X35346442Y-54943000D02*
X36583240Y-65256000D01*
D12*
X35897440Y-66983200D02*
X35897440Y-65941800D01*
D11*
X44609639Y-65256001D02*
X45846438Y-54943000D01*
D12*
X45295440Y-65941800D02*
X45295440Y-66983200D01*
D11*
X35346442Y-54943000D02*
G75*
G02*
X35596441Y-54193001I1249998J0D01*
G01*
X35596441Y-54193001D02*
G75*
G02*
X45596439Y-54193001I4999999J-5000000D01*
G01*
D12*
X35897440Y-66983200D02*
G75*
G02*
X36583240Y-67669000I247750J-438050D01*
G01*
X36583240Y-65256000D02*
G75*
G02*
X35897440Y-65941800I-438050J-247750D01*
G01*
D11*
X44609640Y-67669000D02*
G75*
G02*
X36583240Y-67669000I-4013200J6726002D01*
G01*
D12*
X44609640Y-67669000D02*
G75*
G02*
X45295440Y-66983200I438047J247753D01*
G01*
X45295440Y-65941800D02*
G75*
G02*
X44609640Y-65256000I-247753J438047D01*
G01*
D11*
X45596439Y-54193001D02*
G75*
G02*
X45846438Y-54943000I-999992J-749996D01*
G01*
D12*
X39042400Y-73329200D02*
X39042400Y-71652800D01*
X41404600Y-70967000D02*
X39728200Y-70967000D01*
X41404600Y-74015000D02*
X39728200Y-74015000D01*
X42090400Y-73329200D02*
X42090400Y-71652800D01*
X39042400Y-73329200D02*
G75*
G02*
X39728200Y-74015000I247753J-438047D01*
G01*
X39728200Y-70967000D02*
G75*
G02*
X39042400Y-71652800I-438047J-247753D01*
G01*
X41404600Y-74015000D02*
G75*
G02*
X42090400Y-73329200I438050J247750D01*
G01*
X42090400Y-71652800D02*
G75*
G02*
X41404600Y-70967000I-247750J438050D01*
G01*
%TD*%
M02*
