<?xml version="1.0" encoding="iso-8859-1"?>
<!-- Uploaded to: SVG Repo, www.svgrepo.com, Generator: SVG Repo Mixer Tools -->
<!DOCTYPE svg PUBLIC "-//W3C//DTD SVG 1.1//EN" "http://www.w3.org/Graphics/SVG/1.1/DTD/svg11.dtd">
<svg fill="#000000" version="1.1" id="Capa_1" xmlns="http://www.w3.org/2000/svg" xmlns:xlink="http://www.w3.org/1999/xlink" 
	 width="800px" height="800px" viewBox="0 0 191.856 191.856"
	 xml:space="preserve">
<g>
	<path d="M177.659,0.209c-23.004-2.015-40.718,10.792-55.897,27.008c-10.661-5.84-22.365-9.026-33.375-8.275
		c-33.296,2.271-53.594,38.831-64.608,65.91c-11.605,28.533-21.728,70.557-7.676,100.471c-0.213,0.547-0.439,1.089-0.645,1.638
		c-0.8,2.127,1.434,3.684,3.275,3.363c0.048,0.082,0.083,0.17,0.132,0.252c1.567,2.608,5.671,0.89,4.89-2.062
		c-0.269-1.016-0.506-2.078-0.748-3.13c1.656,0.459,3.542,0.147,5.2-1.4c37.683-35.188,111.854-33.279,129.011-88.767
		c5.31-17.175-0.695-34.799-12.206-48.792c6.508-5.47,12.967-10.996,19.265-16.714c6.05-5.493,18.919-15.041,18.301-24.586
		C182.391,2.268,180.468,0.455,177.659,0.209z M20.75,172.079C14.982,122.237,33.476,48.362,80.533,30.596
		c12.033-4.543,23.78-1.422,34.271,4.448c-4.081,4.801-7.956,9.679-11.764,14.481c-1.85-0.211-3.694-0.349-5.458-0.495
		c-4.987-0.415-9.997-0.46-14.992-0.739c-2.186-0.122-8.527-1.524-8.07-0.378c-0.693-1.735-3.474-2.18-3.974,0
		c-0.043,0.188-0.011,0.344-0.038,0.525c-0.324-0.058-0.652-0.127-0.975-0.183c-3.763-0.645-5.345,4.608-1.596,5.788
		c4.03,1.27,8.139,2.195,12.266,3.047c0.939,0.225,1.906,0.425,2.902,0.6c3.817,0.762,7.64,1.5,11.428,2.401
		c-0.559,0.677-1.125,1.393-1.681,2.055c-4.293,5.106-8.499,10.324-12.66,15.59c-0.778-0.376-1.589-0.702-2.441-0.964
		c-6.182-1.896-13.855-0.012-20.047,0.958c-5.465,0.854-12.344,0.872-17.415,3.179c-0.419,0.19-0.703,0.598-0.888,1.053
		c-0.683,0.134-1.376,0.25-2.051,0.396c-2.928,0.629-2.256,5.279,0.702,5.185c2.601-0.084,5.184-0.211,7.759-0.342
		c3.755,0.59,8.325,0.107,12.447-0.492c4.813-0.083,9.622,0.026,14.465,0.608C68.3,93.135,64.036,99.084,59.85,105.09
		c-5.187-1.49-11.113,0.603-15.895,2.453c-2.125,0.823-5.899,1.847-8.601,3.542c-0.832,0.276-1.673,0.493-2.501,0.804
		c-1.995,0.749-1.924,3.237-0.565,4.111c1.039,4.9,16.405-0.591,21.565-2.084c-6.053,9.069-11.858,18.298-17.168,27.794
		C30.317,151.539,24.918,161.709,20.75,172.079z M137.301,111.004c-15.144,19.188-41.592,24.719-63.375,32.769
		c-13.565,5.012-26.856,11.128-38.613,19.437c7.318-14.033,16.797-27.444,27.423-40.115c1.811,6.561,3.08,14.442,6.862,16.581
		c0.865,0.489,1.748,0.561,2.558,0.385c1.145,0.846,3.224,0.271,3.097-1.462c-0.042-0.578-0.137-1.154-0.192-1.732
		c0.056-0.437,0.061-0.887-0.045-1.355c-0.066-0.291-0.138-0.621-0.208-0.936c-0.832-6.794-2.429-13.567-4.522-20.111
		c4.593-5.096,9.362-10.019,14.191-14.848c1.969,5.985,3.154,12.499,6.822,17.612c2.735,3.814,9.58,1.661,7.997-3.37
		c-1.037-3.301-2.072-7.238-3.302-11.304c-0.626-4.053-1.447-8.094-2.098-12.154c7.395-6.959,14.87-13.545,22.218-19.801
		c4.965,12.608,1.807,32.294,10.119,41.177c2.605,2.782,7.971,0.746,7.715-3.196c-0.541-8.356-3.373-17.336-4.896-25.645
		c-1.171-6.39-2.873-12.702-5.751-18.417c4.543-3.794,9.097-7.573,13.649-11.354C150.519,70.151,152.036,92.333,137.301,111.004z
		 M141.266,36.898c-0.958,0.809-1.928,1.603-2.892,2.405c-0.092-0.087-0.182-0.175-0.273-0.261c0.735-0.686,1.472-1.369,2.204-2.058
		c2.535-1.898,5.001-3.782,7.362-5.666c0.06,0.17,0.131,0.332,0.204,0.495C145.03,33.956,142.646,35.732,141.266,36.898z"/>
</g>
</svg>