%TF.GenerationSoftware,KiCad,Pcbnew,8.0.2*%
%TF.CreationDate,2024-07-05T21:54:23-05:00*%
%TF.ProjectId,bonsai,626f6e73-6169-42e6-9b69-6361645f7063,v1*%
%TF.SameCoordinates,Original*%
%TF.FileFunction,Legend,Top*%
%TF.FilePolarity,Positive*%
%FSLAX46Y46*%
G04 Gerber Fmt 4.6, Leading zero omitted, Abs format (unit mm)*
G04 Created by KiCad (PCBNEW 8.0.2) date 2024-07-05 21:54:23*
%MOMM*%
%LPD*%
G01*
G04 APERTURE LIST*
%ADD10C,0.250000*%
%ADD11C,0.100000*%
%ADD12C,0.125000*%
%ADD13C,0.150000*%
%ADD14C,0.000000*%
G04 APERTURE END LIST*
D10*
X64447431Y-51008666D02*
X63685527Y-51008666D01*
X64066479Y-51389619D02*
X64066479Y-50627714D01*
X64083666Y-52602568D02*
X64083666Y-53364473D01*
D11*
X25978884Y-28730752D02*
X26740789Y-29016466D01*
X26740789Y-29016466D02*
X25978884Y-29302180D01*
D12*
X40201283Y-49932309D02*
X40201283Y-49432309D01*
X40486997Y-49932309D02*
X40272712Y-49646595D01*
X40486997Y-49432309D02*
X40201283Y-49718023D01*
X40653664Y-49432309D02*
X40963188Y-49432309D01*
X40963188Y-49432309D02*
X40796521Y-49622785D01*
X40796521Y-49622785D02*
X40867950Y-49622785D01*
X40867950Y-49622785D02*
X40915569Y-49646595D01*
X40915569Y-49646595D02*
X40939378Y-49670404D01*
X40939378Y-49670404D02*
X40963188Y-49718023D01*
X40963188Y-49718023D02*
X40963188Y-49837071D01*
X40963188Y-49837071D02*
X40939378Y-49884690D01*
X40939378Y-49884690D02*
X40915569Y-49908500D01*
X40915569Y-49908500D02*
X40867950Y-49932309D01*
X40867950Y-49932309D02*
X40725093Y-49932309D01*
X40725093Y-49932309D02*
X40677474Y-49908500D01*
X40677474Y-49908500D02*
X40653664Y-49884690D01*
D10*
X58697431Y-52983666D02*
X57935527Y-52983666D01*
X58316479Y-53364619D02*
X58316479Y-52602714D01*
X58333666Y-50652568D02*
X58333666Y-51414473D01*
D12*
X94401283Y-72532309D02*
X94401283Y-72032309D01*
X94686997Y-72532309D02*
X94472712Y-72246595D01*
X94686997Y-72032309D02*
X94401283Y-72318023D01*
X94996521Y-72032309D02*
X95044140Y-72032309D01*
X95044140Y-72032309D02*
X95091759Y-72056119D01*
X95091759Y-72056119D02*
X95115569Y-72079928D01*
X95115569Y-72079928D02*
X95139378Y-72127547D01*
X95139378Y-72127547D02*
X95163188Y-72222785D01*
X95163188Y-72222785D02*
X95163188Y-72341833D01*
X95163188Y-72341833D02*
X95139378Y-72437071D01*
X95139378Y-72437071D02*
X95115569Y-72484690D01*
X95115569Y-72484690D02*
X95091759Y-72508500D01*
X95091759Y-72508500D02*
X95044140Y-72532309D01*
X95044140Y-72532309D02*
X94996521Y-72532309D01*
X94996521Y-72532309D02*
X94948902Y-72508500D01*
X94948902Y-72508500D02*
X94925093Y-72484690D01*
X94925093Y-72484690D02*
X94901283Y-72437071D01*
X94901283Y-72437071D02*
X94877474Y-72341833D01*
X94877474Y-72341833D02*
X94877474Y-72222785D01*
X94877474Y-72222785D02*
X94901283Y-72127547D01*
X94901283Y-72127547D02*
X94925093Y-72079928D01*
X94925093Y-72079928D02*
X94948902Y-72056119D01*
X94948902Y-72056119D02*
X94996521Y-72032309D01*
X76301283Y-50032309D02*
X76301283Y-49532309D01*
X76586997Y-50032309D02*
X76372712Y-49746595D01*
X76586997Y-49532309D02*
X76301283Y-49818023D01*
X77063188Y-50032309D02*
X76777474Y-50032309D01*
X76920331Y-50032309D02*
X76920331Y-49532309D01*
X76920331Y-49532309D02*
X76872712Y-49603738D01*
X76872712Y-49603738D02*
X76825093Y-49651357D01*
X76825093Y-49651357D02*
X76777474Y-49675166D01*
D13*
X38505952Y-35586065D02*
X38648809Y-35633684D01*
X38648809Y-35633684D02*
X38696428Y-35681303D01*
X38696428Y-35681303D02*
X38744047Y-35776541D01*
X38744047Y-35776541D02*
X38744047Y-35919398D01*
X38744047Y-35919398D02*
X38696428Y-36014636D01*
X38696428Y-36014636D02*
X38648809Y-36062256D01*
X38648809Y-36062256D02*
X38553571Y-36109875D01*
X38553571Y-36109875D02*
X38172619Y-36109875D01*
X38172619Y-36109875D02*
X38172619Y-35109875D01*
X38172619Y-35109875D02*
X38505952Y-35109875D01*
X38505952Y-35109875D02*
X38601190Y-35157494D01*
X38601190Y-35157494D02*
X38648809Y-35205113D01*
X38648809Y-35205113D02*
X38696428Y-35300351D01*
X38696428Y-35300351D02*
X38696428Y-35395589D01*
X38696428Y-35395589D02*
X38648809Y-35490827D01*
X38648809Y-35490827D02*
X38601190Y-35538446D01*
X38601190Y-35538446D02*
X38505952Y-35586065D01*
X38505952Y-35586065D02*
X38172619Y-35586065D01*
X39363095Y-35109875D02*
X39553571Y-35109875D01*
X39553571Y-35109875D02*
X39648809Y-35157494D01*
X39648809Y-35157494D02*
X39744047Y-35252732D01*
X39744047Y-35252732D02*
X39791666Y-35443208D01*
X39791666Y-35443208D02*
X39791666Y-35776541D01*
X39791666Y-35776541D02*
X39744047Y-35967017D01*
X39744047Y-35967017D02*
X39648809Y-36062256D01*
X39648809Y-36062256D02*
X39553571Y-36109875D01*
X39553571Y-36109875D02*
X39363095Y-36109875D01*
X39363095Y-36109875D02*
X39267857Y-36062256D01*
X39267857Y-36062256D02*
X39172619Y-35967017D01*
X39172619Y-35967017D02*
X39125000Y-35776541D01*
X39125000Y-35776541D02*
X39125000Y-35443208D01*
X39125000Y-35443208D02*
X39172619Y-35252732D01*
X39172619Y-35252732D02*
X39267857Y-35157494D01*
X39267857Y-35157494D02*
X39363095Y-35109875D01*
X40220238Y-36109875D02*
X40220238Y-35109875D01*
X40220238Y-35109875D02*
X40791666Y-36109875D01*
X40791666Y-36109875D02*
X40791666Y-35109875D01*
X41220238Y-36062256D02*
X41363095Y-36109875D01*
X41363095Y-36109875D02*
X41601190Y-36109875D01*
X41601190Y-36109875D02*
X41696428Y-36062256D01*
X41696428Y-36062256D02*
X41744047Y-36014636D01*
X41744047Y-36014636D02*
X41791666Y-35919398D01*
X41791666Y-35919398D02*
X41791666Y-35824160D01*
X41791666Y-35824160D02*
X41744047Y-35728922D01*
X41744047Y-35728922D02*
X41696428Y-35681303D01*
X41696428Y-35681303D02*
X41601190Y-35633684D01*
X41601190Y-35633684D02*
X41410714Y-35586065D01*
X41410714Y-35586065D02*
X41315476Y-35538446D01*
X41315476Y-35538446D02*
X41267857Y-35490827D01*
X41267857Y-35490827D02*
X41220238Y-35395589D01*
X41220238Y-35395589D02*
X41220238Y-35300351D01*
X41220238Y-35300351D02*
X41267857Y-35205113D01*
X41267857Y-35205113D02*
X41315476Y-35157494D01*
X41315476Y-35157494D02*
X41410714Y-35109875D01*
X41410714Y-35109875D02*
X41648809Y-35109875D01*
X41648809Y-35109875D02*
X41791666Y-35157494D01*
X42172619Y-35824160D02*
X42648809Y-35824160D01*
X42077381Y-36109875D02*
X42410714Y-35109875D01*
X42410714Y-35109875D02*
X42744047Y-36109875D01*
X43077381Y-36109875D02*
X43077381Y-35109875D01*
X37315475Y-37243628D02*
X37267856Y-37196009D01*
X37267856Y-37196009D02*
X37172618Y-37148390D01*
X37172618Y-37148390D02*
X37077380Y-37148390D01*
X37077380Y-37148390D02*
X36982142Y-37196009D01*
X36982142Y-37196009D02*
X36934523Y-37243628D01*
X36934523Y-37243628D02*
X36886904Y-37338866D01*
X36886904Y-37338866D02*
X36886904Y-37434104D01*
X36886904Y-37434104D02*
X36934523Y-37529342D01*
X36934523Y-37529342D02*
X36982142Y-37576961D01*
X36982142Y-37576961D02*
X37077380Y-37624580D01*
X37077380Y-37624580D02*
X37172618Y-37624580D01*
X37172618Y-37624580D02*
X37267856Y-37576961D01*
X37267856Y-37576961D02*
X37315475Y-37529342D01*
X37315475Y-37148390D02*
X37315475Y-37529342D01*
X37315475Y-37529342D02*
X37363094Y-37576961D01*
X37363094Y-37576961D02*
X37410713Y-37576961D01*
X37410713Y-37576961D02*
X37505952Y-37529342D01*
X37505952Y-37529342D02*
X37553571Y-37434104D01*
X37553571Y-37434104D02*
X37553571Y-37196009D01*
X37553571Y-37196009D02*
X37458333Y-37053152D01*
X37458333Y-37053152D02*
X37315475Y-36957914D01*
X37315475Y-36957914D02*
X37124999Y-36910295D01*
X37124999Y-36910295D02*
X36934523Y-36957914D01*
X36934523Y-36957914D02*
X36791666Y-37053152D01*
X36791666Y-37053152D02*
X36696428Y-37196009D01*
X36696428Y-37196009D02*
X36648809Y-37386485D01*
X36648809Y-37386485D02*
X36696428Y-37576961D01*
X36696428Y-37576961D02*
X36791666Y-37719819D01*
X36791666Y-37719819D02*
X36934523Y-37815057D01*
X36934523Y-37815057D02*
X37124999Y-37862676D01*
X37124999Y-37862676D02*
X37315475Y-37815057D01*
X37315475Y-37815057D02*
X37458333Y-37719819D01*
X38410713Y-37672200D02*
X38315475Y-37719819D01*
X38315475Y-37719819D02*
X38124999Y-37719819D01*
X38124999Y-37719819D02*
X38029761Y-37672200D01*
X38029761Y-37672200D02*
X37982142Y-37624580D01*
X37982142Y-37624580D02*
X37934523Y-37529342D01*
X37934523Y-37529342D02*
X37934523Y-37243628D01*
X37934523Y-37243628D02*
X37982142Y-37148390D01*
X37982142Y-37148390D02*
X38029761Y-37100771D01*
X38029761Y-37100771D02*
X38124999Y-37053152D01*
X38124999Y-37053152D02*
X38315475Y-37053152D01*
X38315475Y-37053152D02*
X38410713Y-37100771D01*
X38982142Y-37719819D02*
X38886904Y-37672200D01*
X38886904Y-37672200D02*
X38839285Y-37624580D01*
X38839285Y-37624580D02*
X38791666Y-37529342D01*
X38791666Y-37529342D02*
X38791666Y-37243628D01*
X38791666Y-37243628D02*
X38839285Y-37148390D01*
X38839285Y-37148390D02*
X38886904Y-37100771D01*
X38886904Y-37100771D02*
X38982142Y-37053152D01*
X38982142Y-37053152D02*
X39124999Y-37053152D01*
X39124999Y-37053152D02*
X39220237Y-37100771D01*
X39220237Y-37100771D02*
X39267856Y-37148390D01*
X39267856Y-37148390D02*
X39315475Y-37243628D01*
X39315475Y-37243628D02*
X39315475Y-37529342D01*
X39315475Y-37529342D02*
X39267856Y-37624580D01*
X39267856Y-37624580D02*
X39220237Y-37672200D01*
X39220237Y-37672200D02*
X39124999Y-37719819D01*
X39124999Y-37719819D02*
X38982142Y-37719819D01*
X39744047Y-37719819D02*
X39744047Y-37053152D01*
X39744047Y-37243628D02*
X39791666Y-37148390D01*
X39791666Y-37148390D02*
X39839285Y-37100771D01*
X39839285Y-37100771D02*
X39934523Y-37053152D01*
X39934523Y-37053152D02*
X40029761Y-37053152D01*
X40267857Y-37053152D02*
X40505952Y-37719819D01*
X40505952Y-37719819D02*
X40744047Y-37053152D01*
X41505952Y-37672200D02*
X41410714Y-37719819D01*
X41410714Y-37719819D02*
X41220238Y-37719819D01*
X41220238Y-37719819D02*
X41125000Y-37672200D01*
X41125000Y-37672200D02*
X41077381Y-37576961D01*
X41077381Y-37576961D02*
X41077381Y-37196009D01*
X41077381Y-37196009D02*
X41125000Y-37100771D01*
X41125000Y-37100771D02*
X41220238Y-37053152D01*
X41220238Y-37053152D02*
X41410714Y-37053152D01*
X41410714Y-37053152D02*
X41505952Y-37100771D01*
X41505952Y-37100771D02*
X41553571Y-37196009D01*
X41553571Y-37196009D02*
X41553571Y-37291247D01*
X41553571Y-37291247D02*
X41077381Y-37386485D01*
X41839286Y-37053152D02*
X42220238Y-37053152D01*
X41982143Y-36719819D02*
X41982143Y-37576961D01*
X41982143Y-37576961D02*
X42029762Y-37672200D01*
X42029762Y-37672200D02*
X42125000Y-37719819D01*
X42125000Y-37719819D02*
X42220238Y-37719819D01*
X42410715Y-37053152D02*
X42791667Y-37053152D01*
X42553572Y-36719819D02*
X42553572Y-37576961D01*
X42553572Y-37576961D02*
X42601191Y-37672200D01*
X42601191Y-37672200D02*
X42696429Y-37719819D01*
X42696429Y-37719819D02*
X42791667Y-37719819D01*
X43077382Y-36815057D02*
X43125001Y-36767438D01*
X43125001Y-36767438D02*
X43220239Y-36719819D01*
X43220239Y-36719819D02*
X43458334Y-36719819D01*
X43458334Y-36719819D02*
X43553572Y-36767438D01*
X43553572Y-36767438D02*
X43601191Y-36815057D01*
X43601191Y-36815057D02*
X43648810Y-36910295D01*
X43648810Y-36910295D02*
X43648810Y-37005533D01*
X43648810Y-37005533D02*
X43601191Y-37148390D01*
X43601191Y-37148390D02*
X43029763Y-37719819D01*
X43029763Y-37719819D02*
X43648810Y-37719819D01*
X44601191Y-37719819D02*
X44029763Y-37719819D01*
X44315477Y-37719819D02*
X44315477Y-36719819D01*
X44315477Y-36719819D02*
X44220239Y-36862676D01*
X44220239Y-36862676D02*
X44125001Y-36957914D01*
X44125001Y-36957914D02*
X44029763Y-37005533D01*
D12*
X58301283Y-28232309D02*
X58301283Y-27732309D01*
X58586997Y-28232309D02*
X58372712Y-27946595D01*
X58586997Y-27732309D02*
X58301283Y-28018023D01*
X59039378Y-27732309D02*
X58801283Y-27732309D01*
X58801283Y-27732309D02*
X58777474Y-27970404D01*
X58777474Y-27970404D02*
X58801283Y-27946595D01*
X58801283Y-27946595D02*
X58848902Y-27922785D01*
X58848902Y-27922785D02*
X58967950Y-27922785D01*
X58967950Y-27922785D02*
X59015569Y-27946595D01*
X59015569Y-27946595D02*
X59039378Y-27970404D01*
X59039378Y-27970404D02*
X59063188Y-28018023D01*
X59063188Y-28018023D02*
X59063188Y-28137071D01*
X59063188Y-28137071D02*
X59039378Y-28184690D01*
X59039378Y-28184690D02*
X59015569Y-28208500D01*
X59015569Y-28208500D02*
X58967950Y-28232309D01*
X58967950Y-28232309D02*
X58848902Y-28232309D01*
X58848902Y-28232309D02*
X58801283Y-28208500D01*
X58801283Y-28208500D02*
X58777474Y-28184690D01*
X58301283Y-45232309D02*
X58301283Y-44732309D01*
X58586997Y-45232309D02*
X58372712Y-44946595D01*
X58586997Y-44732309D02*
X58301283Y-45018023D01*
X58777474Y-44779928D02*
X58801283Y-44756119D01*
X58801283Y-44756119D02*
X58848902Y-44732309D01*
X58848902Y-44732309D02*
X58967950Y-44732309D01*
X58967950Y-44732309D02*
X59015569Y-44756119D01*
X59015569Y-44756119D02*
X59039378Y-44779928D01*
X59039378Y-44779928D02*
X59063188Y-44827547D01*
X59063188Y-44827547D02*
X59063188Y-44875166D01*
X59063188Y-44875166D02*
X59039378Y-44946595D01*
X59039378Y-44946595D02*
X58753664Y-45232309D01*
X58753664Y-45232309D02*
X59063188Y-45232309D01*
X40201283Y-32932309D02*
X40201283Y-32432309D01*
X40486997Y-32932309D02*
X40272712Y-32646595D01*
X40486997Y-32432309D02*
X40201283Y-32718023D01*
X40915569Y-32432309D02*
X40820331Y-32432309D01*
X40820331Y-32432309D02*
X40772712Y-32456119D01*
X40772712Y-32456119D02*
X40748902Y-32479928D01*
X40748902Y-32479928D02*
X40701283Y-32551357D01*
X40701283Y-32551357D02*
X40677474Y-32646595D01*
X40677474Y-32646595D02*
X40677474Y-32837071D01*
X40677474Y-32837071D02*
X40701283Y-32884690D01*
X40701283Y-32884690D02*
X40725093Y-32908500D01*
X40725093Y-32908500D02*
X40772712Y-32932309D01*
X40772712Y-32932309D02*
X40867950Y-32932309D01*
X40867950Y-32932309D02*
X40915569Y-32908500D01*
X40915569Y-32908500D02*
X40939378Y-32884690D01*
X40939378Y-32884690D02*
X40963188Y-32837071D01*
X40963188Y-32837071D02*
X40963188Y-32718023D01*
X40963188Y-32718023D02*
X40939378Y-32670404D01*
X40939378Y-32670404D02*
X40915569Y-32646595D01*
X40915569Y-32646595D02*
X40867950Y-32622785D01*
X40867950Y-32622785D02*
X40772712Y-32622785D01*
X40772712Y-32622785D02*
X40725093Y-32646595D01*
X40725093Y-32646595D02*
X40701283Y-32670404D01*
X40701283Y-32670404D02*
X40677474Y-32718023D01*
X28932309Y-39798716D02*
X28432309Y-39798716D01*
X28932309Y-39513002D02*
X28646595Y-39727287D01*
X28432309Y-39513002D02*
X28718023Y-39798716D01*
X28432309Y-39346335D02*
X28432309Y-39013002D01*
X28432309Y-39013002D02*
X28932309Y-39227287D01*
X76301283Y-33032309D02*
X76301283Y-32532309D01*
X76586997Y-33032309D02*
X76372712Y-32746595D01*
X76586997Y-32532309D02*
X76301283Y-32818023D01*
X77015569Y-32698976D02*
X77015569Y-33032309D01*
X76896521Y-32508500D02*
X76777474Y-32865642D01*
X76777474Y-32865642D02*
X77086997Y-32865642D01*
D14*
%TO.C,G\u002A\u002A\u002A*%
G36*
X60632782Y-30182952D02*
G01*
X60645586Y-30192248D01*
X60664923Y-30204992D01*
X60686482Y-30213679D01*
X60690505Y-30214588D01*
X60719116Y-30225049D01*
X60738710Y-30243369D01*
X60748585Y-30268067D01*
X60748034Y-30297662D01*
X60740978Y-30320716D01*
X60736630Y-30332280D01*
X60735220Y-30342224D01*
X60737314Y-30353861D01*
X60743474Y-30370500D01*
X60753340Y-30393353D01*
X60796654Y-30504306D01*
X60833355Y-30624578D01*
X60863129Y-30752690D01*
X60885666Y-30887161D01*
X60900652Y-31026513D01*
X60906164Y-31118223D01*
X60908196Y-31295194D01*
X60899893Y-31478352D01*
X60881397Y-31667060D01*
X60852849Y-31860683D01*
X60814393Y-32058585D01*
X60766169Y-32260129D01*
X60708321Y-32464680D01*
X60640990Y-32671601D01*
X60564318Y-32880257D01*
X60478447Y-33090010D01*
X60452504Y-33149462D01*
X60369880Y-33327135D01*
X60283536Y-33495130D01*
X60193690Y-33653157D01*
X60100562Y-33800928D01*
X60004370Y-33938155D01*
X59905332Y-34064549D01*
X59803666Y-34179821D01*
X59699592Y-34283684D01*
X59593328Y-34375848D01*
X59485092Y-34456026D01*
X59440819Y-34484975D01*
X59329189Y-34548130D01*
X59214336Y-34599272D01*
X59096517Y-34638396D01*
X58975989Y-34665500D01*
X58853007Y-34680578D01*
X58727827Y-34683628D01*
X58600707Y-34674644D01*
X58471903Y-34653624D01*
X58341670Y-34620563D01*
X58210266Y-34575457D01*
X58077946Y-34518303D01*
X58052978Y-34506207D01*
X57977959Y-34469240D01*
X57868207Y-34577055D01*
X57832631Y-34611551D01*
X57795098Y-34647162D01*
X57758075Y-34681600D01*
X57724033Y-34712574D01*
X57695441Y-34737798D01*
X57686912Y-34745068D01*
X57566594Y-34840420D01*
X57446711Y-34923525D01*
X57326810Y-34994608D01*
X57206443Y-35053894D01*
X57085160Y-35101608D01*
X56962509Y-35137974D01*
X56855808Y-35160309D01*
X56829287Y-35163768D01*
X56794233Y-35166809D01*
X56753133Y-35169365D01*
X56708472Y-35171369D01*
X56662738Y-35172752D01*
X56618416Y-35173448D01*
X56577993Y-35173390D01*
X56543955Y-35172510D01*
X56518788Y-35170740D01*
X56511089Y-35169648D01*
X56468328Y-35157459D01*
X56435494Y-35138029D01*
X56412139Y-35110802D01*
X56397816Y-35075225D01*
X56392080Y-35030743D01*
X56391924Y-35021753D01*
X56395286Y-34976046D01*
X56405903Y-34929577D01*
X56424205Y-34881739D01*
X56450620Y-34831922D01*
X56485580Y-34779521D01*
X56529515Y-34723928D01*
X56582853Y-34664535D01*
X56646026Y-34600735D01*
X56719462Y-34531920D01*
X56771413Y-34485523D01*
X56808617Y-34452740D01*
X56849581Y-34416504D01*
X56890864Y-34379868D01*
X56922829Y-34351403D01*
X57299668Y-34351403D01*
X57299912Y-34353917D01*
X57301449Y-34354769D01*
X57305480Y-34353115D01*
X57313209Y-34348109D01*
X57325838Y-34338907D01*
X57344571Y-34324662D01*
X57370610Y-34304531D01*
X57405158Y-34277667D01*
X57410166Y-34273769D01*
X57428541Y-34259334D01*
X58171008Y-34259334D01*
X58175092Y-34268647D01*
X58186519Y-34277332D01*
X58205261Y-34287267D01*
X58226911Y-34298091D01*
X58317619Y-34339742D01*
X58412869Y-34375273D01*
X58508463Y-34403256D01*
X58584359Y-34419606D01*
X58632286Y-34425925D01*
X58687641Y-34429732D01*
X58746086Y-34430983D01*
X58803284Y-34429637D01*
X58854897Y-34425651D01*
X58878367Y-34422476D01*
X58971382Y-34401964D01*
X59068312Y-34370081D01*
X59168520Y-34327102D01*
X59271372Y-34273302D01*
X59376232Y-34208955D01*
X59384556Y-34203449D01*
X59501883Y-34118169D01*
X59614802Y-34021462D01*
X59723099Y-33913676D01*
X59826562Y-33795161D01*
X59924979Y-33666268D01*
X60018136Y-33527347D01*
X60105821Y-33378746D01*
X60187821Y-33220816D01*
X60263923Y-33053907D01*
X60333915Y-32878369D01*
X60397584Y-32694551D01*
X60454716Y-32502803D01*
X60482209Y-32398340D01*
X60527269Y-32201633D01*
X60564814Y-32000497D01*
X60594602Y-31797156D01*
X60616393Y-31593834D01*
X60629943Y-31392753D01*
X60635011Y-31196139D01*
X60631978Y-31021196D01*
X60629498Y-30964355D01*
X60626685Y-30909924D01*
X60623641Y-30859194D01*
X60620469Y-30813451D01*
X60617273Y-30773985D01*
X60614154Y-30742084D01*
X60611216Y-30719035D01*
X60608562Y-30706128D01*
X60606656Y-30704031D01*
X60602568Y-30711582D01*
X60594976Y-30727917D01*
X60585145Y-30750265D01*
X60578803Y-30765155D01*
X60527389Y-30881210D01*
X60468941Y-31002345D01*
X60405342Y-31124877D01*
X60338478Y-31245125D01*
X60297188Y-31315290D01*
X60261698Y-31374293D01*
X60231536Y-31424514D01*
X60205561Y-31467870D01*
X60182630Y-31506276D01*
X60161600Y-31541649D01*
X60141330Y-31575904D01*
X60120678Y-31610959D01*
X60103404Y-31640370D01*
X60025857Y-31770353D01*
X59946591Y-31898706D01*
X59862588Y-32030299D01*
X59842435Y-32061298D01*
X59818962Y-32097553D01*
X59798107Y-32130276D01*
X59780746Y-32158048D01*
X59767759Y-32179446D01*
X59760025Y-32193052D01*
X59758243Y-32197436D01*
X59764817Y-32196617D01*
X59781474Y-32192684D01*
X59806324Y-32186135D01*
X59837482Y-32177470D01*
X59873059Y-32167187D01*
X59875990Y-32166324D01*
X59943958Y-32146808D01*
X60002113Y-32131329D01*
X60052327Y-32119485D01*
X60096474Y-32110871D01*
X60136428Y-32105085D01*
X60174063Y-32101723D01*
X60176801Y-32101560D01*
X60217718Y-32100565D01*
X60248965Y-32103541D01*
X60272988Y-32111379D01*
X60292234Y-32124973D01*
X60309152Y-32145212D01*
X60313205Y-32151263D01*
X60329136Y-32182602D01*
X60333369Y-32209540D01*
X60325853Y-32232221D01*
X60306539Y-32250786D01*
X60275376Y-32265380D01*
X60272939Y-32266194D01*
X60250130Y-32274707D01*
X60222768Y-32286381D01*
X60200381Y-32296932D01*
X60180530Y-32305924D01*
X60151114Y-32318054D01*
X60114420Y-32332477D01*
X60072735Y-32348346D01*
X60028347Y-32364816D01*
X59983541Y-32381040D01*
X59940605Y-32396173D01*
X59901826Y-32409368D01*
X59869489Y-32419779D01*
X59862871Y-32421791D01*
X59808954Y-32435977D01*
X59758546Y-32444615D01*
X59707627Y-32448018D01*
X59652179Y-32446499D01*
X59602614Y-32442033D01*
X59597529Y-32443323D01*
X59590324Y-32448765D01*
X59580238Y-32459301D01*
X59566510Y-32475870D01*
X59548382Y-32499411D01*
X59525093Y-32530865D01*
X59495883Y-32571172D01*
X59477447Y-32596856D01*
X59446355Y-32640139D01*
X59414666Y-32684007D01*
X59383919Y-32726348D01*
X59355653Y-32765048D01*
X59331408Y-32797995D01*
X59312721Y-32823075D01*
X59311243Y-32825037D01*
X59256955Y-32896929D01*
X59283246Y-32901557D01*
X59304388Y-32904080D01*
X59335717Y-32906251D01*
X59374925Y-32908045D01*
X59419698Y-32909435D01*
X59467728Y-32910394D01*
X59516703Y-32910896D01*
X59564312Y-32910913D01*
X59608245Y-32910420D01*
X59646190Y-32909389D01*
X59675838Y-32907794D01*
X59690881Y-32906262D01*
X59711611Y-32904151D01*
X59741564Y-32902237D01*
X59779004Y-32900538D01*
X59822200Y-32899075D01*
X59869416Y-32897867D01*
X59918920Y-32896934D01*
X59968977Y-32896294D01*
X60017854Y-32895967D01*
X60063817Y-32895972D01*
X60105133Y-32896330D01*
X60140067Y-32897059D01*
X60166887Y-32898179D01*
X60183858Y-32899710D01*
X60188250Y-32900687D01*
X60205869Y-32913568D01*
X60218570Y-32934483D01*
X60225152Y-32959527D01*
X60224413Y-32984797D01*
X60218951Y-33000426D01*
X60204722Y-33015190D01*
X60180522Y-33027132D01*
X60153716Y-33034163D01*
X60134007Y-33040716D01*
X60117667Y-33051002D01*
X60115738Y-33052894D01*
X60094890Y-33068231D01*
X60061648Y-33082667D01*
X60016090Y-33096183D01*
X59958294Y-33108759D01*
X59888338Y-33120377D01*
X59806301Y-33131016D01*
X59797157Y-33132056D01*
X59753316Y-33137384D01*
X59701718Y-33144291D01*
X59646908Y-33152129D01*
X59593432Y-33160252D01*
X59553347Y-33166742D01*
X59461313Y-33180419D01*
X59377105Y-33189319D01*
X59301533Y-33193408D01*
X59235409Y-33192656D01*
X59179543Y-33187033D01*
X59154657Y-33182134D01*
X59127407Y-33175026D01*
X59102608Y-33167507D01*
X59084432Y-33160874D01*
X59080483Y-33159042D01*
X59066414Y-33153718D01*
X59057212Y-33153742D01*
X59056560Y-33154273D01*
X59051489Y-33160475D01*
X59039790Y-33175006D01*
X59022624Y-33196416D01*
X59001155Y-33223254D01*
X58976543Y-33254071D01*
X58962223Y-33272022D01*
X58928890Y-33313617D01*
X58890989Y-33360577D01*
X58851650Y-33409044D01*
X58814005Y-33455160D01*
X58783125Y-33492717D01*
X58757333Y-33524155D01*
X58734457Y-33552460D01*
X58715634Y-33576189D01*
X58702000Y-33593903D01*
X58694690Y-33604161D01*
X58693761Y-33606026D01*
X58693638Y-33607573D01*
X58694120Y-33608917D01*
X58696478Y-33610353D01*
X58701983Y-33612176D01*
X58711909Y-33614683D01*
X58727527Y-33618169D01*
X58750110Y-33622931D01*
X58780930Y-33629263D01*
X58821258Y-33637463D01*
X58872368Y-33647825D01*
X58881307Y-33649637D01*
X58975518Y-33669032D01*
X59061983Y-33687416D01*
X59140103Y-33704645D01*
X59209279Y-33720575D01*
X59268910Y-33735063D01*
X59318397Y-33747964D01*
X59357140Y-33759133D01*
X59384540Y-33768428D01*
X59395772Y-33773288D01*
X59413507Y-33787267D01*
X59428292Y-33807508D01*
X59436784Y-33828938D01*
X59437670Y-33836841D01*
X59432734Y-33860655D01*
X59419934Y-33884946D01*
X59402387Y-33904211D01*
X59397559Y-33907639D01*
X59379813Y-33915593D01*
X59358282Y-33917895D01*
X59345483Y-33917327D01*
X59326201Y-33916457D01*
X59316333Y-33918087D01*
X59312901Y-33923034D01*
X59312663Y-33926356D01*
X59307269Y-33943161D01*
X59293272Y-33955239D01*
X59273951Y-33961759D01*
X59252582Y-33961889D01*
X59232445Y-33954799D01*
X59224354Y-33948751D01*
X59211479Y-33939698D01*
X59195856Y-33936313D01*
X59179363Y-33936603D01*
X59160293Y-33936476D01*
X59133166Y-33934578D01*
X59102249Y-33931264D01*
X59083073Y-33928655D01*
X59056841Y-33925460D01*
X59021038Y-33922105D01*
X58978593Y-33918810D01*
X58932432Y-33915795D01*
X58885483Y-33913282D01*
X58869276Y-33912556D01*
X58817830Y-33910175D01*
X58761552Y-33907223D01*
X58704661Y-33903944D01*
X58651377Y-33900582D01*
X58605920Y-33897382D01*
X58601718Y-33897061D01*
X58563818Y-33894174D01*
X58529890Y-33891654D01*
X58502024Y-33889652D01*
X58482314Y-33888317D01*
X58472851Y-33887800D01*
X58472655Y-33887798D01*
X58466276Y-33892483D01*
X58453456Y-33905583D01*
X58435463Y-33925671D01*
X58413562Y-33951316D01*
X58389022Y-33981092D01*
X58379814Y-33992511D01*
X58349211Y-34030531D01*
X58315841Y-34071733D01*
X58282416Y-34112787D01*
X58251647Y-34150361D01*
X58228646Y-34178232D01*
X58203087Y-34208841D01*
X58184978Y-34231309D01*
X58174295Y-34247514D01*
X58171008Y-34259334D01*
X57428541Y-34259334D01*
X57457560Y-34236537D01*
X57494838Y-34206484D01*
X57522074Y-34183547D01*
X57539341Y-34167662D01*
X57546715Y-34158763D01*
X57545621Y-34156631D01*
X57538214Y-34160388D01*
X57523386Y-34170629D01*
X57503286Y-34185792D01*
X57480062Y-34204315D01*
X57479980Y-34204382D01*
X57449033Y-34229340D01*
X57413455Y-34257493D01*
X57378655Y-34284581D01*
X57360620Y-34298383D01*
X57337173Y-34316694D01*
X57317906Y-34332739D01*
X57304760Y-34344832D01*
X57299676Y-34351285D01*
X57299668Y-34351403D01*
X56922829Y-34351403D01*
X56929027Y-34345884D01*
X56955833Y-34321908D01*
X56982059Y-34298587D01*
X57015810Y-34268887D01*
X57055096Y-34234542D01*
X57097928Y-34197285D01*
X57142316Y-34158848D01*
X57186270Y-34120966D01*
X57202769Y-34106799D01*
X57240975Y-34073877D01*
X57275915Y-34043471D01*
X57306509Y-34016547D01*
X57331676Y-33994066D01*
X57350335Y-33976994D01*
X57361407Y-33966292D01*
X57364077Y-33962972D01*
X57360049Y-33956542D01*
X57349961Y-33942224D01*
X57335304Y-33922093D01*
X57317572Y-33898225D01*
X57316358Y-33896606D01*
X57236993Y-33782161D01*
X57168953Y-33665654D01*
X57112345Y-33547560D01*
X57067273Y-33428356D01*
X57033845Y-33308515D01*
X57012165Y-33188514D01*
X57002341Y-33068827D01*
X57002593Y-33054810D01*
X57301916Y-33054810D01*
X57310710Y-33170057D01*
X57331376Y-33284634D01*
X57363922Y-33397862D01*
X57408356Y-33509059D01*
X57464688Y-33617543D01*
X57482265Y-33646808D01*
X57496993Y-33670015D01*
X57513874Y-33695685D01*
X57531454Y-33721717D01*
X57548275Y-33746015D01*
X57562883Y-33766480D01*
X57573820Y-33781013D01*
X57579631Y-33787516D01*
X57579997Y-33787671D01*
X57585119Y-33783837D01*
X57598756Y-33772879D01*
X57619823Y-33755687D01*
X57647239Y-33733152D01*
X57679921Y-33706164D01*
X57716786Y-33675612D01*
X57756603Y-33642510D01*
X57796570Y-33609016D01*
X57833315Y-33577804D01*
X57865763Y-33549819D01*
X57892838Y-33526008D01*
X57913465Y-33507315D01*
X57926568Y-33494686D01*
X57931073Y-33489098D01*
X57928387Y-33478904D01*
X57921614Y-33462731D01*
X57917969Y-33455263D01*
X57893310Y-33400901D01*
X57868829Y-33335126D01*
X57844858Y-33259030D01*
X57821730Y-33173701D01*
X57799776Y-33080232D01*
X57790635Y-33037107D01*
X57779820Y-32985239D01*
X57767344Y-32926709D01*
X57754252Y-32866336D01*
X57741588Y-32808936D01*
X57731127Y-32762521D01*
X57710444Y-32669333D01*
X57693184Y-32585789D01*
X57679400Y-32512235D01*
X57669146Y-32449016D01*
X57662474Y-32396479D01*
X57659438Y-32354970D01*
X57660090Y-32324833D01*
X57662188Y-32312666D01*
X57677061Y-32280022D01*
X57701212Y-32254404D01*
X57732787Y-32237148D01*
X57769930Y-32229586D01*
X57777995Y-32229354D01*
X57808318Y-32232884D01*
X57835626Y-32244244D01*
X57861487Y-32264592D01*
X57887472Y-32295087D01*
X57907936Y-32325236D01*
X57925665Y-32355213D01*
X57941505Y-32386532D01*
X57955722Y-32420333D01*
X57968582Y-32457758D01*
X57980350Y-32499948D01*
X57991293Y-32548042D01*
X58001674Y-32603183D01*
X58011761Y-32666510D01*
X58021819Y-32739164D01*
X58032113Y-32822286D01*
X58040330Y-32893804D01*
X58046420Y-32946229D01*
X58052877Y-32998296D01*
X58059386Y-33047710D01*
X58065633Y-33092180D01*
X58071305Y-33129412D01*
X58076086Y-33157115D01*
X58077174Y-33162620D01*
X58085638Y-33201430D01*
X58094561Y-33238411D01*
X58103370Y-33271526D01*
X58111487Y-33298733D01*
X58118336Y-33317996D01*
X58123343Y-33327274D01*
X58123767Y-33327604D01*
X58129924Y-33324533D01*
X58144532Y-33313707D01*
X58166810Y-33295799D01*
X58195973Y-33271484D01*
X58231241Y-33241435D01*
X58271830Y-33206327D01*
X58316959Y-33166834D01*
X58365844Y-33123630D01*
X58417704Y-33077389D01*
X58471756Y-33028785D01*
X58495523Y-33007286D01*
X58532728Y-32973570D01*
X58568490Y-32941162D01*
X58601325Y-32911406D01*
X58629754Y-32885644D01*
X58652295Y-32865218D01*
X58667467Y-32851470D01*
X58670191Y-32849002D01*
X58702389Y-32819829D01*
X58675593Y-32664581D01*
X58664290Y-32601821D01*
X58653006Y-32545576D01*
X58640773Y-32491689D01*
X58626626Y-32436003D01*
X58609597Y-32374361D01*
X58601818Y-32347298D01*
X58586292Y-32293091D01*
X58574344Y-32249327D01*
X58565799Y-32214521D01*
X58560480Y-32187191D01*
X58558214Y-32165853D01*
X58558825Y-32149023D01*
X58562137Y-32135217D01*
X58567976Y-32122952D01*
X58574193Y-32113469D01*
X58597318Y-32091134D01*
X58627708Y-32076368D01*
X58662172Y-32069882D01*
X58697520Y-32072388D01*
X58722335Y-32080434D01*
X58746907Y-32096065D01*
X58771039Y-32120702D01*
X58794992Y-32154860D01*
X58819025Y-32199049D01*
X58843396Y-32253785D01*
X58868366Y-32319581D01*
X58894194Y-32396949D01*
X58912421Y-32456572D01*
X58922993Y-32491675D01*
X58932640Y-32522621D01*
X58940710Y-32547409D01*
X58946554Y-32564041D01*
X58949416Y-32570428D01*
X58954814Y-32567331D01*
X58967820Y-32555982D01*
X58987537Y-32537294D01*
X59013068Y-32512178D01*
X59043516Y-32481548D01*
X59077983Y-32446317D01*
X59115572Y-32407395D01*
X59155387Y-32365697D01*
X59196530Y-32322134D01*
X59238103Y-32277619D01*
X59251269Y-32263412D01*
X59316820Y-32192533D01*
X59290336Y-32100872D01*
X59270945Y-32029462D01*
X59252327Y-31952742D01*
X59235051Y-31873611D01*
X59219686Y-31794966D01*
X59206801Y-31719704D01*
X59196965Y-31650723D01*
X59191170Y-31596151D01*
X59189392Y-31570045D01*
X59189611Y-31552983D01*
X59192221Y-31541607D01*
X59197618Y-31532562D01*
X59198837Y-31531019D01*
X59207882Y-31522717D01*
X59220078Y-31518074D01*
X59237801Y-31516874D01*
X59263428Y-31518905D01*
X59291131Y-31522697D01*
X59324298Y-31530776D01*
X59351249Y-31545211D01*
X59375003Y-31568109D01*
X59394149Y-31594576D01*
X59409775Y-31621744D01*
X59424940Y-31654600D01*
X59440149Y-31694556D01*
X59455906Y-31743023D01*
X59472719Y-31801411D01*
X59485824Y-31850634D01*
X59495190Y-31885599D01*
X59503836Y-31915719D01*
X59511188Y-31939166D01*
X59516673Y-31954112D01*
X59519703Y-31958742D01*
X59524857Y-31953185D01*
X59536678Y-31939212D01*
X59554044Y-31918189D01*
X59575833Y-31891481D01*
X59600924Y-31860453D01*
X59621211Y-31835196D01*
X59756096Y-31661431D01*
X59880583Y-31489954D01*
X59994201Y-31321434D01*
X60087580Y-31171505D01*
X60107149Y-31138464D01*
X60127873Y-31102977D01*
X60148800Y-31066728D01*
X60168979Y-31031400D01*
X60187457Y-30998678D01*
X60203282Y-30970247D01*
X60215502Y-30947790D01*
X60223166Y-30932992D01*
X60225387Y-30927681D01*
X60220469Y-30930492D01*
X60206880Y-30939086D01*
X60186369Y-30952336D01*
X60160686Y-30969115D01*
X60142555Y-30981046D01*
X60050815Y-31039547D01*
X59956439Y-31095608D01*
X59858386Y-31149698D01*
X59755614Y-31202289D01*
X59647083Y-31253853D01*
X59531752Y-31304861D01*
X59408581Y-31355783D01*
X59276529Y-31407091D01*
X59134555Y-31459257D01*
X58981618Y-31512751D01*
X58928193Y-31530902D01*
X58841002Y-31560413D01*
X58764359Y-31586561D01*
X58696914Y-31609827D01*
X58637316Y-31630691D01*
X58584216Y-31649633D01*
X58536264Y-31667136D01*
X58492111Y-31683679D01*
X58450406Y-31699743D01*
X58415891Y-31713373D01*
X58276357Y-31772284D01*
X58148493Y-31833128D01*
X58031542Y-31896461D01*
X57924748Y-31962840D01*
X57827354Y-32032819D01*
X57738603Y-32106955D01*
X57657738Y-32185804D01*
X57584003Y-32269920D01*
X57516641Y-32359860D01*
X57497980Y-32387429D01*
X57435722Y-32492385D01*
X57385286Y-32600759D01*
X57346678Y-32711870D01*
X57319908Y-32825036D01*
X57304985Y-32939577D01*
X57301916Y-33054810D01*
X57002593Y-33054810D01*
X57004478Y-32949929D01*
X57018682Y-32832296D01*
X57045059Y-32716403D01*
X57049592Y-32700803D01*
X57089289Y-32585527D01*
X57139428Y-32469409D01*
X57198506Y-32355294D01*
X57265018Y-32246030D01*
X57337460Y-32144464D01*
X57355657Y-32121431D01*
X57382773Y-32089704D01*
X57417299Y-32052195D01*
X57457014Y-32011087D01*
X57499697Y-31968569D01*
X57543123Y-31926827D01*
X57585072Y-31888047D01*
X57623321Y-31854416D01*
X57646524Y-31835251D01*
X57744128Y-31761478D01*
X57849060Y-31690010D01*
X57962591Y-31620067D01*
X58085990Y-31550870D01*
X58220526Y-31481639D01*
X58228021Y-31477939D01*
X58277441Y-31453852D01*
X58326836Y-31430340D01*
X58377358Y-31406910D01*
X58430158Y-31383067D01*
X58486389Y-31358316D01*
X58547201Y-31332165D01*
X58613748Y-31304117D01*
X58687180Y-31273679D01*
X58768649Y-31240355D01*
X58859307Y-31203653D01*
X58960306Y-31163077D01*
X58978206Y-31155911D01*
X59104921Y-31104929D01*
X59220755Y-31057708D01*
X59326606Y-31013820D01*
X59423376Y-30972839D01*
X59511962Y-30934337D01*
X59593264Y-30897886D01*
X59668181Y-30863060D01*
X59737614Y-30829432D01*
X59802460Y-30796574D01*
X59863621Y-30764058D01*
X59921994Y-30731459D01*
X59978480Y-30698347D01*
X60033977Y-30664297D01*
X60089386Y-30628881D01*
X60094105Y-30625804D01*
X60169584Y-30575132D01*
X60236639Y-30526996D01*
X60298367Y-30479080D01*
X60357867Y-30429066D01*
X60361873Y-30425564D01*
X60395347Y-30396541D01*
X60421524Y-30374926D01*
X60442286Y-30359639D01*
X60459516Y-30349600D01*
X60475096Y-30343728D01*
X60490909Y-30340943D01*
X60508837Y-30340165D01*
X60510696Y-30340156D01*
X60532502Y-30339575D01*
X60544120Y-30337587D01*
X60547835Y-30333601D01*
X60547444Y-30330673D01*
X60540262Y-30303786D01*
X60534462Y-30275939D01*
X60530695Y-30250960D01*
X60529611Y-30232676D01*
X60530040Y-30228268D01*
X60536620Y-30214048D01*
X60549336Y-30198111D01*
X60554538Y-30193148D01*
X60580195Y-30177477D01*
X60606685Y-30174075D01*
X60632782Y-30182952D01*
G37*
%TD*%
M02*
