M48
; DRILL file {KiCad 8.0.2} date 2024-07-05T21:54:27-0500
; FORMAT={-:-/ absolute / inch / decimal}
; #@! TF.CreationDate,2024-07-05T21:54:27-05:00
; #@! TF.GenerationSoftware,Kicad,Pcbnew,8.0.2
; #@! TF.FileFunction,NonPlated,1,2,NPTH
FMAT,2
INCH
; #@! TA.AperFunction,NonPlated,NPTH,ComponentDrill
T1C0.0118
; #@! TA.AperFunction,NonPlated,NPTH,ComponentDrill
T2C0.0354
; #@! TA.AperFunction,NonPlated,NPTH,ComponentDrill
T3C0.0394
; #@! TA.AperFunction,NonPlated,NPTH,ComponentDrill
T4C0.0433
; #@! TA.AperFunction,NonPlated,NPTH,ComponentDrill
T5C0.0787
; #@! TA.AperFunction,NonPlated,NPTH,ComponentDrill
T6C0.2283
%
G90
G05
T2
X0.7717Y-1.1415
X0.7717Y-1.1415
X0.8898Y-1.1415
X0.8898Y-1.1415
T4
X0.8333Y-2.2428
X0.8346Y-2.2441
X0.9221Y-2.3632
X0.9234Y-2.3645
T1
G00X0.7999Y-1.785
M15
G01X0.7999Y-1.3362
M16
G05
G00X1.0164Y-1.3362
M15
G01X0.7999Y-1.3362
M16
G05
G00X1.0164Y-1.785
M15
G01X0.7999Y-1.785
M16
G05
G00X1.0164Y-1.785
M15
G01X1.0164Y-1.3362
M16
G05
G00X1.0518Y-1.4779
M15
G01X1.0203Y-1.4779
M16
G05
G00X1.0518Y-1.6433
M15
G01X1.0203Y-1.6433
M16
G05
G00X1.0518Y-1.6433
M15
G01X1.0518Y-1.4779
M16
G05
G00X1.3714Y-1.1852
M15
G01X1.3714Y-0.9686
M16
G05
G00X1.3727Y-1.8559
M15
G01X1.3727Y-1.6393
M16
G05
G00X1.5131Y-1.2206
M15
G01X1.5131Y-1.1891
M16
G05
G00X1.5144Y-1.8913
M15
G01X1.5144Y-1.8598
M16
G05
G00X1.3714Y-0.9686
M15
G01X1.8202Y-0.9686
M16
G05
G00X1.3714Y-1.1852
M15
G01X1.8202Y-1.1852
M16
G05
G00X1.5131Y-1.2206
M15
G01X1.6785Y-1.2206
M16
G05
G00X1.3727Y-1.6393
M15
G01X1.8215Y-1.6393
M16
G05
G00X1.3727Y-1.8559
M15
G01X1.8215Y-1.8559
M16
G05
G00X1.5144Y-1.8913
M15
G01X1.6798Y-1.8913
M16
G05
G00X1.6785Y-1.2206
M15
G01X1.6785Y-1.1891
M16
G05
G00X1.6798Y-1.8913
M15
G01X1.6798Y-1.8598
M16
G05
G00X1.8202Y-1.1852
M15
G01X1.8202Y-0.9686
M16
G05
G00X1.8215Y-1.8559
M15
G01X1.8215Y-1.6393
M16
G05
G00X2.0814Y-0.9996
M15
G01X2.0814Y-0.783
M16
G05
G00X2.0827Y-1.6703
M15
G01X2.0827Y-1.4537
M16
G05
G00X2.2231Y-1.035
M15
G01X2.2231Y-1.0035
M16
G05
G00X2.2244Y-1.7057
M15
G01X2.2244Y-1.6742
M16
G05
G00X2.0814Y-0.783
M15
G01X2.5302Y-0.783
M16
G05
G00X2.0814Y-0.9996
M15
G01X2.5302Y-0.9996
M16
G05
G00X2.2231Y-1.035
M15
G01X2.3884Y-1.035
M16
G05
G00X2.0827Y-1.4537
M15
G01X2.5315Y-1.4537
M16
G05
G00X2.0827Y-1.6703
M15
G01X2.5315Y-1.6703
M16
G05
G00X2.2244Y-1.7057
M15
G01X2.3898Y-1.7057
M16
G05
G00X2.3884Y-1.035
M15
G01X2.3884Y-1.0035
M16
G05
G00X2.3898Y-1.7057
M15
G01X2.3898Y-1.6742
M16
G05
G00X2.5302Y-0.9996
M15
G01X2.5302Y-0.783
M16
G05
G00X2.5315Y-1.6703
M15
G01X2.5315Y-1.4537
M16
G05
G00X2.79Y-1.1866
M15
G01X2.79Y-0.97
M16
G05
G00X2.7913Y-1.8573
M15
G01X2.7913Y-1.6407
M16
G05
G00X2.9317Y-1.222
M15
G01X2.9317Y-1.1905
M16
G05
G00X2.9331Y-1.8927
M15
G01X2.9331Y-1.8612
M16
G05
G00X2.79Y-0.97
M15
G01X3.2388Y-0.97
M16
G05
G00X2.79Y-1.1866
M15
G01X3.2388Y-1.1866
M16
G05
G00X2.9317Y-1.222
M15
G01X3.0971Y-1.222
M16
G05
G00X2.7913Y-1.6407
M15
G01X3.2402Y-1.6407
M16
G05
G00X2.7913Y-1.8573
M15
G01X3.2402Y-1.8573
M16
G05
G00X2.9331Y-1.8927
M15
G01X3.0984Y-1.8927
M16
G05
G00X3.0971Y-1.222
M15
G01X3.0971Y-1.1905
M16
G05
G00X3.0984Y-1.8927
M15
G01X3.0984Y-1.8612
M16
G05
G00X3.2388Y-1.1866
M15
G01X3.2388Y-0.97
M16
G05
G00X3.2402Y-1.8573
M15
G01X3.2402Y-1.6407
M16
G05
G00X3.5066Y-2.7417
M15
G01X3.5066Y-2.5252
M16
G05
G00X3.6483Y-2.7771
M15
G01X3.6483Y-2.7456
M16
G05
G00X3.5066Y-2.5252
M15
G01X3.9554Y-2.5252
M16
G05
G00X3.5066Y-2.7417
M15
G01X3.9554Y-2.7417
M16
G05
G00X3.6483Y-2.7771
M15
G01X3.8136Y-2.7771
M16
G05
G00X3.8136Y-2.7771
M15
G01X3.8136Y-2.7456
M16
G05
G00X3.9554Y-2.7417
M15
G01X3.9554Y-2.5252
M16
G05
T3
G00X1.038Y-1.6295
M15
G01X1.038Y-1.4917
M16
G05
G00X1.5269Y-1.2068
M15
G01X1.6647Y-1.2068
M16
G05
G00X1.5282Y-1.8775
M15
G01X1.666Y-1.8775
M16
G05
G00X2.2369Y-1.0212
M15
G01X2.3747Y-1.0212
M16
G05
G00X2.2382Y-1.6919
M15
G01X2.376Y-1.6919
M16
G05
G00X2.9455Y-1.2082
M15
G01X3.0833Y-1.2082
M16
G05
G00X2.9469Y-1.8789
M15
G01X3.0846Y-1.8789
M16
G05
G00X3.6621Y-2.7633
M15
G01X3.7999Y-2.7633
M16
G05
T5
G00X0.8333Y-1.3696
M15
G01X0.9829Y-1.3696
M16
G05
G00X0.8333Y-1.7515
M15
G01X0.9829Y-1.7515
M16
G05
G00X1.4048Y-1.0021
M15
G01X1.4048Y-1.1517
M16
G05
G00X1.4062Y-1.6728
M15
G01X1.4062Y-1.8224
M16
G05
G00X1.7867Y-1.0021
M15
G01X1.7867Y-1.1517
M16
G05
G00X1.788Y-1.6728
M15
G01X1.788Y-1.8224
M16
G05
G00X2.1148Y-0.8165
M15
G01X2.1148Y-0.9661
M16
G05
G00X2.1161Y-1.4872
M15
G01X2.1161Y-1.6368
M16
G05
G00X2.4967Y-0.8165
M15
G01X2.4967Y-0.9661
M16
G05
G00X2.498Y-1.4872
M15
G01X2.498Y-1.6368
M16
G05
G00X2.8235Y-1.0035
M15
G01X2.8235Y-1.1531
M16
G05
G00X2.8248Y-1.6742
M15
G01X2.8248Y-1.8238
M16
G05
G00X3.2054Y-1.0035
M15
G01X3.2054Y-1.1531
M16
G05
G00X3.2067Y-1.6742
M15
G01X3.2067Y-1.8238
M16
G05
G00X3.54Y-2.5586
M15
G01X3.54Y-2.7082
M16
G05
G00X3.9219Y-2.5586
M15
G01X3.9219Y-2.7082
M16
G05
T6
G00X0.9081Y-1.6767
M15
G01X0.9081Y-1.4444
M16
G05
G00X1.4796Y-1.0769
M15
G01X1.7119Y-1.0769
M16
G05
G00X1.481Y-1.7476
M15
G01X1.7132Y-1.7476
M16
G05
G00X2.1896Y-0.8913
M15
G01X2.4219Y-0.8913
M16
G05
G00X2.1909Y-1.562
M15
G01X2.4232Y-1.562
M16
G05
G00X2.8983Y-1.0783
M15
G01X3.1306Y-1.0783
M16
G05
G00X2.8996Y-1.749
M15
G01X3.1319Y-1.749
M16
G05
G00X3.6148Y-2.6334
M15
G01X3.8471Y-2.6334
M16
G05
M30
